<?xml version="1.0" standalone="no"?>
<!DOCTYPE svg PUBLIC "-//W3C//DTD SVG 1.1//EN" "http://www.w3.org/Graphics/SVG/1.1/DTD/svg11.dtd" >
<svg xmlns="http://www.w3.org/2000/svg">
<metadata></metadata>
<defs>
<font id="ave_betwan_personal_use_onlRg" horiz-adv-x="1157" >
<font-face units-per-em="2048" ascent="1536" descent="-512" />
<missing-glyph horiz-adv-x="548" />
<glyph unicode="&#xfb01;" horiz-adv-x="1413" d="M-317 -123q6 111 50 216.5t91 203.5q53 106 110.5 207.5t118.5 202.5q104 174 217 343t234 343q18 27 46 57.5t59.5 52t66 27.5t69.5 -14q51 -33 47 -94.5t-42.5 -136.5t-100 -154.5t-126 -150.5t-121 -122t-83.5 -70l-26 -38q39 6 73.5 -8.5t62.5 -40t47.5 -59.5 t25.5 -67q45 -12 107.5 -2.5t136 49.5t156.5 115.5t173 198.5q6 8 -4 -10.5t-29.5 -50t-44 -72.5t-47 -79t-41 -67.5t-24.5 -40.5q-31 -47 -77 -83.5t-100.5 -62.5t-111.5 -38t-107 -10q-12 -74 -41.5 -154t-66.5 -153.5t-75 -137t-68 -102.5q-31 -41 -69 -85t-81 -82 t-92 -66.5t-102 -34.5q-57 -4 -98.5 20.5t-68 64.5t-38 90t-6.5 95zM-162 -92q-41 -133 4 -153.5t160 106.5q43 47 79 96t69 102q29 45 58.5 97.5t56 106.5t45 106.5t22.5 101.5q-47 29 -79 73t-30 97q-49 -80 -104.5 -172t-100.5 -174q-51 -92 -100 -187.5t-80 -199.5z M663.5 244.5q8.5 70.5 38 141.5t60.5 124q35 63 85 126.5t97 126t85 123t50 118.5q8 43 39 58t62.5 8t53 -33.5t13.5 -67.5q-12 -51 -41.5 -104.5t-65.5 -104.5t-73 -99.5t-66 -91.5q-23 -33 -57.5 -89t-63 -117.5t-39 -116.5t18.5 -86q27 -27 75 -9.5t106.5 62.5t121 106.5 t116.5 121t95 106.5t56 65q12 12 21 13.5t15.5 -6t8.5 -18.5t-5 -21q-12 -25 -33.5 -54.5t-39.5 -52.5q-78 -94 -154 -189.5t-150.5 -166t-152.5 -101t-160 3.5q-78 33 -101.5 93.5t-15 131zM1194 1300q0 43 29.5 73t72.5 30t73 -30t30 -73t-30 -72.5t-73 -29.5t-72.5 29.5 t-29.5 72.5z" />
<glyph unicode="&#xfb02;" horiz-adv-x="1368" d="M-317 -123q6 111 50 216.5t91 203.5q53 106 110.5 207.5t118.5 202.5q104 174 217 343t234 343q18 27 46 57.5t59.5 52t66 27.5t69.5 -14q51 -33 47 -94.5t-42.5 -136.5t-100 -154.5t-126 -150.5t-121 -122t-83.5 -70l-26 -38q39 6 73.5 -8.5t62.5 -40t47.5 -59.5 t25.5 -67q45 -12 107.5 -2.5t136 49.5t156.5 115.5t173 198.5q6 8 -4 -10.5t-29.5 -50t-44 -72.5t-47 -79t-41 -67.5t-24.5 -40.5q-31 -47 -77 -83.5t-100.5 -62.5t-111.5 -38t-107 -10q-12 -74 -41.5 -154t-66.5 -153.5t-75 -137t-68 -102.5q-31 -41 -69 -85t-81 -82 t-92 -66.5t-102 -34.5q-57 -4 -98.5 20.5t-68 64.5t-38 90t-6.5 95zM-162 -92q-41 -133 4 -153.5t160 106.5q43 47 79 96t69 102q29 45 58.5 97.5t56 106.5t45 106.5t22.5 101.5q-47 29 -79 73t-30 97q-49 -80 -104.5 -172t-100.5 -174q-51 -92 -100 -187.5t-80 -199.5z M686 249.5q6 69.5 27.5 139.5t40.5 123q49 135 113.5 261t131.5 249q33 57 68 121.5t74 126t83 118t97 101.5q31 27 73 39t78.5 7t60 -29.5t21.5 -73.5q-2 -43 -36.5 -107.5t-80.5 -130.5t-92.5 -126t-72.5 -93q-57 -76 -124 -150.5t-128 -146.5q-31 -63 -71 -150.5 t-67.5 -167t-32.5 -139t34 -67.5q57 -12 124.5 37t135 123.5t128 157.5t101.5 142q10 16 24.5 17.5t24.5 -15.5q8 -16 -4 -37.5t-18 -33.5q-53 -109 -120 -212.5t-151 -193.5q-33 -35 -72.5 -66.5t-83.5 -51t-92.5 -21.5t-95.5 25q-63 35 -83.5 95t-14.5 129.5z" />
<glyph horiz-adv-x="0" />
<glyph unicode="&#xd;" horiz-adv-x="548" />
<glyph horiz-adv-x="0" />
<glyph horiz-adv-x="0" />
<glyph unicode=" "  horiz-adv-x="548" />
<glyph unicode="&#x09;" horiz-adv-x="548" />
<glyph unicode="&#xa0;" horiz-adv-x="548" />
<glyph unicode="!" horiz-adv-x="542" d="M-78 90q0 43 30 73t73 30t72.5 -30t29.5 -73t-29.5 -72.5t-72.5 -29.5t-73 29.5t-30 72.5zM139 485q0 18 9.5 41t17.5 39q55 117 104 209t96.5 168t92.5 138.5t94 119.5q39 45 91 98.5t113.5 95.5t129 65.5t135.5 10.5q20 -4 33.5 -19t15.5 -33.5t-6.5 -36t-28.5 -25.5 q-104 -45 -216.5 -141.5t-218 -212t-196 -233.5t-151.5 -206q-16 -23 -31.5 -48.5t-36.5 -47.5q-16 -16 -31.5 -12t-15.5 30z" />
<glyph unicode="&#x22;" horiz-adv-x="561" d="M182 1024q0 10 8.5 19.5t12.5 17.5q20 31 37.5 60.5t33.5 64.5q31 70 54.5 146.5t74.5 135.5q23 27 53.5 29t56.5 -13.5t38 -43t0 -60.5q-23 -57 -56.5 -112.5t-75.5 -105.5t-91 -92t-103 -73q-16 -10 -29.5 0.5t-13.5 26.5zM426 1024q0 10 9 19.5t14 17.5 q20 31 36.5 60.5t32.5 64.5t28.5 72.5t27 74.5t32 72t41.5 63q25 27 55.5 29t55 -13.5t37 -43t0.5 -60.5q-47 -115 -134.5 -216t-191.5 -167q-14 -10 -28.5 0.5t-14.5 26.5z" />
<glyph unicode="#" horiz-adv-x="1253" d="M-67.5 321.5q6.5 20.5 28.5 32.5q98 45 203 86q27 49 53.5 99.5t54.5 97.5l-98 -27q-25 -6 -42 5.5t-24.5 31t-1 40t28.5 32.5q59 29 119.5 53.5t124.5 46.5q31 53 65.5 108.5t74.5 106.5t85 92t98 68q20 8 39 4t31 -18.5t15.5 -33t-7.5 -36.5q-33 -55 -65.5 -109.5 t-67.5 -107.5q72 14 134.5 23.5t123.5 11.5q53 82 115.5 153.5t142.5 112.5q20 8 39 4t31 -18.5t15 -33t-7 -36.5q-31 -55 -63.5 -108.5t-67.5 -106.5q76 -29 117 -88q18 -29 2.5 -58.5t-47.5 -33.5q-20 -2 -42 6t-42 12q-43 10 -88 12q-33 -49 -66 -97t-67 -97 q53 -12 99 -38t77 -71q20 -29 4.5 -58.5t-49.5 -33.5q-20 -2 -42 6.5t-42 12.5q-76 14 -158 18q-66 -96 -123 -190q-8 -16 -19.5 -41t-26.5 -49.5t-33.5 -41t-43.5 -12.5q-35 4 -43 24.5t-3 46.5t18.5 52.5t21.5 42.5q20 41 38.5 81t41.5 81q-86 -10 -169 -26.5t-167 -37.5 l-76 -120q-10 -14 -21 -40t-25.5 -49.5t-33 -41t-43.5 -13.5q-35 4 -43 24.5t-3 46.5t18.5 52.5t21.5 42.5l25 49q-18 -6 -38 -11t-38 -9q-25 -8 -43 3t-25.5 30.5t-1 40zM387 508q156 41 303 53l107 184q-147 -16 -279 -45q-35 -49 -66.5 -96t-64.5 -96z" />
<glyph unicode="$" horiz-adv-x="1175" d="M-115 195.5q4 37.5 27 74.5q35 53 92 90t117 56q23 6 34 -14.5t-5 -36.5q-16 -12 -46 -40t-52.5 -58.5t-29 -59.5t24.5 -47q59 -35 147.5 -25t180.5 43t174 77t129 79q27 18 61.5 49t62 67.5t40 76.5t-5.5 79t-59.5 56.5t-89.5 19.5t-96 -6t-81 -17q-61 -16 -124.5 -35.5 t-127.5 -7.5q-41 8 -66.5 31t-37 52.5t-9.5 64.5t21 67q35 63 84 114.5t106.5 90.5t116.5 69t117 54q14 43 46 90t66.5 89t67.5 73t49 43q20 14 40 10t33 -18t16 -36t-11 -40q-25 -35 -44 -71.5t-38 -75.5q70 10 135.5 3t124.5 -38q27 -16 31 -45t-19 -51 q-16 -14 -35.5 -15.5t-37.5 -3.5q-84 -8 -170 -25.5t-168 -46t-156 -69.5t-133 -96q-61 -57 -65.5 -81t90.5 -7q94 18 184 37.5t186 5.5q72 -10 123 -47t77 -89.5t26 -116t-31 -128.5q-29 -61 -73 -114.5t-98 -96.5t-114.5 -77t-122.5 -61q-47 -20 -98 -37.5t-104 -31.5 q-8 -23 -30 -56.5t-49.5 -70.5t-57 -73t-56.5 -60q-18 -18 -36.5 -17.5t-33 12t-22.5 31t-2 39.5q10 39 32.5 79t49.5 93q-94 4 -170 41q-37 18 -62.5 48t-37 65t-7.5 72.5z" />
<glyph unicode="%" horiz-adv-x="1198" d="M-274 -18.5q-2 16.5 2 32.5q12 47 41.5 90t60.5 80q98 121 215 224.5t242 199.5q-51 10 -93 36t-68 63.5t-33 88t13 109.5q25 70 78.5 137.5t125 116.5t152.5 75t161 11q14 12 36 19q37 10 69 -8.5t56.5 -51.5t39 -70.5t16.5 -66.5q2 -16 1 -32.5t-3 -33.5 q119 80 211 137.5t190 92.5q20 6 38.5 -2t29 -24.5t9 -36t-15.5 -35.5q-61 -66 -135.5 -117t-148.5 -103q-78 -55 -155 -110t-154 -113q10 -2 22 -2t23 -4q16 16 39 23q37 8 68.5 -8.5t57 -47t43 -67.5t21.5 -66q16 -98 -26 -190t-115.5 -165t-167.5 -122t-183 -61 q-70 -10 -134 -2t-110 41.5t-70.5 95t-14.5 159.5q-86 -70 -163 -129t-140 -145q-14 -18 -28.5 -42t-39.5 -28q-20 -4 -33.5 2.5t-20.5 19.5t-9 29.5zM270.5 793.5q18.5 -27.5 73.5 -22.5t139 60q29 18 72 53.5t73.5 75t37 80.5t-38.5 74q-70 -4 -133.5 -39t-112.5 -80 q-80 -66 -104.5 -120t-6 -81.5zM343 187q19 -40 85 -40t168 62q51 31 103.5 76t84 94t30.5 96t-56 82q-74 -2 -144 -37t-127 -80q-96 -74 -129.5 -143.5t-14.5 -109.5z" />
<glyph unicode="&#x26;" horiz-adv-x="1341" d="M47 426q10 94 52 183t107.5 160t151.5 117t185 56q-29 98 -9.5 200.5t95.5 178.5q66 66 155.5 90.5t182.5 1.5q94 -25 155.5 -97.5t55.5 -172.5q-4 -55 -29 -101.5t-65 -77t-90 -42t-103 5.5q-25 6 -34 25.5t-6 39t18.5 34.5t39.5 13q49 -2 76 25t30 62.5t-18.5 70.5 t-66.5 47q-80 20 -135.5 -6.5t-86 -78.5t-36.5 -120.5t10 -132.5q8 -31 -3 -47t-31.5 -24.5t-44 -10.5t-42.5 -6q-111 -25 -190.5 -99.5t-118.5 -170.5q-25 -63 -31 -131t10.5 -130.5t55.5 -115.5t100 -88q43 -25 92 -39t100.5 -16t99.5 11t89 48q55 45 74.5 104.5t7.5 116 t-54 102.5t-110 64q-25 6 -52.5 5t-49.5 7q-16 6 -24.5 21t1.5 29q33 63 99.5 106t148.5 63.5t169 18.5t161.5 -29.5t128 -81t67.5 -135.5q4 -29 -11 -49t-36 -16q-20 4 -32.5 19.5t-26.5 27.5q-47 41 -110.5 64.5t-133.5 32.5t-138.5 5t-125.5 -16q82 -16 139 -58 q55 -41 84 -99t33 -121.5t-14.5 -128t-57.5 -115.5q-68 -90 -169 -127t-208.5 -28t-208 59.5t-165.5 129.5q-68 82 -92.5 177.5t-14.5 189.5z" />
<glyph unicode="'" horiz-adv-x="333" d="M127 1024q0 10 9 19.5t14 17.5q43 63 67.5 121.5t43 108.5t37.5 95.5t50 81.5q25 27 55.5 29t55 -13.5t37 -43t0.5 -60.5q-23 -57 -56.5 -112.5t-74.5 -105.5t-90.5 -92t-102.5 -73q-16 -10 -30.5 0.5t-14.5 26.5z" />
<glyph unicode="(" horiz-adv-x="735" d="M46 110.5q5 122.5 35 243.5t76 238t101 221q117 225 286 419.5t390 319.5q23 12 44 5t32.5 -24t9.5 -40t-25 -37q-190 -129 -332.5 -309t-246.5 -385q-51 -102 -96.5 -216t-73 -233.5t-31.5 -241.5t25 -237q10 -41 28.5 -78t36.5 -75q8 -16 10 -34t-4 -32t-19 -23.5 t-36 -7.5q-16 2 -31.5 12.5t-29 24.5t-24.5 29.5t-19 27.5q-29 43 -49.5 91.5t-32.5 99.5q-29 119 -24 241.5z" />
<glyph unicode=")" horiz-adv-x="811" d="M-384 -351q1 22 24 36q190 129 333.5 309t247.5 385q51 102 96 217t73 234.5t32 240.5t-25 236q-10 43 -29.5 78.5t-37.5 74.5q-6 14 -8.5 32.5t3 33t18.5 24t38 6.5q16 -2 30.5 -12t28 -24.5t24.5 -29.5t19 -28q29 -43 49.5 -91t32.5 -99q29 -119 24 -242t-34 -244.5 t-76 -237.5t-100 -220q-117 -225 -286 -420t-392 -320q-23 -12 -43 -5t-31.5 25.5t-10.5 40.5z" />
<glyph unicode="*" horiz-adv-x="811" d="M7 949.5q5 25.5 30 41.5q59 41 140 61.5t159 22.5q-59 39 -114.5 61.5t-84.5 65.5q-16 25 -12 50.5t20.5 44t41 25.5t49.5 -7q51 -25 97 -79t75 -114q20 78 28 136.5t39 99.5q18 23 43 27t47.5 -5.5t36.5 -31t8 -50.5q-6 -39 -25.5 -77.5t-45.5 -75.5q41 29 85 59.5 t93 38.5q29 6 51.5 -8t31.5 -37.5t4 -49.5t-30 -42q-59 -41 -140 -61.5t-159 -22.5q23 -20 50.5 -32.5l55 -25t52 -27.5t43.5 -42q14 -25 11 -50.5t-19.5 -44t-41 -24.5t-48.5 6q-53 25 -100.5 79t-74.5 116q-18 -78 -25 -138.5t-40 -99.5q-18 -23 -44 -26.5t-48.5 5.5 t-35.5 30.5t-9 50.5q4 37 23.5 75.5t45.5 75.5q-41 -29 -85 -58.5t-91 -39.5q-29 -4 -51.5 10.5t-31.5 38t-4 49z" />
<glyph unicode="+" horiz-adv-x="1304" d="M8 513.5q6 21.5 29 31.5q211 102 436 157q35 66 73 130.5t83 125.5q18 25 40.5 53.5t49 53.5t55.5 44t62 28q20 6 37.5 -1.5t27.5 -22.5t11 -33.5t-11 -35.5q-12 -16 -30.5 -40.5t-44 -59.5t-57.5 -84t-69 -117q57 8 120 9.5t119 -9t105.5 -37t83.5 -73.5 q10 -14 10.5 -29.5t-6 -29t-19.5 -22.5t-30 -11q-20 -2 -41.5 6t-42.5 12q-117 23 -220 18.5t-201 -20.5q-66 -92 -112 -188.5t-81 -194.5q-12 -37 -30.5 -52.5t-36 -11t-27.5 26t-6 58.5q8 76 38.5 166t59.5 157q-78 -18 -153.5 -38.5t-151.5 -43.5q-25 -6 -43.5 5.5 t-25.5 31t-1 41z" />
<glyph unicode="," horiz-adv-x="356" d="M-365 -270q0 10 9.5 19t13.5 20q23 31 45.5 61.5t42.5 65.5q41 68 75 142.5t87 135.5q25 27 55.5 29t55 -13.5t36.5 -44t-2 -61.5q-25 -59 -66.5 -114.5t-92 -105.5t-106.5 -91t-110 -72q-16 -8 -29.5 2t-13.5 27z" />
<glyph unicode="-" horiz-adv-x="1054" d="M172 518.5q-4 18.5 2.5 38t26.5 29.5q68 35 153.5 59.5t174.5 30.5t173 -10.5t150 -65.5q23 -16 24 -34.5t-9.5 -34t-30 -25.5t-39.5 -10q-47 0 -92.5 3t-90.5 3q-98 0 -192 -10.5t-193 -16.5q-23 -2 -38 11.5t-19 32z" />
<glyph unicode="." horiz-adv-x="389" d="M-106 90q0 43 29.5 73t72.5 30t72.5 -30t29.5 -73t-29.5 -72.5t-72.5 -29.5t-72.5 29.5t-29.5 72.5z" />
<glyph unicode="/" horiz-adv-x="1091" d="M-158 -183q2 36 14.5 79t28 82.5t29.5 71.5t20 42q104 221 257 442.5t334.5 418t383 356t402.5 260.5q20 10 40.5 1t33 -26.5t14 -38.5t-16.5 -35q-207 -156 -405.5 -335t-377.5 -380.5t-333.5 -425t-273.5 -466.5q-8 -12 -15.5 -34t-17.5 -41t-23.5 -34.5t-31.5 -15.5 q-37 -2 -50.5 20.5t-11.5 58.5z" />
<glyph unicode="0" horiz-adv-x="403" d="M-9057 -623.5q-9 17.5 5 41.5q70 123 194.5 206t277 134.5t322.5 78t329 36.5t296 12t225 4q154 4 433.5 -7t649 -30.5t810 -45t915.5 -50t964.5 -42t956.5 -22.5t894 6t776.5 46t602 97.5t371.5 160.5q147 129 196.5 243.5t8.5 203.5q-20 47 -59 78.5t-88 41.5 q-12 2 -17.5 12.5t-4.5 20.5t9.5 17.5t20.5 7.5q68 -4 126 -40t93 -93q39 -59 45 -133t-16.5 -157t-74.5 -170t-132 -169q-143 -143 -420 -237.5t-650.5 -150t-826 -77t-947.5 -20t-1013 20.5t-1023 47t-979 56.5t-880.5 50t-726 30.5t-517.5 -7q-100 -8 -231.5 -16 t-271.5 -29.5t-278.5 -64.5t-253.5 -121q-16 -10 -39.5 -9.5t-43 11t-28.5 28z" />
<glyph unicode="1" horiz-adv-x="4" d="M-2098.5 -544.5q3.5 14.5 20 27.5t37 23.5t28.5 14.5q53 29 108.5 54.5t112.5 47.5q242 102 502 166t524 76q113 6 242 -1t251.5 -39t228 -95.5t171.5 -169.5q12 -16 -3.5 -33.5t-33.5 -7.5q-102 51 -207.5 83.5t-213 49t-219.5 20.5t-224 0q-242 -10 -476.5 -50 t-467.5 -97q-53 -14 -107.5 -27.5t-107.5 -29.5q-12 -4 -30.5 -11.5t-39 -14.5t-40 -11t-32.5 0q-27 10 -23.5 24.5z" />
<glyph unicode="2" horiz-adv-x="4" d="M-3663 -561.5q5 14.5 33 28t62.5 24.5t46.5 15q92 31 185.5 56.5t191.5 50.5q412 106 853.5 171.5t889.5 80.5q129 4 270.5 2t286 -12.5t283.5 -32t265 -58t231.5 -90t181.5 -127.5q10 -10 7 -19t-13.5 -16.5t-27 -9.5t-30.5 2q-176 53 -354 87t-361.5 51.5t-372 21.5 t-380.5 0q-408 -10 -807 -52t-797 -101q-92 -14 -182 -28.5t-182 -31.5q-20 -4 -52 -12t-66 -15.5t-66.5 -11.5t-55.5 0q-45 12 -40 26.5z" />
<glyph unicode="3" horiz-adv-x="4" d="M-6149.5 -578.5q17.5 11.5 57.5 23.5t87 22.5t68 14.5q156 33 311.5 60.5t317.5 54.5q684 111 1415 182t1476 86q213 4 447.5 2t473.5 -13.5t470 -34t440 -62.5t384 -96t300 -136q35 -18 23.5 -39.5t-62.5 -11.5q-291 57 -598 93t-623.5 56.5t-639 25.5t-641.5 1 q-674 -10 -1339.5 -55.5t-1321.5 -108.5q-150 -14 -300 -30.5t-306 -33.5q-33 -4 -88 -10t-116.5 -10t-119 -5t-94.5 5q-39 8 -21.5 19.5z" />
<glyph unicode="4" horiz-adv-x="4" d="M12 1191.5q-4 65.5 21.5 126t75 110t108.5 77.5q74 33 155 45.5t165 11.5t167.5 -9.5t161.5 -16.5q162 -16 322 -36.5t323 -24.5q61 -2 134 1t141.5 19t127 51t89.5 99q12 23 32.5 27.5t39 -2.5t29.5 -24t5 -42q-23 -94 -82 -154.5t-140 -94.5t-178 -46.5t-195.5 -13.5 t-190.5 7.5t-162 14.5q-158 14 -313.5 34.5t-312.5 30.5q-53 2 -123 1t-133.5 -17t-110.5 -55t-55 -113q-6 -55 17.5 -89t61 -52.5t85 -23.5t88.5 -1q14 2 21 -6t7 -18.5t-6 -20.5t-18 -12q-98 -16 -180.5 11.5t-125.5 80.5q-47 59 -51 124.5z" />
<glyph unicode="5" horiz-adv-x="4" d="M-2253 -510.5q-4 21.5 2 43.5q23 82 76 136.5t124 87t153.5 47t166.5 18.5t165 0t147 -8q147 -10 294.5 -28.5t297.5 -35.5q57 -6 127.5 -13t141.5 -4t135.5 23.5t111.5 69.5q27 31 37 65.5t5 69.5t-25.5 65.5t-55.5 49.5q-10 6 -13.5 16t1 19.5t12.5 14.5t20 3 q57 -16 97 -53t59.5 -86t17.5 -103.5t-26 -105.5q-27 -55 -70 -93t-95 -63.5t-110.5 -40t-115.5 -18.5q-133 -10 -265.5 -1t-265.5 25.5t-265 34t-265 21.5q-53 2 -111.5 2t-117 -7.5t-113 -25.5t-99.5 -51q-31 -23 -46 -52.5t-40 -52.5q-23 -18 -42 -18t-32.5 13.5 t-17.5 35z" />
<glyph unicode="6" horiz-adv-x="4" d="M-231 1327q0 20 16 43t39.5 42.5t47.5 34.5t40 23q68 37 177.5 59.5t247.5 33t296 11.5t321.5 -4t324.5 -12.5t304 -14.5t262 -12t197 -3q61 2 130 8t133.5 24.5t119.5 52.5t94 91q12 16 32.5 10.5t20.5 -28.5q0 -53 -21.5 -98.5t-56 -82.5t-78.5 -64.5t-89 -43.5 q-119 -47 -248 -56.5t-254 -5.5q-86 2 -236.5 18.5t-334 34t-383 33t-383 18.5t-336 -11.5t-240.5 -57.5q-8 -4 -31.5 -21.5t-48.5 -31.5t-44 -16.5t-19 26.5z" />
<glyph unicode="7" horiz-adv-x="403" d="M-4060 -623.5q-9 17.5 5 41.5q70 123 194.5 206t277.5 135.5t323 79t328.5 37.5t295.5 12t226 1q193 2 412.5 -14t447 -33.5t452 -29t424 1t364.5 55.5t275 133q154 125 200 241.5t5 205.5q-20 47 -59 78.5t-88 41.5q-12 2 -17.5 12.5t-4.5 20.5t9.5 17.5t20.5 7.5 q68 -4 126 -40t93 -93q39 -59 47 -135t-13.5 -160t-74.5 -170t-137 -164q-156 -143 -364 -216t-450.5 -101.5t-512 -22.5t-549 22.5t-562 29.5t-548.5 1q-100 -4 -231.5 -12t-271.5 -30.5t-278.5 -66.5t-253.5 -122q-16 -10 -39.5 -9.5t-43 11t-28.5 28z" />
<glyph unicode="8" horiz-adv-x="403" d="M-5780.5 -623.5q-9.5 17.5 5.5 41.5q70 123 194.5 207t277 136.5t322.5 79t329 37.5t296 11h225q162 -2 406.5 -21.5t538.5 -46t618.5 -54t649.5 -43t631 -13.5t560 35q217 29 388 87t304 169q152 127 199 242.5t6 204.5q-20 47 -59 78.5t-88 41.5q-12 2 -17.5 12.5 t-4.5 20.5t9.5 17.5t20.5 7.5q68 -4 126 -40t93 -93q39 -59 46 -134t-16.5 -158t-75.5 -169t-132 -168q-154 -154 -382.5 -243t-502.5 -130q-264 -41 -541.5 -50t-573.5 0t-610.5 31.5t-651.5 46t-697.5 41t-747.5 17.5q-100 0 -231 -7t-271.5 -30.5t-278.5 -69.5t-253 -124 q-16 -10 -39.5 -9.5t-43 11t-29 28z" />
<glyph unicode="9" horiz-adv-x="403" d="M-7419 -623.5q-9 17.5 5 41.5q70 123 195 206t277.5 134.5t322.5 78t328.5 36.5t296 12t225.5 4q80 2 178 -1t233.5 -10t316.5 -17.5t427 -24.5t566.5 -30.5t733.5 -32.5q666 -29 1202.5 -45.5t946 1t692.5 80t438 193.5q152 127 199 242.5t6 204.5q-20 47 -59 78.5 t-88 41.5q-12 2 -17.5 12.5t-4.5 20.5t9.5 17.5t20.5 7.5q68 -4 126 -40t93 -93q39 -59 46 -134t-16.5 -158t-75.5 -169t-132 -168q-178 -182 -485.5 -277.5t-744.5 -130.5t-1003.5 -23.5t-1264.5 44.5q-420 18 -752 36.5t-597 34t-475 25.5t-386 15t-329.5 3t-307.5 -14 q-100 -8 -231.5 -16t-271.5 -29.5t-278.5 -64.5t-252.5 -121q-16 -10 -40 -9.5t-43.5 11t-28.5 28z" />
<glyph unicode=":" horiz-adv-x="569" d="M4 70q0 43 29.5 72.5t72.5 29.5t73 -29.5t30 -72.5t-29.5 -73t-73.5 -30q-43 0 -72.5 30t-29.5 73zM360 932q0 43 30 72.5t73 29.5t72.5 -29.5t29.5 -72.5t-29.5 -73t-72.5 -30t-73 30t-30 73z" />
<glyph unicode=";" horiz-adv-x="569" d="M-201 -270q0 10 9.5 19t13.5 20q23 31 45 61.5t43 65.5q41 68 74.5 142.5t87.5 135.5q25 27 55.5 29t55 -13.5t36.5 -44t-2 -61.5q-25 -59 -65.5 -114.5t-92 -105.5t-107.5 -91t-110 -72q-16 -8 -29.5 2t-13.5 27zM360 932q0 43 30 72.5t73 29.5t72.5 -29.5t29.5 -72.5 t-29.5 -73t-72.5 -30t-73 30t-30 73z" />
<glyph unicode="&#x3c;" horiz-adv-x="1005" d="M162.5 560q-4.5 26 9.5 48q39 57 117 110.5t170 95.5t183 71t157 37q23 6 37 -0.5t18 -18.5t-3 -26.5t-28 -24.5q-59 -31 -123.5 -59.5t-126 -59.5t-116 -66.5t-92.5 -84.5q10 -18 37.5 -58.5t58.5 -83.5t56.5 -83t29.5 -60q6 -33 -3 -49.5t-25.5 -21.5t-35 3.5 t-32.5 24.5q-12 14 -48 53t-78 82t-80 81t-55 48q-23 16 -27.5 42z" />
<glyph unicode="=" horiz-adv-x="1372" d="M-74 321.5q6 20.5 29 32.5q129 61 264 107.5t277 73.5q63 12 141 22t154.5 5t144.5 -31.5t111 -88.5q18 -29 3.5 -58.5t-49.5 -33.5q-20 -2 -41.5 6.5t-41.5 12.5q-76 16 -153 19t-155 -5q-158 -16 -311.5 -53t-304.5 -82q-25 -6 -42.5 5t-24.5 29.5t-1 39zM100 686.5 q6 20.5 29 32.5q258 125 541 180q63 12 140 22.5t153.5 5.5t145.5 -32t112 -88q18 -29 2.5 -58.5t-47.5 -33.5q-20 -2 -42 6t-42 12q-78 16 -154 18.5t-154 -6.5q-160 -16 -311 -54t-305 -81q-25 -6 -42 5.5t-24.5 31t-1.5 40z" />
<glyph unicode="&#x3e;" horiz-adv-x="1005" d="M88 248q-4 12 3 26.5t28 24.5q57 31 122.5 59.5t127 59.5t116 66.5t93.5 84.5q-10 18 -39 58.5t-59.5 83.5t-55.5 83t-29 60q-6 33 3.5 49.5t25.5 21.5t34.5 -3.5t33.5 -24.5q12 -14 47.5 -53t77.5 -82t80 -81t55 -48q23 -16 27.5 -42t-9.5 -48q-39 -57 -117 -110.5 t-170 -95.5t-183 -71t-157 -37q-23 -6 -37 0.5t-18 18.5z" />
<glyph unicode="?" horiz-adv-x="894" d="M-78 90q0 43 30 73t73 30t72.5 -30t29.5 -73t-29.5 -72.5t-72.5 -29.5t-73 29.5t-30 72.5zM158 502q8 55 41.5 103t79 88t96.5 72t94 58q53 31 113.5 60.5t119 61.5t111.5 70t96 85q43 49 48.5 91t-22.5 67.5t-87.5 30.5t-140.5 -17q-49 -14 -106.5 -38t-108 -57.5 t-86 -79.5t-41.5 -106q-4 -23 -26 -25.5t-32 17.5q-23 51 -16.5 105.5t32 103.5t63.5 91t79 71q96 72 220 104.5t241 -4.5q76 -25 129 -81t63 -134q8 -70 -10 -124t-54 -98t-84 -78t-98 -62q-74 -41 -164 -79t-179 -80t-166.5 -92.5t-126.5 -115.5q-8 -10 -13.5 -22.5 t-13.5 -20.5q-27 -23 -41 -8.5t-10 43.5z" />
<glyph unicode="@" horiz-adv-x="1859" d="M-15 96.5q-1 69.5 9 136.5q23 147 92.5 300t172.5 293.5t234.5 262t276.5 206.5t300 126t304 23q102 -14 173 -60.5t114 -115t60.5 -152.5t14.5 -173t-25.5 -177t-57.5 -164q-37 -78 -86 -148.5t-106.5 -133t-118 -113.5t-117.5 -88q-35 -23 -76 -42.5t-82 -24.5 t-77 10.5t-60 62.5q-18 35 -18.5 75t9 79.5t25 77.5t31.5 71q14 29 28.5 58.5t30.5 58.5q-72 -57 -132 -143.5t-113 -165.5q-23 -31 -47.5 -65t-55.5 -60.5t-66.5 -42t-78.5 -11.5q-88 8 -121 64.5t-31 128.5t26.5 147.5t49.5 124.5q72 141 179.5 260t244.5 197 q53 31 115.5 51.5t126 26.5t125 -6.5t116.5 -51.5q18 -12 22.5 -32.5t-3 -38t-24.5 -28.5t-40 -5q-111 25 -210 -5t-183 -92.5t-152.5 -144.5t-119.5 -161q-37 -59 -60.5 -122t-26 -103t22.5 -44t84 58q35 37 79 91t92 111.5t100.5 109.5t106.5 88t106.5 46t103.5 -18 q23 -12 31 -39t-9 -49q-66 -102 -98.5 -163t-48.5 -96q-27 -61 -27 -85.5t16.5 -22.5t46 23.5t64.5 52.5q72 63 137.5 142t113.5 166t76 180t25 190q-2 49 -13 96t-34.5 88t-59.5 70.5t-85 44.5q-61 16 -127 17t-129.5 -9t-125.5 -31.5t-118 -48.5q-121 -57 -231.5 -140 t-202.5 -185.5t-162.5 -221.5t-113.5 -244q-20 -59 -33.5 -124.5t-17 -132t8 -131t42.5 -124.5q51 -100 135 -137t179 -34t189.5 37t165.5 75q72 39 87.5 32t-1 -35t-51.5 -64.5t-61 -57.5q-78 -57 -171.5 -94t-187.5 -44t-183 19.5t-161 96.5q-51 49 -84 108.5t-50 126 t-18 136z" />
<glyph unicode="A" horiz-adv-x="1495" d="M6 446q-1 4 -1 7q-1 11 7 23q10 18 27.5 35t28.5 26q53 43 113.5 72.5t129.5 49.5q100 156 230.5 290t271.5 249q51 43 126 95.5t157 90.5q82 40 162 54q25 4 48 4q52 0 95 -23q74 -41 82 -113q2 -17 2 -34q1 -56 -19 -118q-26 -81 -68 -157.5t-69 -126.5 q-53 -96 -108.5 -188t-108.5 -186q-18 -31 -40.5 -67t-44 -75t-38 -78.5t-22.5 -78.5q-6 -35 10 -40t39.5 4t47 24.5t34.5 21.5q125 88 222 194.5t179 216.5q17 22 33 8q12 -12 13 -26q0 -4 -1 -8q-2 -16 -11 -35.5t-17 -34.5q-39 -72 -96.5 -160t-128 -166.5t-150.5 -136 t-164 -63.5q-8 -1 -16 -1q-39 1 -70 17q-37 20 -59.5 53t-29.5 77q-3 21 -3 42q0 24 4 49q10 53 28.5 103.5t40.5 101.5q-25 39 -73.5 60.5t-110.5 29.5q-35 4 -72 4q-28 0 -56 -2q-66 -6 -128 -16q-59 -100 -106 -210.5t-47 -225.5q0 -18 1 -31.5t-14 -30.5 q-20 -23 -49 -19.5t-45 30.5q-34 56 -34 130v12q3 81 20 146q10 41 23.5 79t29.5 77q-41 -12 -85 -25.5t-83 -13.5q-33 0 -37 14zM561 694q51 -2 104.5 -10t101.5 -26.5t89 -48t68 -72.5q51 88 105 172t105.5 168t96.5 167.5t78 174.5q5 16 5 27q0 18 -14 21q-7 2 -15 2 q-18 1 -43 -7q-36 -10 -71.5 -29t-44.5 -23q-170 -96 -309 -232t-256 -284z" />
<glyph unicode="B" horiz-adv-x="1241" d="M10 898q-5 10 -5 21t5 23q27 70 71 130.5t100.5 111.5t120 93t128.5 75q61 31 140 59.5t160 35.5q20 2 39 1q59 0 115 -16q74 -22 124 -89q37 -51 44 -107q2 -18 2 -36q0 -36 -10 -74q-14 -54 -43.5 -103.5t-66.5 -86.5q35 -6 63 -18q78 -30 109 -90q30 -58 30 -125 q0 -71 -28 -145q-27 -71 -64 -126q-51 -78 -119.5 -147.5t-148.5 -127t-170 -98.5t-182 -57q-41 -7 -81 -7q-27 0 -53 3q-66 8 -117.5 39t-86.5 83t-39 128q-1 14 -1 28q0 95 36 185q41 104 92 196q115 203 279 369q23 25 56.5 15.5t39.5 -44.5q6 -29 -17.5 -55.5 t-50.5 -60.5q43 18 88 28.5t80 16.5q37 27 72 54.5t65 57.5q18 18 39 42t34 51.5t16.5 55t-15.5 52.5q-27 37 -83 39h-13q-50 0 -106 -14q-62 -16 -119.5 -40t-87.5 -38q-98 -49 -191.5 -121t-144.5 -172q-12 -23 -34 -28t-41.5 4.5t-29.5 28.5zM207 305q-1 -13 -1 -24 q0 -51 22 -77q26 -30 69 -37q16 -3 33 -2q29 0 60 7q50 12 91 29q70 29 133.5 70.5t122.5 88.5q35 27 85 76t92 106.5t64 115.5q11 29 10 56q0 27 -11 50q-18 41 -68.5 54t-99.5 13q-35 -23 -91 -55.5t-120 -55.5q-62 -22 -122 -25h-9q-54 0 -88 36q-16 -29 -32.5 -55.5 t-31.5 -54.5q-39 -72 -70.5 -152t-37.5 -164z" />
<glyph unicode="C" horiz-adv-x="1114" d="M6 480q6 72 25 141q33 123 99.5 256t159.5 248.5t207.5 201.5t243.5 113q35 7 71 7q18 0 36 -2q54 -5 101.5 -26.5t83.5 -59.5t52 -95q13 -48 13 -100q0 -20 -2 -38q-6 -72 -33 -139t-71 -125.5t-99 -95.5q-20 -14 -41 -9t-34 20.5t-14 37t17 39.5q41 39 66.5 91 t38.5 106q12 56 12 98q0 25 -4 45q-12 54 -51 72q-24 11 -54 11q-19 0 -43 -5q-58 -12 -127 -55q-88 -53 -159.5 -134.5t-128.5 -167.5q-43 -63 -91 -157q-50 -94 -76 -194q-20 -76 -19 -150q-1 -22 1 -46q8 -96 82 -163q40 -39 100 -42q10 0 20 -1q50 0 102 13 q62 15 121 43t100 50q70 37 125 78t101 84t88 87t87 89q10 10 23.5 19.5t23.5 -7.5q5 -7 5 -17q0 -11 -7 -27q-12 -28 -20 -44q-53 -90 -123 -170.5t-151 -147.5t-169 -116t-176 -73q-69 -21 -141 -21q-31 0 -61 4q-104 12 -181 84q-55 51 -85 114.5t-40 133.5q-6 44 -6 88 q0 27 2 54z" />
<glyph unicode="D" horiz-adv-x="1263" d="M8 164q-4 23 -4 47q0 37 10 75q16 64 44 124.5t65 117t70 101.5q72 100 156.5 190t176.5 174q23 20 42.5 18.5t30.5 -15t12 -36t-13 -45.5q-41 -59 -97.5 -132.5t-113.5 -156.5t-109.5 -171t-84.5 -176q-15 -39 -15 -64q0 -27 16 -37q19 -12 54 -11q23 0 53 5 q63 12 124.5 41t118 66.5t106.5 82t93 84.5q55 55 110.5 121t100.5 138.5t73 151.5t32 161v16q0 64 -28 124q-32 66 -103 95q-55 21 -114 21q-22 0 -46 -3q-84 -11 -158 -38q-68 -23 -136 -58.5t-129.5 -81.5t-112 -102.5t-82.5 -122.5q-12 -23 -33 -27.5t-39.5 2.5 t-30.5 24t-6 42q25 104 92.5 191.5t156.5 155t192.5 113.5t201.5 67q56 12 114 14h19q47 0 95 -8q56 -10 108.5 -34t95.5 -67q88 -87 110 -205q10 -54 9 -106q0 -64 -14 -129q-25 -113 -80.5 -218t-129 -200.5t-162.5 -177.5t-181 -145q-47 -31 -97.5 -60.5t-103.5 -51.5 t-109 -36q-49 -12 -99 -12h-15q-39 0 -78 10t-72 29.5t-56.5 50.5t-29.5 74z" />
<glyph unicode="E" horiz-adv-x="1245" d="M8 526q10 31 43 65t73 64.5t82 56t73 44.5q68 104 146.5 198.5t164.5 184.5q-55 -23 -108.5 -48.5t-106.5 -54.5q-23 -12 -42.5 -6t-31.5 21.5t-12 36t16 38.5q115 119 270.5 191t315.5 106q86 19 172 27q40 4 79 3l93 -5q35 -4 75 -11t76.5 -22.5t67.5 -38t47 -57.5 q5 -11 5 -18q0 -3 -1 -5q-4 -8 -13 -10t-21.5 -1t-20.5 5q-31 12 -58.5 18.5t-62.5 6.5q-135 0 -262 -26.5t-248 -65.5q-72 -86 -140.5 -169t-150.5 -196q55 16 122 28.5t133.5 12.5t127 -17.5t101.5 -60.5q16 -16 5.5 -36.5t-30.5 -16.5q-26 3 -55 3q-40 0 -86 -6 q-80 -11 -163 -32.5t-160 -48.5t-130 -51q-31 -55 -56.5 -111.5t-41.5 -115.5q-21 -69 -21 -117q0 -21 4 -39q14 -54 62 -74q33 -14 78 -14q18 0 38 2q70 8 150 31q164 47 310.5 136t263.5 206q20 20 34.5 37.5t24.5 29.5q16 20 29.5 21.5t20.5 -9t7 -28t-6 -31.5 q-14 -31 -40.5 -67.5t-55.5 -69.5t-54.5 -58.5l-33.5 -33.5q-72 -72 -166 -139.5t-200 -116.5q-106 -48 -216 -68q-50 -9 -97 -9q-60 0 -118 13q-88 20 -136 78q-47 59 -63 135q-8 38 -8 78.5t8 82.5q16 85 52 159q-18 -10 -48 -25.5t-58 -23.5q-26 -10 -42 -4q-9 3 -10 17 q0 8 4 21z" />
<glyph unicode="F" horiz-adv-x="1224" d="M6 397q0 20 14.5 45t34 46.5t40 39t32.5 27.5q92 80 211 131q102 156 213 296t244 255q-279 -61 -547 -162q-23 -8 -34 13.5t9 35.5q139 100 296 172t323 115q74 17 172 33q74 12 148 12q24 0 48 -1q98 -5 182.5 -40t129.5 -117q9 -17 9 -32q0 -5 -1 -9q-4 -18 -16.5 -29 t-30 -13.5t-31.5 10.5q-18 14 -46 28.5t-58 20.5q-61 13 -127 13h-25q-80 -3 -154 -11q-127 -96 -233.5 -226t-216.5 -284q61 12 132 20q44 5 87 4q25 0 51 -2q68 -4 129.5 -21t108.5 -54q20 -16 9 -36t-34 -15q-34 7 -75 7q-33 -1 -70 -5q-84 -10 -171 -28t-168 -41.5 t-136 -43.5q-49 -86 -85 -176t-46 -182q-4 -40 -4 -70v-19q2 -36 0 -58.5t-7.5 -34t-25.5 -11.5q-29 0 -50.5 20.5t-35 49t-21.5 60.5t-10 52q-2 22 -2 44q0 48 9 96q13 70 40 137l-76 -35q-35 -16 -60.5 -30.5t-43 -20.5t-24.5 -2t-7 26z" />
<glyph unicode="G" horiz-adv-x="1277" d="M7 392q5 67 26.5 133.5t52.5 125.5q68 133 170 254t223 220.5t254 173t264 114.5q61 18 134 27q40 6 79 6q33 0 65 -4q71 -8 133 -39t103 -92q4 -7 4 -14q0 -10 -7 -19q-13 -18 -31 -12q-88 34 -180 34q-20 0 -39 -2q-113 -8 -223.5 -50t-217 -110.5t-201 -150.5 t-173 -169t-132.5 -165q-27 -39 -58.5 -91t-50.5 -110q-19 -54 -19 -107v-5q1 -55 38 -100q36 -42 100 -42h3q67 1 140 22.5t138.5 54t102.5 53.5q45 113 105 221t144 194q39 39 82 55q30 12 55 12q11 0 21 -2q33 -7 45 -38q4 -11 4 -25q0 -25 -14 -61q-37 -86 -99.5 -155.5 t-121.5 -122.5q-111 -201 -181 -416q-6 -16 -13 -47t-19.5 -56.5t-32.5 -36.5q-8 -5 -17 -5q-15 0 -34 12q-23 14 -27 49q-2 14 -2 29q0 21 4 45q6 38 16.5 75t16.5 56l14 59q-68 -47 -143.5 -83t-151.5 -47q-26 -4 -52 -4q-48 0 -94 14q-71 20 -128 89q-47 55 -64 120 q-12 50 -12 101q0 16 1 32z" />
<glyph unicode="H" horiz-adv-x="1599" d="M4 548q-1 2 -1 4q0 11 17 34q35 47 92.5 79.5t108.5 57.5q76 33 146 53q49 74 98 142q106 145 235 284t283 238q15 9 30 9q5 0 9 -1q20 -4 33.5 -19.5t15.5 -36t-12 -38.5q-111 -133 -223.5 -264.5t-221.5 -278.5q35 0 69 -2t69 -6t73.5 -15.5t77.5 -29t73 -41t56 -53.5 q23 39 45.5 76.5t44.5 76.5q49 76 113.5 168t137.5 180t151 161t151 114q17 9 33 9q4 0 10 -1q20 -4 31 -18q9 -12 9 -28q0 -21 -21 -38q-57 -43 -120 -119t-121 -162t-109.5 -169t-88.5 -142q-53 -88 -102 -178t-90 -186q-8 -23 -21.5 -58t-23.5 -71.5t-12 -69.5t12 -47 q18 -18 51 -7t70 33.5t70.5 50t52.5 44.5q72 63 136 133.5t126 144.5q29 35 39 51.5t32 12.5q18 -4 21.5 -17.5t-1.5 -31t-14.5 -33t-13.5 -23.5q-43 -86 -96 -168t-119 -153q-41 -45 -109 -99t-142 -84q-56 -22 -108 -23q-18 0 -36 3q-70 10 -115 94q-23 41 -27 87 q-1 16 -1 32q1 30 5 61q8 47 22 93.5t30 87.5q10 29 21.5 54t23.5 52q-35 49 -97 69q-60 19 -132 22q-20 1 -39 1q-53 0 -103 -6q-70 -8 -119 -14q-41 -63 -79 -140q-18 -37 -38 -78.5t-35 -84.5t-23 -87q-6 -30 -6 -59q0 -14 1 -28q2 -16 9.5 -46t7.5 -56.5t-13.5 -43 t-52.5 -4.5q-31 8 -50.5 39t-28.5 70t-12 77.5t-1 63.5q4 86 28.5 169t63.5 163q-41 -10 -81 -19.5t-81 -19.5q-14 -4 -35.5 -8.5t-38 -2t-20.5 13.5z" />
<glyph unicode="I" horiz-adv-x="1165" d="M6 10q-1 3 -1 7q1 15 15 27q18 16 42 29t49.5 22t38.5 14q113 41 243 57l45 4q-24 43 -28 90q-2 22 -2 45q0 25 3 49q5 47 17 93.5t27 89.5q29 86 68.5 165.5t86.5 157.5q59 98 131 193.5t156 179.5q-39 -10 -79 -19.5t-81 -13.5q-16 -2 -38.5 -3t-41 3t-27.5 16.5 t5 38.5q25 47 70 79t99 51.5t110.5 32t103.5 18.5q48 8 106 13q36 3 72 3q21 0 43 -1q57 -3 112.5 -15.5t98.5 -40.5q16 -10 16 -26q0 -4 -1 -9q-5 -23 -33 -21q-16 1 -32 1q-58 0 -110 -12q-66 -15 -129 -25q-104 -111 -196.5 -230t-169.5 -248q-47 -78 -90 -159.5 t-78 -167.5q-10 -29 -27.5 -74t-29 -92t-11.5 -90t25 -68q59 -4 116.5 -18.5t104.5 -49.5q16 -12 13 -31.5t-23 -23.5q-84 -16 -169 -26.5t-167 -17.5t-159 -11t-144 -10q-12 0 -35 -3q-17 -2 -35 -2h-12q-24 1 -44 7t-24 22z" />
<glyph unicode="J" horiz-adv-x="1073" d="M6 262q2 76 29.5 146.5t73 131t103.5 111.5t122 88q98 57 203.5 89t216.5 51q29 70 62.5 135t74.5 127q29 41 64.5 84t80.5 71q-84 -4 -180 -18t-187 -45t-170 -78t-130 -115q-14 -16 -36 -9t-20 30q6 70 43 128t91.5 103t120 76t126.5 49q51 14 128 21q37 4 75 4 q40 0 80 -4q78 -8 142.5 -37t88.5 -86q6 -16 -2 -28.5t-20 -16.5q-51 -12 -89 -51t-65.5 -91.5t-48 -112t-37.5 -110.5q92 12 184.5 23.5t174.5 21.5q33 4 48 -5t15 -23.5t-16.5 -29.5t-46.5 -24q-106 -27 -205 -48t-197 -44q-53 -135 -111.5 -266t-144.5 -248 q-41 -53 -95 -112.5t-118.5 -101.5t-137.5 -58q-23 -4 -47 -4l-99 22q-74 33 -110 104q-34 68 -34 142v8zM183 238q3 -33 28 -56q23 -21 51 -21q13 0 28 5q44 16 85 51t73.5 75t47.5 58q66 86 110.5 180.5t83.5 192.5q-133 -41 -250.5 -108.5t-189.5 -176.5 q-16 -23 -33.5 -57.5t-26.5 -71.5q-8 -28 -8 -54q0 -8 1 -17z" />
<glyph unicode="K" horiz-adv-x="1327" d="M8 199q-4 33 -4 66q0 58 12 116q18 92 52 181t79.5 173t92.5 158t100 150.5t113.5 148.5t128 133t145.5 109q20 12 40.5 8t33 -19.5t14.5 -36t-12 -38.5q-133 -162 -239.5 -297.5t-182.5 -274.5q44 19 86 19q48 0 94 -25q53 29 102.5 59.5t98.5 63.5q135 92 265 192.5 t247 212.5q23 23 44 44.5t40 48.5q14 18 21 34.5t24 22.5q2 1 5 1q8 -1 16 -13q10 -16 10 -46t-12.5 -72t-39.5 -89q-84 -141 -212 -246.5t-265 -189.5q-59 -37 -120.5 -69t-125.5 -58q23 -45 38.5 -88t27.5 -86q16 -61 26.5 -115.5t19.5 -95.5t21.5 -71t34.5 -42 q17 -11 38 -10q19 0 41 8q46 18 95.5 59t98.5 96.5t92 108.5t75.5 96t47.5 60q27 29 44 34t25.5 -5.5t6.5 -33t-17 -49.5q-35 -76 -84 -158.5t-109.5 -156.5t-131 -130t-150.5 -81q-42 -12 -79 -12q-24 0 -44 5q-53 13 -92 53t-64.5 102.5t-39.5 140.5t-29.5 157.5 t-52.5 157.5q-59 -16 -119 -26q-29 -5 -55 -6q-27 0 -50 6q-50 -98 -82 -196q-29 -88 -29 -191q0 -13 1 -25q2 -49 8 -86t6 -59.5t-11 -30.5q-6 -4 -16.5 -4t-25.5 4q-29 8 -49.5 31.5t-34.5 54.5t-22.5 62.5t-10.5 54.5z" />
<glyph unicode="L" horiz-adv-x="1462" d="M7 36q-2 9 -2 19q0 11 3 23q6 22 27 39q47 39 99 58.5t106 27.5q51 59 88 137t69 139q45 86 92.5 169t96.5 167q47 82 100 171t115.5 173t134.5 157t156 122q13 8 27 8q7 0 13 -2q20 -6 33 -21.5t14.5 -36t-16.5 -38.5q-68 -70 -126 -150t-110.5 -164t-101.5 -170 t-100 -168t-101.5 -163.5t-105.5 -159.5q-29 -41 -58.5 -85t-64.5 -85q55 -4 110.5 -13.5t108.5 -13.5q40 -4 78 -4q68 0 132 14q98 22 188 65.5t173 107t163 137.5q29 27 63.5 63.5t63.5 56.5q23 16 40 10q11 -3 11 -14q0 -7 -4 -16q-16 -37 -45 -77t-52 -66 q-59 -74 -125.5 -143.5t-142.5 -128t-162 -102.5t-180 -67q-82 -20 -164 -20h-25q-96 4 -192 22q-76 16 -137 16q-3 0 -5 1q-58 0 -112 -11q-45 -20 -104 -26q-29 -2 -46.5 10t-22.5 32z" />
<glyph unicode="M" horiz-adv-x="1851" d="M5 173q5 67 23.5 133.5t47 129t55.5 115.5q80 158 181.5 303t219.5 276q59 66 124 130.5t139 117.5q27 18 59 37q34 19 68 29q31 9 63 9h6q35 -1 68 -21q57 -36 67 -96q3 -21 3 -43q1 -39 -11 -81q-18 -64 -50 -127t-54 -106q-72 -135 -142.5 -261t-128.5 -235 q-39 -74 -47 -101.5t4.5 -21t42 38t64.5 78.5q94 127 185 250t190 244q70 86 141.5 168t155.5 153q33 29 70.5 57.5t78.5 51t84 37t90 14.5q72 0 102 -46q18 -27 17 -66q0 -26 -8 -58q-25 -98 -82 -196.5t-111 -188.5q-57 -98 -114.5 -193.5t-112.5 -193.5 q-27 -45 -58.5 -103.5t-58 -114.5t-39 -100.5t-0.5 -60.5q10 -14 35 -7t54.5 27.5t63.5 49t63.5 58.5t53 54.5t33.5 34.5q59 63 114.5 130t111.5 136q18 22 38 10q14 -9 13 -25q0 -7 -2 -15q-6 -27 -28.5 -71t-50.5 -89t-53.5 -85t-37.5 -58q-35 -49 -80 -108.5t-101 -108.5 q-54 -50 -118 -80q-47 -22 -98 -22q-17 0 -35 3q-92 11 -125 69q-27 47 -27 112q0 14 1 28q7 82 43 177t81 184.5t88 162t66 109.5q41 70 83 137.5t83 134.5q25 39 49 79t31.5 60.5t-13 14.5t-88.5 -55q-72 -55 -140.5 -122t-151.5 -160t-186 -221t-245 -304 q-61 -78 -115.5 -117t-96.5 -47q-13 -2 -24 -2q-26 1 -46 13q-28 18 -39 54q-8 30 -8 62q0 10 1 20q3 43 15 85t28.5 83t32.5 76q66 143 139.5 267t137.5 251q50 101 50 127q0 3 -1 5q-1 3 -5 3q-20 0 -106 -71q-41 -33 -75.5 -71t-69.5 -79q-145 -164 -265 -335t-206 -355 q-14 -29 -29.5 -61.5t-27 -67.5t-17.5 -70q-3 -18 -3 -34.5t3 -32.5q4 -25 -9 -42.5t-33.5 -22.5t-41 3t-28.5 33q-19 50 -19 104q0 12 1 24z" />
<glyph unicode="N" horiz-adv-x="1646" d="M8 174q12 74 40 146.5t61.5 140t60.5 119.5q86 160 184.5 312t214.5 294q31 37 78 93t103 100q58 45 118 65q24 8 46 8q36 0 71 -20q27 -16 39 -39t17.5 -50.5t2 -56.5t-7.5 -55q-33 -174 -90 -359.5t-96 -365.5q-8 -33 -17.5 -81t-14.5 -95t-5 -87t12.5 -58.5t39 -8.5 t73.5 64q66 74 118 143.5t97 140.5q57 88 122.5 197.5t126 224.5t107.5 227.5t70 206.5q4 16 13.5 33t22.5 26q11 7 24 7h5q16 -2 35 -21q12 -14 17.5 -34.5t5.5 -43t-4 -45t-6 -40.5q-23 -139 -75 -255t-112 -233q-61 -121 -130.5 -235.5t-147.5 -225.5q-33 -45 -73 -98 t-87 -100t-100.5 -82t-112.5 -41q-10 -1 -20 -1q-28 0 -52 8q-34 11 -60 33.5t-44.5 53.5t-24.5 68q-12 61 -12 123q0 13 1 27q3 76 17.5 151t34 148t37.5 140l82 299q14 51 24.5 90t8.5 55.5t-21.5 6.5t-64.5 -59q-129 -137 -228.5 -292t-189.5 -308q-53 -92 -103.5 -185.5 t-91.5 -191.5q-10 -25 -17 -49.5t-11 -49.5t-17.5 -41t-31 -21t-33 5t-23.5 37q-11 37 -11 78q0 27 5 57z" />
<glyph unicode="O" horiz-adv-x="1271" d="M12 287q-8 50 -8 100q0 60 12 120q22 111 66.5 219t107 206t127.5 178q53 66 124 132.5t152 117.5q81 52 171 78q56 17 112 17l68 -7q12 15 39 27q17 6 33 6q20 -1 36 -9q32 -16 58.5 -45.5t46 -66.5t29.5 -62q37 -96 38 -198v-9q0 -98 -24 -195q-24 -101 -67 -198.5 t-93 -179.5q-49 -80 -109.5 -161t-134 -150.5t-157.5 -121.5t-178 -77q-52 -12 -103 -12q-25 0 -50 3q-75 9 -136 46t-104 97.5t-56 144.5zM184 335q4 -48 29 -87q27 -44 69 -58q31 -10 64 -10q12 0 25 1q47 5 93 23.5t81 41.5q86 53 154.5 125.5t127.5 154.5 q49 70 98.5 158t82 184.5t40.5 193.5q1 16 1 32q0 79 -31 151q-6 16 -19.5 33.5t-27.5 40.5q-29 6 -57 6q-54 -1 -107 -21q-80 -30 -151.5 -85.5t-132 -124t-103.5 -127.5q-59 -82 -106.5 -169t-80.5 -182q-14 -41 -27 -88q-14 -47 -20 -96q-4 -30 -3 -60q-1 -19 1 -37z" />
<glyph unicode="P" horiz-adv-x="1224" d="M6 854q16 70 54 134.5t88.5 119.5t108.5 102t118 84q66 41 141.5 77t156.5 57.5t164 24.5h18q73 0 142 -21q53 -18 98.5 -51t77 -76t50 -95.5t18.5 -109.5q0 -82 -29.5 -157t-79 -141.5t-110.5 -122.5t-123 -101q-78 -57 -165 -100.5t-183 -65.5q-59 -14 -129 -16h-7 q-66 0 -120 28q-35 -66 -60.5 -134.5t-39.5 -142.5q-4 -16 -4.5 -39.5t-3.5 -46t-13 -40t-33 -23.5q-8 -2 -15 -2q-19 0 -32 12q-18 16 -29.5 42t-17.5 55.5t-6 48.5q-1 14 -1 28q0 54 12 107q16 67 43.5 132.5t62.5 127t71 117.5q37 57 79 115.5t90 112.5t101.5 101 t114.5 82q18 10 38 6t33 -17t16.5 -32.5t-9.5 -38.5q-82 -125 -179 -246.5t-177 -252.5q109 4 206 56t177 110q33 23 75 55.5t84 72t79.5 85t62 93.5t32.5 97q3 15 3 30q0 33 -13 66q-29 71 -91 93q-49 18 -105 17q-15 0 -30 -1q-73 -6 -144.5 -29.5t-118.5 -46.5 q-63 -31 -128 -70t-123 -87t-107.5 -104t-81.5 -120q-12 -23 -33 -28t-39 3q-17 7 -29 24q-8 11 -8 26q0 7 2 16z" />
<glyph unicode="Q" horiz-adv-x="1458" d="M8 243q8 19 27.5 32.5t44 22.5t43.5 13q47 10 80 11q-14 59 -14 122q0 17 1 34q5 81 23 157q47 182 150.5 346t246.5 287q51 45 112.5 83t128.5 62.5t137 33.5q27 4 54 4q41 0 82 -9q20 31 45 35q7 1 14 1q18 0 37 -8q25 -10 47.5 -31.5t39.5 -39.5q49 -61 75.5 -135 t32.5 -152q3 -32 3 -65q0 -144 -52 -285q-63 -172 -164 -316q-106 -152 -243.5 -260t-309.5 -143q37 -33 76 -61.5t84 -51.5q41 -23 85 -37t91 -30q20 -6 29.5 -23.5t8.5 -36t-12.5 -34t-31.5 -21.5q-39 -11 -78 -11q-19 0 -39 3q-57 8 -111.5 30.5t-104.5 56.5t-93 73 q-72 63 -128 126.5t-122 114.5q-59 45 -139 45q-18 0 -39 -6t-42.5 -9t-38.5 1t-30 25q-9 17 -9 31q0 8 3 15zM367 433q2 -36 11 -69.5t27.5 -62.5t51.5 -47q57 -31 116.5 -31t117 21.5t109.5 56.5t95 74q125 111 215 262t119 317q13 65 13 124q0 44 -8 84q-17 93 -87 153 q-37 8 -72 8q-57 0 -113 -19q-90 -32 -168.5 -91.5t-145 -137t-111.5 -147.5q-63 -96 -109.5 -203t-58.5 -221q-3 -23 -3 -47q0 -12 1 -24z" />
<glyph unicode="R" horiz-adv-x="1419" d="M8 840q18 66 55 125t86.5 110t105.5 95t112 79q66 43 139.5 80t151.5 63q79 28 160 42q63 11 126 11q17 0 35 -1q61 -4 117.5 -22.5t102.5 -52.5t79 -82t45 -111q7 -35 7 -69q0 -42 -10 -82q-20 -73 -61.5 -135.5t-100 -115.5t-120.5 -92q-47 -29 -106.5 -57.5 t-124.5 -49.5q35 -78 41 -154.5t16 -150.5q6 -43 15.5 -70.5t25 -38.5t42 -4t69.5 33q45 29 85 69t66 65q70 72 133.5 144.5t126.5 145.5q10 12 20.5 11.5t18 -7t11.5 -17.5q2 -6 2 -10.5t-2 -8.5q-8 -18 -19.5 -37t-19.5 -35q-35 -61 -74 -121.5t-80 -120.5 q-35 -47 -79 -99t-96 -94q-51 -43 -111 -65q-41 -16 -87 -15q-20 0 -41 3q-55 8 -91 39t-57.5 74t-30.5 92t-13 98q-4 59 -8 125t-37 119q-43 0 -85 8t-79 27q-59 -92 -105.5 -190.5t-68.5 -207.5q-4 -16 -4 -42.5t-2 -52.5t-9.5 -48.5t-25.5 -32.5q-17 -9 -30 -9 q-10 0 -20 5q-20 12 -34 38t-21.5 55.5t-9.5 47.5q-4 29 -4 58q-1 45 9 90q16 74 44.5 146.5t67.5 140t78 127.5q41 63 87 127.5t98 124t110.5 112.5t124.5 92q20 12 39.5 7t33 -18t16.5 -33.5t-9 -39.5q-61 -92 -131 -178t-138 -178q35 -2 64.5 -6t58.5 -19q53 18 103.5 45 t97.5 56q45 27 97 68.5t92 93t56 109.5q6 21 6 42q0 37 -18 76q-16 31 -44 48q-27 18 -61 24q-29 6 -60 5h-10q-36 -1 -66 -3q-82 -10 -161 -35t-153 -60q-63 -31 -128.5 -68.5t-126 -83.5t-111.5 -100.5t-86 -117.5q-12 -23 -33 -27t-39 3q-17 7 -29 25q-8 12 -8 28 q0 7 2 16z" />
<glyph unicode="S" horiz-adv-x="1267" d="M9 164q-4 21 -4 42q1 47 21 93q30 66 89 121t125 82q20 8 33 -11.5t-1 -35.5q-18 -20 -40.5 -48t-42 -59t-31 -61.5t-7 -55t28 -41t72.5 -18.5q11 -1 22 0q62 0 132 18q82 22 159.5 60.5t147 86.5t116.5 95q27 29 55.5 67t48 80t25.5 87q1 10 1 20q0 34 -15 66 q-25 54 -74 70q-38 12 -81 13q-12 1 -25 -1q-57 -4 -114.5 -22.5t-98.5 -31.5q-29 -10 -62.5 -17t-66.5 -7t-62.5 10t-54.5 35q-39 41 -39 96v11q4 62 31 112q31 59 75 110.5t96 94.5t110.5 78.5t117.5 62.5q53 25 115.5 47.5t127.5 32.5q41 6 81 7q24 0 48 -3 q64 -6 120 -39q28 -16 28 -46v-7q-4 -35 -34 -51q-16 -8 -37 -7.5t-37 -1.5q-70 -6 -138.5 -22t-133.5 -45q-59 -27 -116.5 -58.5t-111.5 -72.5q-61 -43 -116 -103q-45 -49 -48.5 -72.5t19 -29.5t62.5 1t83 19q78 23 161 32q23 2 45 3q59 0 116 -18q86 -27 130 -84t54 -130 q4 -26 4 -52q0 -48 -12 -98q-18 -76 -57 -142q-61 -104 -153.5 -183t-199.5 -132q-61 -33 -137 -63q-77 -30 -155 -44q-52 -9 -104 -9q-26 0 -52 2q-78 7 -144 48q-82 51 -95 119z" />
<glyph unicode="T" horiz-adv-x="1052" d="M6 1088q2 10 12 16q178 111 371 189.5t397 119.5q102 19 206 29q46 4 92 5l116 -7q43 -6 87 -16.5t86 -29t78 -45t60 -63.5q11 -18 11 -33v-7q-4 -17 -18.5 -27.5t-34 -13.5t-37.5 5q-29 12 -52.5 24.5t-52.5 20.5q-90 22 -185 22h-8q-100 -1 -198 -11 q-102 -100 -185 -222t-161 -241q-43 -68 -89 -139.5t-86 -148.5t-69 -156.5t-39 -159.5q-2 -19 -2 -37q0 -43 10 -82q6 -23 5 -44.5t-23 -37.5q-18 -11 -34 -11q-15 0 -27 8q-28 17 -47 50t-31.5 70t-14.5 57q-3 27 -3 55q0 59 14 118q22 87 61 170t88 160t96 144 q80 117 172.5 218.5t188.5 203.5q-184 -31 -361.5 -82t-355.5 -106q-12 -4 -20.5 1t-13.5 14q-4 6 -4 14q0 3 1 6z" />
<glyph unicode="U" horiz-adv-x="1560" d="M5 227q1 45 10.5 90t25.5 88.5t33 83.5q41 92 90 178.5t104 170.5q123 186 269 354q57 66 119.5 132.5t140.5 107.5q21 11 40 11q13 1 25 -5q30 -12 46 -39t12 -61t-37 -54q-53 -35 -115.5 -100.5t-123 -142t-114 -151.5t-86.5 -126q-53 -78 -102 -159t-90 -167 q-10 -18 -28.5 -58t-32 -83t-14.5 -82t26 -53q16 -10 42.5 -1t53.5 25.5t50.5 36t33.5 29.5q139 123 265 252t243 261t227.5 265t220.5 262q39 45 84 91.5t105 62.5q8 2 16 2q20 0 38 -12q26 -16 34 -43q6 -27 -2 -53.5t-24.5 -51t-35 -47t-32.5 -41.5q-61 -88 -121 -176 t-117 -180q-59 -94 -114.5 -190.5t-102.5 -198.5q-12 -25 -32.5 -66t-36 -85t-19.5 -84q-1 -6 -1 -12q0 -32 19 -52q17 -20 41 -19q11 -1 24 3q40 14 81 43.5t77.5 64.5t53.5 51q78 74 150.5 153.5t144.5 163.5q10 12 21.5 12.5t18.5 -6t10 -18.5q1 -3 1 -7q0 -9 -6 -17 q-63 -98 -139 -188.5t-154 -180.5q-35 -39 -79 -85t-95 -81t-107 -48q-19 -4 -38 -4q-38 0 -76 17q-47 20 -71 58t-32 84q-5 29 -5 58q0 18 2 37q5 48 16 91q35 133 97 257t132 243q20 35 40.5 69.5t43.5 69.5q-45 -53 -87 -108.5t-83 -110.5q-121 -162 -242 -330t-270 -305 q-31 -29 -65.5 -56.5t-74.5 -47t-83 -27.5q-17 -3 -34 -3l-52 7q-53 14 -89 53t-53 90q-11 40 -11 81v7z" />
<glyph unicode="V" horiz-adv-x="1337" d="M6 262q6 49 19 94q35 135 97 264.5t128 251.5q61 117 125.5 233t116.5 238q6 14 12 36t16 38.5t24 25.5q9 5 22 5q8 0 18 -2q27 -8 35 -30.5t6 -50.5t-10.5 -54.5t-14.5 -44.5q-45 -147 -111.5 -285.5t-132.5 -278.5q-53 -111 -104 -220t-76 -224q-8 -37 -2 -58.5 t21.5 -30.5t40 -6t55.5 13q74 27 156.5 85t160.5 129t146.5 142.5t115.5 124.5q78 86 144.5 178.5t120.5 196.5q18 37 38.5 79t37 87t22.5 90q3 19 3 38q0 25 -5 48q-6 25 5 42.5t29.5 24.5t39 1.5t32.5 -25.5q25 -47 31 -100q3 -23 3 -46q0 -31 -5 -63q-8 -56 -24.5 -108.5 t-34.5 -98.5q-57 -137 -142.5 -258.5t-183.5 -232.5q-100 -111 -211 -212t-238 -183q-43 -29 -95 -57.5t-107.5 -46t-112.5 -19.5h-8q-53 0 -100 24q-47 25 -71 64t-31 86q-4 25 -4 51q0 22 3 45z" />
<glyph unicode="W" horiz-adv-x="1830" d="M6 179q-1 18 -1 35q1 64 19 132q24 86 62.5 169t67.5 140q51 104 108 202.5t115 197.5q51 86 103 173t87 179q8 20 24.5 29.5t35 7.5t33 -15.5t18.5 -33.5q1 -7 1 -14q1 -27 -11 -56q-14 -37 -25 -65q-35 -98 -80 -189.5t-92 -183.5q-41 -80 -81 -154t-75.5 -146.5 t-66.5 -144t-51 -145.5q-17 -58 -17 -88q0 -35 20 -38q18 -3 47 14.5t66 47.5q158 129 288 281t247 303q25 68 53.5 133.5t59.5 130.5q12 27 34.5 73t50 90t61.5 78t69 34h5q47 0 63 -34q9 -21 10 -50q0 -19 -4 -41q-10 -55 -38 -122t-59 -127t-58.5 -107.5t-37.5 -61.5 q-27 -41 -52.5 -79t-54.5 -75q-14 -37 -28.5 -85t-25.5 -99t-19.5 -104.5t-12.5 -98.5q-2 -18 -2 -33q0 -43 14 -58q7 -8 19 -8q21 0 59 22q68 39 125.5 91t110.5 105q156 162 285 350q61 88 114 178.5t99 186.5q30 59 58 134q21 54 20 105q0 20 -3 39q-4 23 8.5 40.5 t30.5 23.5q9 3 18 3q10 1 20 -3q20 -6 32 -27q33 -63 33 -135q-1 -12 -1 -24q-6 -86 -36.5 -173.5t-75.5 -168t-82 -142.5q-100 -166 -221 -322.5t-268 -285.5q-41 -35 -97.5 -77t-118 -68.5t-123.5 -28.5h-6q-59 0 -108 45q-29 25 -43 61q-13 35 -19 78q-3 24 -4 49 q0 21 2 43q4 50 11 103q-90 -100 -187 -187q-41 -37 -95 -82t-115.5 -74.5t-123.5 -32.5h-8q-58 0 -110 44q-64 55 -70 136z" />
<glyph unicode="X" horiz-adv-x="1421" d="M6 59q6 53 28.5 102.5t53.5 93.5t68 85t73 76q41 41 86 80t97.5 78.5t114 85t135.5 98.5q12 113 21 198.5t13 167.5q0 20 3 52q2 19 2 39q0 13 -1 26q-2 33 -9 61.5t-27 45.5q-18 14 -21.5 34.5t5.5 37.5q8 18 28 27q10 5 22 5q10 0 21 -4q37 -14 60.5 -43t39 -63.5 t23.5 -72.5t12 -71q8 -65 9 -129q0 -13 -1 -25q-2 -76 -10 -155l127 90q86 63 173 132t153 155q23 33 35 63.5t22 69.5q6 20 20 33q16 14 32 18q6 1 11 1q10 0 21 -4q16 -7 27 -32q9 -25 9 -52q0 -19 -4 -40q-12 -49 -37.5 -97t-58 -90t-59.5 -71q-109 -119 -234.5 -215 t-261.5 -188q-6 -57 -11 -113.5t-9 -114.5q-2 -47 -2 -95t10 -95q16 -78 56 -92q10 -4 22 -4q37 0 94 32q57 33 118.5 87.5t120 115.5t112 122.5t94.5 110.5q20 23 34.5 7.5t6.5 -37.5q-6 -16 -32 -51t-54.5 -73t-55 -71t-37.5 -45q-37 -47 -80 -100t-91 -101.5t-102 -86.5 t-116 -54q-43 -12 -78 -12q-49 0 -83 24q-58 41 -84 122q-27 80 -29 186v42q0 84 6 164q-117 -70 -224.5 -154.5t-195.5 -182.5q-35 -37 -56.5 -76t-43.5 -84q-11 -23 -31 -31q-15 -6 -29 -6q-5 0 -11 1q-20 3 -32 18q-9 11 -9 31q0 6 1 13z" />
<glyph unicode="Y" horiz-adv-x="1069" d="M9 804q11 62 39 122.5t56 107.5q72 117 168.5 218.5t200.5 189.5q20 15 38 15h5q21 -3 33 -19.5t13 -40t-15 -45.5q-39 -59 -84 -114.5t-86 -115.5q-45 -63 -88 -127.5t-78 -136.5q-23 -45 -34 -83t-4 -59.5t36 -24.5h6q29 0 82 24q117 51 215 130t195 156 q135 115 250.5 221.5t232.5 211.5q18 16 39.5 13t37 -16.5t18.5 -34.5v-7q0 -18 -15 -35q-111 -123 -210 -254t-192 -269q-53 -78 -102 -158.5t-90 -166.5q-57 -113 -96 -224q-28 -80 -28 -162q0 -34 5 -69q6 -33 -2 -46q-7 -12 -21 -12h-2q-16 1 -34.5 12t-32.5 26 q-18 18 -30.5 46.5t-19.5 59.5t-9.5 59.5t-2.5 49.5q2 76 25 149.5t56.5 144t76.5 138t88 131.5q-59 -47 -118.5 -91t-122.5 -85q-37 -23 -78 -45.5t-83 -32.5q-28 -7 -56 -7l-28 2q-42 5 -81 36q-55 43 -70 100q-8 32 -8 66q0 26 5 52z" />
<glyph unicode="Z" horiz-adv-x="1499" d="M12 94q14 27 45 49.5t68 40t74 27.5t61 10q39 39 74 79t69 81q193 217 385.5 411.5t417.5 352.5q53 37 111.5 76t124.5 67q-63 0 -146.5 -4t-174.5 -15.5t-182 -31.5t-172 -52t-145.5 -77t-99.5 -104q-6 -10 -15 -12.5t-18.5 0.5t-15.5 11.5t-4 20.5q10 86 62.5 150.5 t126 111.5t157.5 78t156 47q43 10 107 19q64 10 134 13q26 1 53 1q45 0 91 -3q74 -5 137 -21.5t112.5 -47.5t73.5 -80q6 -12 6 -19q0 -3 -1 -4q-3 -7 -11 -10.5t-19.5 -2.5t-19.5 1q-23 2 -48 -6t-51 -22.5t-51.5 -31.5t-43.5 -32q-72 -53 -137.5 -113.5t-131.5 -121.5 q-49 -45 -101 -96.5t-132 -130t-198.5 -193.5t-299.5 -287q29 -4 57.5 -9t57.5 -11q82 -17 163 -31q39 -7 78 -6q43 0 87 8q104 18 193 66.5t166 110t140.5 130t116.5 127.5q12 14 25.5 16.5t22.5 -4t12.5 -19.5t-5.5 -28q-39 -72 -106.5 -156.5t-150.5 -163.5t-176 -141.5 t-181 -88.5q-92 -27 -183 -28h-11q-86 0 -173 15q-77 14 -159 30q-42 8 -90 9q-47 0 -99 -8q-33 -17 -79 -33q-37 -12 -66 -13q-7 0 -14 1q-38 4 -54 34q-8 15 -8 31t8 33z" />
<glyph unicode="[" horiz-adv-x="849" d="M-56 -246.5q5 60.5 21.5 119.5t22.5 82q23 84 49 165t55 163q59 162 127 320.5t141 314.5q72 147 149 300.5t185 276.5q27 31 81 45t116.5 17.5t120 -3t90.5 -14.5q25 -6 34 -26.5t4 -40t-21.5 -35t-41.5 -11.5q-66 8 -137.5 -3t-136.5 -33q-68 -90 -124 -190.5 t-106.5 -205t-95.5 -210t-88 -207.5q-90 -215 -164 -433q-29 -86 -58.5 -173t-43.5 -177q86 8 172 5t162 -36q31 -12 33 -46.5t-27 -53.5q-12 -8 -28.5 -10t-34 -2t-35 1t-29.5 1q-76 -6 -149.5 -18.5t-149.5 -22.5q-61 -8 -79.5 36t-13.5 104.5z" />
<glyph unicode="\" horiz-adv-x="903" d="M5 1350.5q-5 19.5 5 38.5q14 29 46.5 34t52.5 -22q55 -74 109 -185.5t103.5 -232.5t90.5 -238.5t67 -205.5q74 -229 131.5 -466t59.5 -479q0 -29 -22.5 -47t-49.5 -10q-25 6 -33 24.5t-14 39.5q-18 61 -31.5 122.5t-30.5 120.5q-39 150 -80.5 297.5t-89.5 294.5 q-51 160 -105 316.5t-114 312.5q-23 61 -45 122.5t-39 125.5q-6 18 -11 37.5z" />
<glyph unicode="]" horiz-adv-x="1210" d="M6 -324.5q4 19.5 20.5 33.5t43.5 12q63 -8 133.5 3.5t136.5 31.5q135 182 232.5 395.5t183.5 419.5q45 109 86 215.5t80 217.5q29 86 56.5 174t43.5 178q-86 -8 -173 -6t-159 34q-16 6 -24.5 19.5t-9.5 29t5.5 30t20.5 22.5q25 16 62.5 12t66.5 0q74 6 148.5 17.5 t148.5 21.5q35 4 62.5 -16.5t31.5 -55.5q4 -31 1 -65.5t-10 -69.5t-16.5 -68.5t-17.5 -64.5q-45 -166 -104 -328q-59 -164 -127 -321.5t-144 -315.5q-35 -72 -70.5 -148.5t-75.5 -151t-86 -145.5t-99 -132q-27 -29 -81.5 -43t-115.5 -18.5t-119.5 1t-91.5 15.5 q-25 8 -34 27.5t-5 39z" />
<glyph unicode="^" horiz-adv-x="894" d="M190.5 1078.5q0.5 11.5 8.5 21.5q37 53 89 106.5t113.5 96.5t129 72.5t135.5 35.5q27 2 47 -11.5t24 -47.5q4 -37 11.5 -75t15.5 -75q2 -10 9 -29.5t12.5 -40t6.5 -39t-8 -28.5q-12 -12 -34.5 2t-47 42t-50 63.5t-44.5 66.5q-55 -6 -105 -25.5t-96.5 -46t-88.5 -55.5 t-85 -55q-12 -8 -22 -6t-15.5 9t-5 18.5z" />
<glyph unicode="_" horiz-adv-x="858" d="M-260 -204.5q-4 18.5 3 37t30 28.5q88 35 180 54t186 28q106 8 217 -2.5t205 -65.5q23 -14 26 -43t-18 -47q-16 -14 -32.5 -15t-34.5 1q-49 2 -99.5 4t-101.5 2q-127 -2 -252 -11.5t-252 -15.5q-23 -2 -38 12.5t-19 33z" />
<glyph unicode="`" horiz-adv-x="450" d="M5.5 1505.5q0.5 26.5 15 48t38 32.5t52.5 5q41 -8 69.5 -43t55.5 -63q41 -45 95 -94.5t101 -77.5q16 -10 14.5 -33.5t-32.5 -19.5q-47 8 -104.5 27.5t-113 46t-102.5 58t-71 62.5q-18 25 -17.5 51.5z" />
<glyph unicode="a" d="M-142 240q8 58 25 116t39.5 109t40.5 86q82 154 202 284t269 218q63 37 135 63q71 25 145 33q27 3 55 3q46 0 93 -8q74 -14 139 -57q20 -12 24.5 -32.5t-3.5 -38t-25.5 -28.5t-40.5 -5q-60 17 -118 17q-20 0 -42 -2q-78 -8 -152.5 -37t-141 -75t-123.5 -100 q-74 -70 -134.5 -149.5t-113.5 -165.5q-18 -31 -38.5 -77t-35 -93t-20.5 -87t5 -58.5t43 -7t91 66.5q61 57 118.5 126t116 137.5t117 129t123.5 103.5q53 35 105 47q15 4 31 4q37 0 73 -21q25 -14 33 -40.5t-6 -51.5q-29 -51 -57.5 -101t-57.5 -102q-25 -47 -54.5 -97 t-49.5 -103q-12 -35 -19.5 -58.5t-2.5 -34t23.5 -5t55.5 27.5q94 57 174 139t152 160q25 29 47 58.5t47 58.5q6 8 18.5 15t23.5 9t16 -5q2 -3 2 -9q0 -7 -3 -18q-10 -33 -32.5 -72t-39.5 -66q-37 -63 -92 -140t-119.5 -145.5t-134 -116.5t-135.5 -54q-10 -1 -20 -1 q-45 -1 -76 15q-37 18 -57.5 52t-24.5 78q-1 13 -1 25q0 32 7 66q18 92 60.5 182.5t95.5 174.5q-27 -6 -64 -42t-76.5 -86.5t-80.5 -105.5t-76 -102q-29 -41 -62.5 -88t-73.5 -86q-40 -38 -90 -60q-34 -15 -71 -15q-17 0 -35 3q-66 12 -98 48t-44 85q-7 30 -7 63q0 21 3 44z " />
<glyph unicode="b" horiz-adv-x="980" d="M-86 257q0 48 6 89q14 98 49 194.5t81 189.5t98.5 182t103.5 173q25 39 57.5 92.5t69.5 107.5t71.5 101t61.5 74q20 25 48 44.5t58 27.5q19 5 38 5q12 0 24 -2q31 -5 57 -32q32 -32 32 -76q0 -9 -1 -19q-8 -56 -37 -114.5t-67.5 -109.5t-63.5 -80q51 -4 92 -38t64 -75 q56 -16 122 -22q50 -4 99 -5l33 1q66 2 129 12t114 31q39 16 53 -2q4 -5 3 -12q0 -15 -23 -36q-45 -37 -109.5 -62.5t-134.5 -40.5t-134 -21q-40 -4 -72 -5q-20 0 -37 2q-2 -135 -47 -248.5t-105 -211.5q-39 -61 -102.5 -139t-142.5 -138q-80 -58 -172 -84q-34 -9 -70 -10 q-59 0 -119 27q-47 20 -73.5 57t-40 81t-13.5 92zM57 244q-1 -14 -1 -26q0 -39 14 -59q20 -26 52 -27h4q30 0 66 15q38 16 72 39q33 23 61.5 52.5t54.5 62.5t46 63.5t37 53.5q43 63 79 130.5t58 139.5q10 29 20 77q7 31 7 59q0 16 -2 32q-49 20 -84 54t-35 87 q-51 -53 -104.5 -104t-108.5 -98q-90 -156 -160 -316q-23 -53 -47.5 -114.5t-28.5 -120.5z" />
<glyph unicode="c" horiz-adv-x="976" d="M-63 268q-6 37 -6 74q0 43 8 87q14 81 45.5 158t76.5 147.5t95 131.5q47 59 116.5 124t150.5 110t167 55q15 2 29 2q71 0 137 -41q74 -46 92 -118q9 -35 9 -70q-1 -39 -11 -78q-20 -76 -67.5 -143.5t-104.5 -104.5q-23 -14 -42.5 -9t-31.5 20.5t-14 37t14 39.5 q20 20 39.5 48t33 59.5t20.5 64.5q4 18 4 35q0 15 -3 29q-8 43 -38 51q-14 4 -29 4q-19 0 -40 -6q-38 -10 -75 -31.5t-55 -36.5q-61 -47 -117.5 -108.5t-103 -132t-77 -148.5t-40.5 -153q-3 -22 -3 -42q0 -55 20 -89q28 -46 77 -64q37 -14 81 -14q14 0 30 2q62 6 125 30 q147 55 275 156.5t226 224.5q10 12 24.5 35t35.5 21q16 -1 21 -11q4 -7 4 -15q0 -3 -1 -7q-2 -12 -8 -24.5t-10 -20.5q-35 -68 -78 -128.5t-94 -115.5q-53 -57 -115.5 -112.5t-133.5 -98.5t-147.5 -71.5t-156.5 -34.5q-12 -1 -24 -1q-53 0 -103 15q-60 18 -108 56 t-79.5 91.5t-39.5 120.5z" />
<glyph unicode="d" horiz-adv-x="1126" d="M-135 211q0 47 9 94t25.5 92t34.5 86q41 96 94.5 184.5t118.5 168.5q31 39 74 85t93.5 90t107.5 81q58 36 116 54q46 14 90 13l26 -1q58 -5 114 -44q18 -14 21.5 -33.5t-5 -37t-25.5 -28.5t-40 -5q-22 5 -43 5q-40 -1 -81 -17q-63 -26 -118 -71.5t-102 -101t-80 -98.5 q-78 -104 -141.5 -209.5t-92.5 -220.5q-14 -56 -14 -87q0 -10 1 -16q5 -30 26.5 -31t56.5 19.5t78 48.5q129 88 235.5 187.5t196.5 208.5q29 72 61.5 143.5t67.5 142.5q31 63 73 153.5t93 180.5t110.5 166t124.5 113q25 13 50 13q21 0 41 -9q46 -19 57 -72q2 -13 2 -26 q1 -33 -13 -71q-20 -54 -55.5 -113.5t-81 -119t-89.5 -111.5t-79.5 -91t-54.5 -58q-49 -104 -90 -190t-73.5 -160t-58.5 -139.5t-44 -128.5q-13 -43 -13 -66q1 -21 11 -25l8 -2q24 0 72 40q49 39 99 91t99.5 108.5t93.5 112.5t78 103q14 20 33 8t13 -32 q-53 -129 -138.5 -253t-183.5 -222q-42 -43 -102 -82q-52 -34 -108 -34q-9 0 -17 1q-35 4 -58.5 21.5t-37 43t-18.5 55t-3 60.5q4 72 22.5 141.5t42.5 139.5q-63 -86 -127.5 -168t-142.5 -154q-41 -37 -103 -77t-124 -54q-25 -6 -48 -6q-36 0 -69 14q-55 22 -82 107 q-14 43 -14 90z" />
<glyph unicode="e" horiz-adv-x="1019" d="M-60 280q-3 30 -3 60q-1 45 7 90q12 76 41 148.5t64 134.5q37 66 85 131t106.5 121.5t125 100.5t140.5 69q50 16 102 16q35 0 70 -7q88 -18 145 -89q55 -71 55 -152t-38 -157q-37 -76 -98.5 -139.5t-125.5 -100.5q-118 -66 -236 -69h-14q-111 0 -221 42q-16 -41 -25 -82 q-7 -34 -7 -64v-13q2 -36 16 -69t47 -56q50 -35 108 -41q19 -2 38 -3q40 -1 80 9q60 14 115.5 38.5t103.5 51.5q104 59 189 133t155 158q14 16 31.5 40.5t27.5 34.5q16 16 33.5 9t17.5 -31q0 -20 -18.5 -50t-28.5 -46q-35 -61 -80 -117.5t-94 -110.5q-53 -53 -113.5 -101 t-127 -87t-140.5 -63.5t-149 -28.5q-14 -1 -28 -1q-82 -1 -162 31q-92 36 -146 123q-40 63 -48 137zM193 582q66 -24 133 -24q21 0 42 2q89 10 167 61q16 10 42.5 35.5t53 57t48 68.5t29.5 72q4 18 4 34t-4 30q-8 30 -42 49q-21 11 -45 11h-3q-26 -1 -50.5 -9t-47 -21.5 t-41.5 -25.5q-96 -66 -167.5 -154t-118.5 -186z" />
<glyph unicode="f" horiz-adv-x="831" d="M-317 -123q6 111 50 216.5t91 203.5q53 106 110.5 207.5t118.5 202.5q104 174 217 343t234 343q18 27 46 57.5t59.5 52t66.5 27.5q7 1 15 1q27 0 54 -15q47 -31 47 -86v-8q-4 -62 -42.5 -137t-100 -154.5t-126 -150.5t-121 -122t-83.5 -70q-10 -16 -19 -30.5t-19 -30.5 q12 2 23 2q26 0 50 -10q35 -14 62.5 -40t47 -59.5t25.5 -66.5q45 -11 89 -11q45 0 90 12q86 24 155 77q12 8 24.5 8t20.5 -5q11 -6 11 -19q0 -10 -7 -21q-31 -47 -76.5 -84t-100 -62.5t-111.5 -37.5q-50 -11 -93 -11h-14q-12 -74 -40.5 -149.5t-62.5 -146t-70 -130 t-66 -98.5q-31 -41 -69 -85t-81 -82t-92 -66.5t-102 -34.5q-8 -1 -16 -1q-47 0 -82 22q-42 24 -68.5 64t-37.5 90q-9 35 -9 67q0 14 2 28zM-162 -92q-20 -63 -20 -101q0 -42 24 -53q6 -2 14 -2q47 0 146 109q43 47 79 96t69 102q57 92 108 191.5t61 198.5q-47 29 -79 73 q-29 40 -29 90v6q-49 -80 -98.5 -160.5t-94.5 -162.5q-51 -92 -100 -187.5t-80 -199.5z" />
<glyph unicode="g" horiz-adv-x="1085" d="M-240 -240q-2 15 -2 29q0 29 8 56q13 40 39.5 73t61.5 57.5t74 38.5q78 29 161 32q14 1 29 1q67 0 135 -12q29 47 51.5 92t44.5 84q47 88 97.5 173t105.5 169q-49 -41 -105.5 -96.5t-114.5 -109.5t-113.5 -101t-102.5 -74q-41 -25 -89 -27h-4q-46 0 -85 41 q-53 53 -54 126v5q0 71 25 143q27 75 70 143.5t78 115.5q92 123 211.5 226.5t265.5 160.5q82 33 171 40q14 1 27 1q75 0 146 -33q23 -10 47.5 -23.5t34.5 -35.5q8 -16 5 -32.5t-13.5 -29t-27 -18.5t-34.5 0q-52 18 -104 18q-20 0 -39 -3q-72 -9 -139.5 -39.5t-129 -75 t-112.5 -91.5q-37 -35 -79 -77.5t-80 -92t-70.5 -101.5t-53.5 -107q-19 -52 -19 -77q0 -26 14 -28q13 -2 39 11.5t54 31.5q43 27 96.5 69t111 89t115.5 96t109 94q37 31 79 58q39 26 84 26h7q35 -6 56 -34q15 -21 15 -47q0 -7 -1 -15q-4 -27 -21.5 -49.5t-29.5 -42.5 q-61 -102 -108.5 -180t-84.5 -141.5t-67.5 -117t-61.5 -102.5q98 31 183.5 92.5t160 140t140 165.5t123.5 167q12 16 28.5 8t18.5 -24q0 -8 -5.5 -20.5t-13.5 -25.5t-17 -25.5t-14 -18.5q-59 -102 -124 -193q-61 -88 -134 -166.5t-163 -138.5q-59 -39 -130 -67.5t-143 -38.5 q-61 -92 -139 -168t-182 -111q-45 -14 -96 -16h-13q-44 0 -84 13q-45 15 -77.5 49t-41.5 91zM-88 -197q-1 -5 -1 -9q0 -12 8 -20q11 -10 28 -10q72 0 128 41t103 101q-12 1 -27 1q-21 0 -46 -2q-42 -3 -81.5 -14.5t-70.5 -33t-41 -54.5z" />
<glyph unicode="h" horiz-adv-x="1206" d="M-164 130q2 34 11.5 68.5t15.5 59.5q16 63 38.5 125.5t49.5 122.5q49 115 115.5 248t143.5 263t161 244.5t168 192.5q74 70 126 78q11 2 21 2q36 0 56 -24t19 -66q0 -10 -1 -22q-6 -58 -49 -122q-92 -135 -201 -254.5t-223 -236.5q-27 -47 -51.5 -93t-52 -100.5 t-58.5 -120t-68 -151.5q57 76 102.5 135.5t82.5 107.5t68.5 89t62.5 80q27 35 68.5 88t91 107.5t105.5 102.5t114.5 75.5t117 27.5t111.5 -45q60 -50 60 -124q-1 -68 -29 -139q-30 -73 -72.5 -141.5t-73.5 -113.5q-12 -18 -36.5 -53t-54.5 -78t-59.5 -90t-49 -89t-25.5 -76 t12 -50q21 -19 47 -19q16 1 34 7q48 18 95.5 56t89.5 82t62 64q61 66 118.5 132.5t117.5 133.5q12 12 27.5 9.5t21.5 -19.5q2 -5 2 -10q0 -8 -6 -14q-10 -10 -15 -21q-70 -106 -152.5 -211.5t-166.5 -195.5q-39 -41 -90 -81q-52 -41 -108 -61q-40 -15 -81 -14q-15 0 -31 2 q-56 8 -104 65q-45 55 -45 123v11q4 75 35 150t76 144.5t79 120.5q45 70 76 116t50.5 77t31.5 51.5t23 38.5q20 35 26 65.5t-3 48t-35.5 16.5t-75.5 -30q-57 -35 -125 -98t-129.5 -130t-107.5 -122t-60 -74q-47 -61 -95.5 -122.5t-91.5 -126t-80.5 -133t-64.5 -142.5 q-6 -18 -21.5 -29.5t-33 -15.5t-36 0t-32.5 14q-25 18 -33 49q-6 25 -6 52v13z" />
<glyph unicode="i" horiz-adv-x="581" d="M-168 244q8 70 38 141.5t60 124.5q35 63 85.5 126.5t97.5 126t85 123t50 118.5q8 43 38 58q21 10 43 10q10 0 20 -2q31 -8 53 -34q16 -19 16 -46q0 -10 -2 -21q-12 -51 -42 -104.5t-66 -104.5t-72.5 -99.5t-65.5 -91.5q-23 -33 -57.5 -89t-63.5 -117.5t-39 -116.5 q-3 -14 -3 -27q0 -36 22 -59q16 -16 40 -16q16 0 35 6q48 18 106 63t120.5 106.5t117 121t95.5 106.5t55 65q12 12 21.5 13.5t15.5 -6t8 -18.5q1 -3 1 -5q0 -8 -5 -16q-12 -25 -33.5 -54.5t-40.5 -52.5q-78 -94 -153.5 -189.5t-150.5 -165.5q-75 -72 -153 -102 q-37 -14 -74 -14q-42 0 -85 18q-77 34 -101 94q-18 45 -18 95q0 17 2 35zM362 1300q0 43 30 73t73 30t72.5 -30t29.5 -73t-29.5 -72.5t-72.5 -29.5t-73 29.5t-30 72.5z" />
<glyph unicode="j" horiz-adv-x="534" d="M-444 -209q6 74 39.5 160t81 172t97.5 165t89 136q39 61 91 131t99 142.5t83 145t42 140.5q4 41 33 61.5t61.5 21.5t59 -19.5t26.5 -63.5q0 -59 -33.5 -138t-80.5 -159t-96.5 -150.5t-79.5 -115.5q-43 -59 -87 -126t-86 -137.5t-78 -141t-61 -136.5q-21 -55 -21 -81 q0 -18 10 -22q4 -2 9 -2q25 0 78 48q100 90 192.5 187t178.5 196.5t168 199t164 197.5q16 23 33 14q12 -7 12 -21q0 -5 -2 -11q-6 -20 -24.5 -49t-29.5 -46q-45 -68 -91 -134t-93 -132q-104 -145 -219 -288.5t-254 -253.5q-55 -43 -113 -63q-38 -12 -70 -12q-17 0 -33 3 q-46 10 -74 54q-22 35 -22 96q0 15 1 32zM309 1300q0 43 30 73t73 30t72.5 -30t29.5 -73t-29.5 -72.5t-72.5 -29.5t-73 29.5t-30 72.5z" />
<glyph unicode="k" horiz-adv-x="1060" d="M-162 76q-1 17 -1 34q-1 44 7 88q10 62 31 123.5t46.5 121t49.5 114.5q57 129 125 253t142 245q27 45 79 127t115 162q64 82 132 140q64 55 124 54h8q47 -4 62.5 -30.5t12.5 -61.5t-19.5 -73t-30.5 -62q-80 -123 -183 -231t-214 -208q-29 -49 -48.5 -83.5t-34 -60.5 t-25.5 -45t-19 -38q78 113 166 216.5t196 189.5q37 31 86 61.5t101 44.5q32 9 63 9q20 0 40 -4q50 -9 91 -60q38 -48 38 -103q0 -57 -24 -113q-24 -54 -63 -102.5t-76 -83.5q-78 -72 -171 -123t-195 -85q55 -29 86 -89q16 -35 25 -71.5t15 -73.5q8 -53 20.5 -75.5t31 -21.5 t44 20.5t58.5 49.5q25 23 50.5 50.5t63.5 70.5t92 108.5t136 164.5q10 12 20.5 13t17.5 -6q7 -8 10 -18q1 -4 1 -6q0 -6 -4 -12q-31 -47 -59.5 -90t-57.5 -84q-59 -86 -117.5 -172t-129.5 -162q-37 -39 -83 -64q-47 -24 -93 -25h-3q-45 -1 -81 25q-38 26 -62 91 q-16 47 -17 95t-5 97q-8 76 -50.5 102.5t-113.5 41.5q-23 4 -22 25.5t26 33.5q139 68 260 146.5t219 189.5q25 27 48.5 66.5t31.5 71.5q9 32 -9 45q-6 5 -20 5q-21 0 -59 -14q-61 -27 -118.5 -67t-110 -87t-98.5 -98t-87 -100q-53 -66 -105.5 -137.5t-94.5 -148.5 t-69.5 -160t-31.5 -171q-2 -35 -26 -48q-18 -9 -39 -9q-8 0 -17 1q-31 5 -56.5 25.5t-27.5 55.5z" />
<glyph unicode="l" horiz-adv-x="573" d="M-110 250q6 70 27.5 139.5t39.5 122.5q49 135 113.5 261t132.5 249q33 57 67.5 121.5t73.5 126t83 118t97 101.5q31 27 73 39q30 8 57 8q11 0 22 -1q36 -5 60 -29q22 -23 22 -66v-8q-2 -43 -37 -107.5t-81 -130.5t-92 -126t-73 -93q-57 -76 -123.5 -150.5t-128.5 -146.5 q-31 -63 -70.5 -150.5t-67.5 -167.5q-28 -78 -33 -138q-1 -7 -1 -13q0 -48 35 -55q11 -2 23 -2q48 0 102 39q68 49 135.5 123.5t128 157.5t100.5 142q10 16 24.5 17.5t25.5 -15.5q8 -16 -4.5 -37.5t-18.5 -33.5q-53 -109 -119.5 -212.5t-150.5 -193.5q-33 -35 -73 -66.5 t-84 -51t-92 -21.5h-7q-45 0 -88 25q-63 35 -84 95q-16 46 -16 97q0 17 2 33z" />
<glyph unicode="m" horiz-adv-x="1671" d="M-193 92q4 141 58.5 267t126.5 243q41 66 83 129.5t83 128.5q23 37 47 77t35 81q8 41 39.5 54t62.5 6q30 -8 52 -34q15 -18 15 -42q0 -12 -3 -25q-20 -88 -76 -174q51 66 102 128t115 120q31 27 67.5 52t76.5 39q31 10 62 10q9 0 19 -1q41 -4 80 -33q56 -44 66 -108 q3 -23 4 -46q0 -41 -11 -83q29 33 66 72.5t79 77.5t88 68.5t92 44.5q30 9 60 8q15 0 30 -2q44 -7 85 -46q47 -46 53 -104q2 -15 2 -31q0 -43 -13 -87q-17 -60 -48 -117.5t-57 -100.5q-45 -76 -93.5 -148t-93.5 -147q-8 -16 -25.5 -45t-30.5 -61t-15 -61.5t18 -45.5 q23 -18 50 -17q11 1 23 3q40 10 78.5 36.5t71.5 59t53 53.5q78 76 149 156.5t140 162.5q23 24 43 8q10 -9 10 -20q0 -10 -8 -23q-18 -29 -49 -69.5t-64.5 -84.5t-66.5 -86t-57 -73q-35 -45 -81 -99t-100 -97q-54 -44 -116 -64q-30 -10 -61 -9q-33 0 -68 11q-81 27 -109 83 q-25 49 -24 106v17q4 66 30.5 135t55.5 122q41 72 86 139.5t88 134.5q10 16 32.5 50t44 72t34 72t3.5 50q-16 27 -56 13.5t-84 -43t-85 -63.5t-55 -48q-72 -61 -148.5 -148.5t-144.5 -182.5t-120 -190.5t-73 -175.5q-6 -23 -7 -48t-7 -46.5t-21.5 -35t-52.5 -13.5 q-60 2 -78 44q-13 31 -14 71q0 13 2 27q6 56 26.5 111.5t35.5 84.5q49 94 114.5 200.5t121.5 201.5q58 94 88 162q18 41 18 62q0 14 -8 21q-18 14 -57.5 -4t-82.5 -49t-81 -64.5t-56 -50.5q-61 -53 -116.5 -113.5t-106.5 -123.5q-94 -117 -173 -246t-108 -279 q-5 -33 -31 -49q-21 -13 -46 -13h-8q-28 3 -51.5 25.5t-23.5 69.5z" />
<glyph unicode="n" horiz-adv-x="1259" d="M-203 146q4 40 14.5 78t20.5 65q53 154 143.5 290t174.5 265q25 41 53 84t39 90q10 39 40.5 53t61.5 6q30 -9 52 -35q15 -18 15 -41q0 -11 -3 -24q-12 -55 -39 -106.5t-58.5 -101.5t-65.5 -98t-65 -93q-31 -49 -68.5 -105.5t-70.5 -118.5q55 74 120.5 160t140.5 175 t155 176t161 161q37 33 87.5 66.5t102.5 51.5q37 12 75 12q15 0 29 -2q52 -7 96 -56q41 -48 45 -104q1 -11 1 -21q0 -47 -15 -95q-18 -60 -46 -115.5t-53 -98.5q-41 -76 -88 -148t-88 -147q-8 -16 -25.5 -46t-33 -62t-21.5 -61.5t10 -47.5t39 -18t47.5 10t48 25t39.5 28 q72 53 134.5 119.5t121.5 132.5q31 35 67 78.5t71 78.5q25 24 43 12q10 -7 10 -17q0 -8 -6 -19q-23 -41 -61 -94.5t-81 -109.5t-89 -111.5t-85 -98.5q-49 -55 -113.5 -110.5t-142.5 -67.5q-16 -2 -32 -2q-69 0 -123 43q-35 27 -50.5 62.5t-16.5 75.5v8q0 36 8 72q9 40 22 77 q35 92 84 176t100 170q47 72 87 137t61 133q12 43 -0.5 56.5t-38 8t-59.5 -22.5t-65.5 -37.5t-54 -37t-26.5 -18.5q-111 -84 -209 -184.5t-184 -211t-158 -229.5t-129 -237q-16 -33 -54 -37q-6 -1 -11 -1q-31 0 -54 19q-27 24 -34 60q-4 23 -4 47q0 14 1 29z" />
<glyph unicode="o" horiz-adv-x="999" d="M-70 302q0 12 -1 25q1 77 19 154q22 90 62.5 174t83.5 152q51 80 116.5 150.5t145.5 123.5q33 20 73 39t84 27q25 5 51 5q19 0 38 -3q45 -6 88 -33q51 -14 84 -41.5t53 -64.5q45 -8 107 -10h30q48 0 96 4q64 4 126.5 14t111.5 24q37 10 56 8q20 -2 23 -12q1 -2 1 -3 q0 -9 -12 -23q-14 -16 -41 -31q-41 -23 -100.5 -44.5t-123 -38.5t-126 -28.5t-109.5 -13.5v-15q0 -75 -18 -149q-20 -82 -45 -145q-31 -74 -72 -151t-94 -147.5t-117.5 -128t-140.5 -91.5q-55 -25 -113 -31q-18 -2 -35 -2q-37 0 -75 9q-54 13 -100 46t-76 86q-46 76 -50 165 zM91 280q-1 -10 -1 -20q0 -38 10 -68q12 -40 43 -61q21 -13 45 -13q10 0 20 2q36 7 75 31.5t75.5 60.5t69.5 73t58.5 69.5t37.5 51.5q33 47 67 106t60.5 121.5t40.5 124.5q7 34 7 67q0 26 -5 52q-45 16 -77.5 44.5t-41.5 71.5q-123 -47 -210.5 -142t-153.5 -212 q-12 -23 -30.5 -63.5t-37 -90t-34 -102.5t-18.5 -103z" />
<glyph unicode="p" horiz-adv-x="1042" d="M-410 -320q-2 14 -2 28q0 17 4 34q23 82 56 165t70.5 163t78.5 157.5t80 153.5q47 92 95 181t96 181q33 66 75.5 137.5t51.5 145.5q4 41 31.5 62.5t58 21.5t56.5 -19.5t26 -62.5q0 -31 -8.5 -61.5t-20.5 -61.5q41 59 89 114.5t102.5 91.5t111.5 43q9 1 18 1q49 0 99 -31 q53 -35 77.5 -87t27.5 -115q1 -11 1 -22q0 -52 -12 -108q-14 -69 -36.5 -133.5t-49.5 -122t-49 -98.5q-35 -63 -82 -131.5t-105 -128.5q66 27 129.5 65t120 83t104.5 92t85 92q16 23 33.5 46.5t39.5 49.5q16 23 34 16q11 -5 11 -18q0 -7 -4 -18q-8 -25 -19 -46.5t-22 -37.5 q-66 -111 -155.5 -205t-195 -161.5t-225.5 -105.5q-109 -34 -220 -34h-23q-27 -4 -56 -4q-14 0 -28 1q-43 3 -82 17.5t-71.5 40t-53.5 64.5q-35 -70 -66.5 -137.5t-60.5 -139.5q-12 -33 -24 -64.5t-21 -66.5q-8 -29 -13 -54.5t-32 -41.5q-25 -13 -46 -13q-7 0 -13 1 q-27 6 -43 27.5t-23 53.5zM8 266q20 -8 40 -23.5t39 -31.5t40.5 -32.5t48.5 -26.5q80 20 148.5 78.5t124 132t98.5 154.5t71 151q6 14 17.5 41.5t23 60.5t20.5 68.5t11 67.5v12q0 25 -6 44q-8 23 -31 33q-14 5 -30 5q-25 0 -55 -14q-48 -23 -95 -62t-87 -81t-58 -67 q-23 -25 -45.5 -55.5t-57.5 -85.5t-87 -142t-130 -227z" />
<glyph unicode="q" horiz-adv-x="1099" d="M-91 366q11 74 42 147t59 122q80 139 197 256t262 190q57 31 122.5 50.5t132.5 23.5q14 1 29 1q52 0 103 -12q66 -14 123 -52q20 -12 24.5 -33t-4 -39.5t-25.5 -29.5t-40 -5q-57 14 -113 14q-77 0 -151 -26q-129 -45 -238.5 -133t-193.5 -202t-129 -220q-16 -48 -16 -76 q0 -4 1 -7q2 -28 18.5 -35t44 3t59.5 30.5t64.5 46.5t57.5 50q25 23 62.5 64t81.5 86t93.5 89t96.5 75.5t90 45.5q19 5 36 5q22 0 40 -9q39 -20 43 -52q1 -7 1 -15q0 -25 -10 -51q-14 -35 -35.5 -69t-35.5 -58q-109 -184 -195 -341t-145 -315q-26 -69 -26 -96t21 -21 q19 7 51 38.5t66 72.5q47 57 95.5 117.5t108 142.5t138 193.5t187.5 271.5q12 18 23.5 22.5t19.5 -0.5t10 -18v-5q0 -10 -6 -23q-59 -117 -118.5 -224.5t-119.5 -212.5q-35 -61 -72.5 -125.5t-78.5 -127t-88 -120t-103 -104.5q-29 -23 -61.5 -39t-65.5 -21q-12 -2 -23 -2 q-22 0 -45 7q-34 10 -61 39q-45 49 -49 116q-1 12 -1 25q0 56 15 115q19 71 49.5 138t53.5 116q111 236 254 461q-90 -76 -159.5 -162t-141.5 -170q-29 -35 -62.5 -70t-73.5 -59.5t-84 -34.5q-16 -4 -32 -4q-30 0 -62 12q-78 29 -100 93q-15 44 -15 91q0 24 4 49z" />
<glyph unicode="r" horiz-adv-x="862" d="M-135 432q37 63 76 138t72.5 149t59 140.5t38.5 109.5q-27 25 -32 57q-1 9 -1 18q0 22 8 44q12 32 38 61t58 45q29 12 58 12h8q33 -2 57.5 -18.5t35.5 -44t5 -62.5q55 -16 108.5 -36.5t94.5 -52.5t61 -78q15 -33 15 -76q0 -17 -2 -35q-6 -49 -24.5 -98.5t-43.5 -95.5 t-51.5 -91t-50.5 -88q-27 -47 -52.5 -95t-42.5 -99q-14 -41 -13 -63q0 -7 1 -13q6 -21 27.5 -20t52.5 18.5t61.5 41t56 46t38.5 33.5q86 82 154.5 163.5t129.5 169.5q12 16 23.5 18.5t20 -5t11.5 -20.5q1 -4 1 -9q0 -8 -4 -16q-16 -39 -49 -93.5t-75 -115t-92.5 -122 t-101.5 -112.5t-101 -87t-93 -46q-28 -7 -53 -7q-29 -1 -53 9q-46 18 -72 57q-24 39 -32 93q-3 20 -3 39q0 34 8 67q20 86 59 167t80 161q12 27 32.5 60.5t37 68.5t26.5 66.5t4 50.5q-10 27 -56 41t-122 36q-35 -55 -75 -123.5t-85 -139t-90 -137.5t-88 -118 q-18 -23 -38 -35t-34 -10q-13 2 -13 19q0 20 26 63z" />
<glyph unicode="s" horiz-adv-x="831" d="M-156 157v7q0 34 18 56q20 24 53 28h8q30 0 61 -27q78 -61 168 -78q29 6 61.5 26.5t64 45.5t58 52.5t45.5 49.5q16 20 31.5 50t18.5 60t-10 51.5t-56 27.5q-16 2 -32.5 2t-32.5 -2q-32 -4 -64 -7q-24 -2 -49 -2h-16q-32 1 -65 15q-78 32 -100 92q-14 38 -14 81q0 23 4 47 q12 68 48 132t79 107q41 41 94 78.5t111 63.5q60 26 122 35q24 4 48 3q37 0 73 -8q76 -20 116 -83q28 -43 28 -94q0 -23 -6 -46q-14 -63 -57.5 -113.5t-100.5 -79.5q-10 -6 -19.5 -3t-15.5 10t-7 17.5t7 18.5q12 14 31.5 42t33 59.5t15.5 62.5t-23 49q-20 15 -49 15 q-18 0 -38 -6q-54 -16 -110.5 -48.5t-104.5 -71t-66 -59.5q-14 -16 -33.5 -42t-32 -54.5t-9.5 -55t34 -40.5q25 -12 50.5 -13.5t53 2.5t55 8.5t52.5 4.5q70 -4 115 -36q44 -32 66 -81q20 -46 21 -99q-1 -3 -1 -7q-2 -58 -21 -113q41 33 80 72.5t73.5 80.5t64.5 80t52 68 q10 12 28.5 21t29.5 -15q2 -5 2 -11q0 -5 -2 -13q-4 -14 -13.5 -29t-18.5 -28t-13 -21q-66 -109 -143 -201t-167 -160t-195.5 -105.5t-228.5 -37.5q-68 2 -124 27.5t-97 66.5q-37 37 -39 75z" />
<glyph unicode="t" horiz-adv-x="616" d="M-119 1286q2 12 13 25q25 31 61.5 50t71.5 32q97 35 203 40q59 3 118 3q48 0 96 -2q35 50 81 76q44 25 84 25h3q41 -1 68 -29q21 -23 21 -64q0 -11 -1 -23q106 -4 213 -6q18 0 36 -1q89 0 179 9q35 2 79 7.5t87 15.5t81 29.5t61 52.5q12 16 30 19q6 1 11 1q13 0 25 -5 q16 -7 26 -23q7 -12 7 -26q0 -5 -1 -11q-14 -63 -52 -105.5t-90.5 -69t-116 -39t-127.5 -17.5q-46 -4 -90 -4q-17 0 -34 1q-59 2 -106 4q-74 4 -147 11.5t-144 17.5q-61 -76 -132 -157t-130 -150q-25 -45 -48.5 -90t-46.5 -90q-39 -78 -74.5 -157t-64.5 -163 q-8 -23 -24.5 -67t-27.5 -91q-10 -43 -10 -81v-7q1 -41 27 -59q18 -11 40 -11q17 0 36 6q45 15 94 50t97.5 81t82.5 89q39 47 77 95t73 95q6 10 13 22.5t16 18.5q16 10 25 10q14 0 15 -23q0 -5 -1 -11q-6 -37 -31 -89t-57.5 -104.5t-65.5 -100.5t-55 -77q-29 -39 -65 -77 t-78 -68.5t-89 -50t-98 -19.5h-8q-88 0 -133 41q-48 43 -62 111q-8 39 -8 84q0 34 5 71q11 86 36 169t53.5 156t46.5 116q33 74 71 151.5t78 151t80 140.5t74 116q-78 8 -154 12q-19 1 -39 1q-57 0 -112 -9q-41 -6 -72.5 -22.5t-60.5 -32.5q-16 -8 -26 -6q-9 0 -12 10 q-2 6 -2 13q0 4 1 9z" />
<glyph unicode="u" horiz-adv-x="1357" d="M-146 226q3 82 32.5 164.5t73.5 159.5t79 134q104 164 223 301q41 45 84 89t96 73q21 11 40 11q13 0 25 -5q30 -12 45 -39t12 -59.5t-36 -55.5q-63 -43 -132.5 -125.5t-134 -179t-116 -191.5t-77.5 -163q-16 -49 -26 -91q-5 -23 -4 -40q0 -15 3 -25q8 -24 39 -22t94 43 q109 74 207 167t187 192.5t170 198.5t157 185q25 27 52.5 63t59 66.5t67.5 52.5q33 20 72 19h7q31 -2 51.5 -24.5t18.5 -53.5q-2 -35 -16.5 -67.5t-34 -64.5t-42 -61.5t-40.5 -56.5q-53 -82 -93.5 -143.5t-71 -110.5t-54 -90t-42.5 -82q-10 -20 -23 -52q-12 -31 -22 -65 q-8 -28 -8 -54v-11q2 -31 25 -49q22 -19 48 -20q7 0 15 2q34 8 68.5 29.5t65 48t49.5 44.5q90 82 166.5 173t158.5 182q12 12 24.5 16t19.5 -1q8 -6 8 -19q0 -12 -11 -31q-35 -57 -80 -113.5t-80 -105.5q-37 -49 -80 -108.5t-94 -113t-108.5 -94.5t-122.5 -51q-17 -3 -34 -3 q-34 -1 -64 11q-45 16 -78 49t-50.5 79t-17.5 98q0 70 21.5 139t54.5 136t73 129t76 120q18 29 38 57.5t40 56.5q-78 -100 -160.5 -215.5t-170 -227.5t-180.5 -213t-191 -173q-37 -27 -79 -40q-34 -11 -68 -11q-8 0 -15 1q-41 3 -80 22.5t-65 58.5q-44 64 -44 140v10z" />
<glyph unicode="v" horiz-adv-x="1112" d="M-85 287q5 84 28.5 167t48.5 144q27 66 63.5 146.5t81.5 157.5t97.5 142.5t107.5 100.5q23 14 45 14q11 0 21 -3q32 -9 49.5 -33.5t15.5 -58.5t-37 -63q-39 -33 -80 -93t-77.5 -128.5t-68.5 -136.5t-50 -113q-27 -59 -47.5 -124.5t-30.5 -121.5q-7 -40 -7 -73 q0 -13 1 -25q4 -41 30 -53q9 -4 21 -4q23 1 57 17q52 24 135 98q63 57 147.5 141t162.5 177t138 189.5t77 180.5q-34 24 -54 58q-16 29 -17 67q0 8 1 16q4 37 32 61q24 20 54 20q5 0 10 -1q47 -4 79 -35t48 -71q47 -11 109 -17q52 -5 105 -5h19q64 1 124.5 9t103.5 23 q25 10 39 7q13 -4 19 -14q3 -5 3 -10q-1 -6 -3 -13q-6 -13 -19 -21q-47 -31 -113.5 -54.5t-136 -39t-133.5 -22.5q-41 -4 -74 -4q-18 0 -34 1q-27 -102 -87.5 -212t-139.5 -211.5t-166 -188.5t-167 -144q-37 -29 -87 -60.5t-105 -52.5q-54 -22 -110 -26q-7 -1 -15 -1 q-47 0 -90 23q-77 41 -103 115q-21 62 -22 131q0 13 1 27z" />
<glyph unicode="w" horiz-adv-x="1607" d="M-146 181q-1 15 -1 30q1 31 7 65q10 50 23 93q39 117 103.5 225t136.5 207q59 86 125.5 166t140.5 151q27 24 55 24q4 0 8 -1q32 -4 54 -26.5t26 -56.5q1 -5 1 -9q0 -29 -25 -54q-88 -90 -165 -193.5t-144 -207.5q-39 -59 -74 -121.5t-64 -128.5q-23 -55 -29 -99 q-2 -15 -3 -28q0 -23 8 -39q12 -24 46 -21t93 44q53 37 97 88t69 84q86 115 156.5 221t132 201.5t117 175.5t114.5 141q25 27 56 27h4q34 -2 56 -21q22 -20 30 -53q2 -8 2 -15q0 -25 -19 -51q-53 -68 -105 -156.5t-97.5 -186t-78 -192.5t-46.5 -175q-10 -57 -10 -94 q0 -27 5 -43q13 -39 45.5 -36t81 37.5t101.5 88.5q59 57 129.5 142t136.5 179t115 189.5t65 175.5q-35 24 -52 58q-14 28 -14 64q0 8 1 17q4 37 32 61q24 20 53 20q5 0 11 -1q47 -4 79 -35t48 -72q47 -12 109 -18q54 -5 108 -5h18q64 1 123.5 9t102.5 25q25 8 39 5 q14 -2 19 -12q2 -5 2 -10.5t-2 -12.5q-5 -13 -19 -22q-47 -31 -114 -54t-135 -39q-70 -15 -134 -22q-41 -4 -73 -4q-18 0 -34 1q-18 -92 -68.5 -190.5t-115 -190.5t-137 -172t-138.5 -138q-147 -129 -268 -172q-67 -24 -119 -24q-43 0 -75 16q-74 36 -94 146q-6 31 -6 66 q0 93 38 222l-26 -41q-63 -94 -134 -190t-163 -162q-53 -41 -120 -53q-16 -3 -31 -3q-50 0 -97 30q-45 27 -67 68.5t-26 87.5z" />
<glyph unicode="x" horiz-adv-x="1171" d="M-84 4q10 84 62.5 156.5t107.5 132.5q70 72 147.5 137.5t157.5 126.5q2 47 2 93v93q1 111 -17 154q-16 39 -42 39h-4q-28 -4 -65.5 -47t-79.5 -103.5t-85 -129t-82 -124.5q-31 -39 -49 -39q-5 1 -8 3q-6 4 -6 15q0 20 20 62q39 84 93.5 194t118 202t135.5 142 q43 30 87 30q29 0 58 -13q49 -23 71 -75q21 -53 28 -117q5 -45 5 -91q0 -19 -1 -39q-3 -66 -5 -118q61 45 129 93t133.5 99.5t124 107.5t99.5 118q10 14 18 45t20.5 55.5t30.5 31.5q3 1 7 1q17 0 40 -27q24 -27 24 -63q0 -5 -1 -11q-4 -42 -24.5 -87t-48 -85t-46.5 -63 q-109 -129 -242 -232.5t-270 -201.5q0 -53 1 -102.5t4 -90t12.5 -70.5t27.5 -42q24 -16 51 -16q15 0 31 4q45 14 89 44.5t83 69.5l64 64q72 70 135 142.5t129 148.5q23 25 41 8q10 -9 10 -22q0 -11 -8 -25q-8 -12 -41 -56.5t-72 -94.5t-73.5 -94t-45.5 -56 q-39 -47 -86 -102.5t-103 -98.5q-56 -42 -120 -66q-37 -13 -75 -14q-29 0 -60 8q-53 14 -85 49t-49.5 82t-23.5 101.5t-6 105.5q-80 -59 -156.5 -121.5t-138.5 -136.5q-23 -29 -47 -59.5t-41 -61.5q-12 -19 -28 -27q-10 -4 -19 -5q-7 1 -13 3q-16 6 -25 21q-6 11 -6 28 q0 8 1 17z" />
<glyph unicode="y" horiz-adv-x="1226" d="M-220 -213q5 41 26.5 77t56.5 64.5t71 44.5q76 34 159 34h5q86 -1 168 -19q43 55 84 122.5t81 138t78 142.5t73 137q-72 -88 -147 -172t-156 -161q-27 -25 -58 -49.5t-65.5 -41t-71.5 -20.5q-7 -1 -15 -1l-59 13q-70 31 -96 84q-23 48 -23 107q0 6 1 12q2 66 27.5 137.5 t58 138t69.5 124t62 94.5q63 92 133.5 178t152.5 164q27 23 55 23h9q33 -5 55.5 -28.5t25.5 -55.5v-7q0 -29 -26 -55q-80 -78 -148.5 -168t-129.5 -185q-39 -59 -73 -119.5t-61 -125.5q-32 -80 -32 -121q0 -27 15 -35q6 -4 15 -4q43 0 146 84q106 88 200.5 183t180.5 195.5 t168 203t161 204.5q25 31 58 32t57.5 -17.5t33.5 -50.5q3 -11 3 -21q0 -22 -14 -45q-86 -133 -158 -263t-140.5 -257t-136 -251t-143.5 -241q86 29 164 75t149 101q123 100 223.5 214t186.5 214q31 37 41 16q3 -6 3 -15q0 -17 -13 -42q-72 -125 -163 -245.5t-201.5 -220 t-238.5 -170t-272 -93.5q-33 -39 -67.5 -72.5t-71.5 -64.5q-43 -35 -108.5 -65.5t-133.5 -41.5q-24 -3 -46 -3q-43 0 -84 13q-60 21 -91 93q-14 34 -14 66q0 9 1 18zM-64 -216q-2 -5 -2 -9q0 -8 10 -13q6 -3 15 -3q15 0 41 8q20 6 44 17t44.5 24.5t37.5 25.5t28 23 q-10 1 -20 1q-22 0 -44 -4q-30 -4 -63 -12q-35 -10 -59.5 -26.5t-31.5 -31.5z" />
<glyph unicode="z" horiz-adv-x="1093" d="M-190 -223v12q0 81 49 127q53 48 131 66q54 12 111 13q26 0 53 -3q86 -8 151 -29q35 61 59 130q19 55 18 107q0 13 -1 27q-69 -29 -145 -46q-48 -11 -95 -11q-28 0 -55 4q-68 10 -74 58q-1 6 -1 12q0 43 38 86q43 50 126 80q50 18 110 18q39 0 82 -8q35 14 83 51t95 84 t87 103.5t58 111.5q12 36 13 71q1 19 -3 35q-10 50 -61 87q-31 22 -67 22q-14 1 -30 -3q-54 -12 -98 -38q-59 -35 -118.5 -86t-119 -112.5t-115.5 -130t-105 -138.5q-25 -35 -42.5 -41t-24.5 6.5t-2.5 37t24.5 55.5q49 74 98 147.5t102 144.5q35 49 74 99.5t84 93.5 t97.5 75.5t113.5 45.5q36 7 69 7q47 0 89 -14q72 -26 122 -80q50 -56 74 -130q15 -48 15 -99q0 -28 -5 -57q-14 -94 -63 -174t-115 -145q-90 -92 -196 -160q24 -64 24 -128v-17q-4 -72 -26 -142q96 39 180 108.5t157.5 153.5t137 172t121.5 166q12 16 26 12q17 -5 17 -22 q1 -15 -21 -56q-24 -44 -55 -92.5t-58.5 -90.5t-35.5 -54q-61 -90 -131 -172t-156 -150q-51 -41 -117.5 -78.5t-138.5 -58.5q-45 -66 -102.5 -119t-128.5 -86q-49 -23 -114 -32q-26 -4 -51 -4q-38 1 -73 9q-59 14 -101 53.5t-44 115.5zM-31 -221q6 -17 33 -21l14 -2 q22 0 48 8q36 10 74 32t67 50q-43 10 -88 12h-12q-38 0 -68 -8q-35 -10 -55 -27q-15 -13 -14 -32q0 -6 1 -12z" />
<glyph unicode="{" horiz-adv-x="886" d="M70.5 -92q9.5 72 31 141.5t43.5 128.5q4 12 19.5 46t33 77t34 90t26.5 86t9 64.5t-17 25.5q-23 2 -39 15.5t-18 35.5q-2 33 21.5 46.5t45.5 25.5q76 37 129 101q53 66 85 148.5t61 162.5q27 74 61.5 149.5t82.5 139t112.5 108.5t152.5 60q25 4 41 -9.5t22.5 -32t-0.5 -39 t-30 -28.5q-72 -29 -118 -80t-78.5 -113.5t-55.5 -131t-47 -132.5q-23 -57 -49.5 -113.5t-61.5 -107.5t-78 -93t-96 -69q14 -31 17.5 -70.5t-0.5 -81.5t-14.5 -82t-20.5 -71q-23 -70 -49.5 -136.5t-49.5 -133.5q-14 -41 -29.5 -87t-21.5 -92t2.5 -87t42.5 -70 q25 -23 34 -45.5t5 -39.5t-20.5 -26.5t-42.5 -3.5q-31 6 -61.5 26.5t-47.5 37.5q-49 53 -62.5 120.5t-4 139.5z" />
<glyph unicode="|" horiz-adv-x="985" d="M6 -356q8 47 14 77q10 59 23.5 116t30.5 114q72 231 178 449t229 427q66 111 133.5 222.5t145.5 216.5q25 35 53.5 73.5t63.5 65.5q16 12 37.5 14t38 -6t24.5 -25t-2 -42q-35 -92 -85 -177.5t-102 -171.5q-186 -315 -342.5 -618t-269.5 -623q-14 -41 -25.5 -86t-27.5 -86 q-8 -16 -21.5 -29.5t-30 -18.5t-31.5 1t-26 29q-16 31 -8 78z" />
<glyph unicode="}" horiz-adv-x="880" d="M-233.5 -375.5q-6.5 19.5 0.5 39t30 29.5q70 27 116 81t78 119.5t52 137t41 135.5q20 63 46 131t60.5 129t80.5 113.5t106 87.5q-18 39 -16.5 91t15 105.5t33 103.5t33.5 83q23 53 45.5 104t38.5 105q12 39 22.5 84t-3.5 86q-12 31 -38 45t-40 43q-14 31 5.5 56.5 t49.5 25.5q35 0 71 -25t56 -51q51 -63 54.5 -143t-13.5 -156q-18 -76 -49 -147.5t-63 -143.5q-23 -47 -45.5 -100.5t-32.5 -104.5q-2 -4 3 -10t21 -4q23 2 39.5 -14.5t18.5 -38.5q0 -18 -10.5 -32t-26 -23t-31.5 -16t-29 -15q-82 -53 -131 -144q-47 -86 -74.5 -179 t-60.5 -185q-25 -72 -57.5 -144.5t-78.5 -135t-108.5 -106.5t-144.5 -59q-25 -4 -41 9.5t-22.5 33z" />
<glyph unicode="~" horiz-adv-x="1046" d="M88 426q-4 78 30 133t88 86t121.5 37t133.5 -12q39 -12 75.5 -26.5t72.5 -26t73 -13.5t74 14q31 14 54.5 31t47.5 45q29 31 40 24t9 -35t-14 -65.5t-31 -68.5q-41 -63 -111.5 -88t-142.5 -17q-68 6 -124 35t-122 45q-76 16 -130 -15.5t-89 -96.5q-10 -18 -32.5 -13.5 t-22.5 27.5z" />
<glyph unicode="&#xa1;" horiz-adv-x="798" d="M-285 -30.5q-2 18.5 6.5 36t28.5 25.5q104 45 217 141t218.5 212t195.5 233.5t151 205.5q16 23 32 48.5t36 48.5q16 16 31.5 12t15.5 -31q0 -18 -9 -40.5t-17 -39.5q-55 -117 -104.5 -209t-96.5 -167.5t-92 -138t-95 -120.5q-39 -47 -91 -99t-113.5 -94t-129 -65.5 t-135.5 -11.5q-23 4 -35 19.5t-14 34zM659 1296q0 43 30 73t73 30t72.5 -30t29.5 -73t-29.5 -72.5t-72.5 -29.5t-73 29.5t-30 72.5z" />
<glyph unicode="&#xa2;" horiz-adv-x="976" d="M-63 268q-12 80 2 161t45.5 158t76.5 147.5t95 131.5q47 59 116.5 124t150.5 110t167 55t166 -39q74 -45 92 -117.5t-1.5 -148.5t-67.5 -143.5t-105 -104.5q-23 -14 -42.5 -9t-31.5 20.5t-14 37t14 39.5q20 20 39.5 48t33 59.5t20.5 64.5t1 64q-8 43 -38.5 51t-68.5 -2 t-75 -31.5t-55 -36.5q-61 -47 -117.5 -108.5t-103 -132t-77 -148.5t-40.5 -153q-10 -84 17.5 -130.5t76.5 -64.5t111.5 -12t124.5 30q147 55 275 156.5t226 224.5q10 12 24.5 35t35.5 21q16 -2 21 -11.5t3 -21.5t-8 -24.5t-10 -20.5q-35 -68 -78 -128.5t-94 -115.5 q-53 -57 -115.5 -112.5t-133.5 -98.5t-147.5 -71.5t-156.5 -34.5q-66 -4 -126.5 14t-108.5 56t-79.5 91.5t-39.5 120.5zM-43 -356q8 47 14 77q10 59 23.5 116t30.5 114q72 231 178 449t229 427q66 111 133.5 222.5t145.5 216.5q25 35 53.5 73.5t62.5 65.5q16 12 38 14 t38.5 -6t24.5 -25t-2 -42q-35 -92 -85 -177.5t-102 -171.5q-186 -315 -342.5 -618t-269.5 -623q-14 -41 -25.5 -86t-27.5 -86q-8 -16 -21.5 -29.5t-30 -18.5t-32 1t-25.5 29q-16 31 -8 78z" />
<glyph unicode="&#xa3;" horiz-adv-x="1370" d="M5 12q-5 33 11 62q35 61 101.5 97t140.5 46q4 12 9 27.5t13.5 41t22.5 66.5t39 109q-41 -10 -83 -19.5t-83 -17.5q-23 -4 -32.5 16.5t6.5 34.5q106 88 251 148q35 84 74 162.5t86 152.5q37 57 84 111.5t103.5 96.5t120 68.5t135.5 30.5q35 2 85 -9t100 -30.5t95 -46 t70 -55.5q18 -23 7 -42.5t-38 -4.5q-57 29 -116.5 45t-118 16t-114.5 -21.5t-108 -66.5q-78 -70 -136 -162t-107 -186q94 10 184 -7.5t166 -74.5q27 -23 19.5 -57.5t-40.5 -44.5q-18 -4 -38.5 -1t-36.5 5q-88 10 -174.5 8t-170.5 -14l-137 -281q59 -10 118.5 -30.5t119 -39 t120 -27.5t124.5 5q61 14 112 49t94 78q6 6 13.5 16t16.5 19.5t19.5 15.5t20.5 4q18 -4 21.5 -17.5t-2 -28.5t-14.5 -30.5t-15 -23.5q-80 -137 -209 -197.5t-285 -38.5q-45 6 -90 19.5t-89 26t-87 21.5t-86 9q-23 -25 -54.5 -47.5t-66.5 -36.5t-69.5 -15t-63.5 15 q-33 18 -38 51z" />
<glyph unicode="&#xa4;" horiz-adv-x="1093" d="M-23 270q25 66 92.5 151t161.5 171l70 -146q-66 -53 -125 -109t-117 -114q-14 -14 -31.5 -15t-30.5 7t-19.5 22.5t-0.5 32.5zM148.5 485.5q-23.5 67.5 5.5 161.5q31 96 93 155.5t135 85t146.5 18.5t128 -45t78 -105.5t-3.5 -161.5q-29 -94 -90 -153.5t-135 -85 t-148.5 -18.5t-130 44t-79 104.5zM319 750q0 41 2.5 78.5t8.5 78.5q4 33 24.5 62.5t43 44t41 9.5t20.5 -38q4 -47 4 -81t4 -64zM338 633q-23 -53 4 -94t76 -41q31 -2 56.5 10t44 31.5t29.5 45t11 50.5q4 51 -23.5 76.5t-66.5 25.5t-77 -26.5t-54 -77.5zM399 410l152 57 q29 -66 70 -128.5t84 -109.5q8 -8 8 -23.5t-7.5 -27.5t-22.5 -17t-34 5q-86 45 -147.5 107.5t-102.5 136.5zM549 831q119 72 233.5 113t210.5 35q20 -2 29.5 -13.5t9.5 -25.5t-8 -26.5t-20 -14.5q-98 -43 -194.5 -97t-191.5 -116z" />
<glyph unicode="&#xa5;" horiz-adv-x="1382" d="M8 89.5q-12 19.5 4 35.5q78 82 183.5 128t214.5 64q18 33 36 62q-76 -10 -149.5 -28.5t-146.5 -41.5q-23 -6 -35.5 13.5t4.5 35.5q59 63 137 104.5t164 65.5q-57 18 -84 58.5t-32 89.5t7.5 100t34.5 94q59 111 154.5 205t195.5 168q20 14 40 11t33 -18t15 -35.5 t-10 -39.5q-37 -51 -78 -103t-82 -106.5t-75.5 -109t-59.5 -107.5q-14 -31 -8 -44t21.5 -16t35 2t31.5 9q104 47 199.5 111.5t184.5 137.5t172 149.5t165 150.5q18 18 40.5 15t38 -16t18.5 -34.5t-13 -42.5q-104 -127 -216 -242.5t-222 -234.5l-111 -125q41 -10 77 -27.5 t66 -46.5q20 -20 16.5 -49t-28.5 -43q-16 -10 -36.5 -7t-37.5 5q-47 6 -94 8t-94 0q-12 -14 -24.5 -29.5t-24.5 -31.5q61 -6 117.5 -25.5t99.5 -60.5q20 -20 16 -48t-28 -42q-16 -10 -36 -8t-38 4q-59 8 -117.5 9t-124.5 -1q-18 -33 -29.5 -70t-7.5 -74q4 -25 2 -47t-28 -34 q-33 -16 -55.5 1t-38 46.5t-21.5 64.5t-6 53q0 10 1 21.5t3 23.5q-78 -10 -151.5 -28.5t-149.5 -42.5q-23 -6 -35 13.5z" />
<glyph unicode="&#xa6;" horiz-adv-x="985" d="M6 -356q8 47 14 77q10 59 23.5 116t30.5 114q37 123 88 243.5t110 237.5q20 41 52 42t58 -20.5t41 -55t3 -60.5q-63 -147 -130 -289.5t-120 -292.5q-14 -41 -25.5 -86t-27.5 -86q-8 -16 -21.5 -29.5t-30 -18.5t-31.5 1t-26 29q-16 31 -8 78zM403 657q4 31 26 78 t52.5 103.5t68.5 117t76 117.5t72.5 107.5t61.5 85.5q25 35 53.5 73.5t63.5 65.5q16 12 37.5 14t38 -6t24.5 -25.5t-2 -41.5q-35 -92 -85 -177.5t-102 -171.5q-18 -31 -52 -89t-69.5 -122.5t-67.5 -123t-48 -91.5q-20 -41 -47 -43t-51.5 16.5t-39 50.5t-10.5 62z" />
<glyph unicode="&#xa7;" horiz-adv-x="917" d="M-88 162q14 63 57 113.5t101 78.5q20 10 34.5 -8t-0.5 -35q-12 -14 -31.5 -41.5t-32.5 -59.5t-15 -62.5t22 -49.5q33 -25 87 -9.5t110.5 48.5t104.5 72t67 59q14 14 33.5 41t32 55.5t9 54t-33.5 42.5q-25 12 -50.5 13t-53 -3t-55.5 -8t-52 -4q-70 2 -116 35.5t-68.5 83 t-21.5 106.5t26 111q23 43 70.5 103t119.5 112l39 -185q-35 -35 -55 -61q-16 -20 -31.5 -50t-19 -59.5t10 -51t56.5 -28.5q33 -4 64.5 0.5t64.5 7.5t64.5 2t64.5 -16q76 -33 99.5 -92t11 -126.5t-48 -132t-78.5 -107.5q-41 -41 -94.5 -79t-112 -63.5t-120.5 -36t-122 6.5 q-76 20 -115.5 82.5t-21.5 140.5zM167 942q1 57 26 111q18 37 58 90t98.5 100t133 79t160.5 30q68 -2 124 -28t97 -67q37 -37 35 -77.5t-24.5 -68.5t-55.5 -31t-55 38q-10 18 -21.5 34.5t-29 28t-45 15.5t-72.5 0q-31 -4 -63.5 -22.5t-63.5 -45t-57.5 -55.5t-44.5 -51 q-16 -20 -32 -50t-19 -59.5t10.5 -51t56.5 -27.5q33 -4 64.5 0t64.5 7t64.5 2t64.5 -16q76 -33 99.5 -92t11 -126.5t-48 -132t-78.5 -107.5t-93 -78l-26 203l37 32q14 14 33.5 41t32 55.5t9 54t-33.5 42.5q-25 12 -50.5 13t-53 -3t-55.5 -8t-52 -4q-70 2 -116 35.5t-68.5 83 t-21.5 106.5z" />
<glyph unicode="&#xa8;" horiz-adv-x="528" d="M4 1434q0 43 29.5 72.5t72.5 29.5t73 -29.5t30 -72.5t-29.5 -73t-73.5 -30q-43 0 -72.5 30t-29.5 73zM319 1446q0 43 30 72.5t73 29.5t72.5 -29.5t29.5 -72.5t-29.5 -73t-72.5 -30t-73 30t-30 73z" />
<glyph unicode="&#xa9;" horiz-adv-x="1822" d="M5 130q7 153 54 302.5t123 287.5t160 253q86 115 195.5 223.5t237.5 188t271.5 121.5t296.5 24q25 -4 48.5 -7t48.5 -10q10 21 37 35t50 10t44.5 -19t39 -35.5t34.5 -39.5q96 -117 136 -256t37 -284.5t-42 -290t-99 -273.5q-59 -129 -140 -254.5t-181.5 -235.5t-219 -198 t-253.5 -143q-117 -47 -244 -53t-241.5 30.5t-207 118.5t-139.5 209q-53 143 -46 296zM184.5 135.5q-10.5 -151.5 55.5 -278.5q68 -131 175 -172t227 -25t235.5 74.5t199.5 126.5q113 94 212.5 214t174 257t121.5 284.5t53 296.5q6 127 -27.5 245t-119.5 216 q-141 35 -272.5 16.5t-249 -76t-221 -147.5t-191.5 -196q-84 -100 -168 -239.5t-139 -292t-65.5 -304zM479 260q-10 88 10.5 177t61.5 172t96 157t117 133q57 57 133 110.5t159 84t170 31.5t167 -46q20 -12 25 -32.5t-2 -39t-24 -29.5t-40 -5q-80 18 -156 -1.5t-144.5 -63.5 t-128 -102t-102.5 -116q-33 -45 -74.5 -114.5t-67.5 -146.5t-23 -148.5t61 -118.5q41 -35 92 -40t102 13q39 12 74 35t66 51q18 16 35.5 42t37.5 40q20 12 30.5 9t13.5 -15t1 -28.5t-6 -28.5q-29 -72 -73 -129q-51 -61 -121 -103.5t-152 -46.5q-68 -4 -126 18.5t-102 63.5 t-73 96.5t-37 120.5z" />
<glyph unicode="&#xaa;" d="M62.5 650.5q7.5 58.5 24.5 115.5t40 108.5t41 86.5q82 154 201.5 283.5t269.5 217.5q63 37 135 62.5t145.5 34t147.5 -5t139 -56.5q20 -12 24.5 -32.5t-3.5 -38t-25.5 -28.5t-40.5 -5q-82 23 -160.5 14.5t-152.5 -37.5t-140.5 -75t-123.5 -99q-74 -70 -134.5 -149.5 t-113.5 -165.5q-18 -31 -39 -77t-35 -93t-20 -87t5 -58.5t43 -7.5t91 67q61 57 118.5 125.5t116 137t117 129t123.5 103.5q53 35 105.5 47.5t103.5 -16.5q25 -14 33 -41t-6 -51q-29 -51 -57.5 -101.5t-57.5 -101.5q-25 -47 -54.5 -97t-50.5 -104q-12 -35 -19 -58.5t-2 -33.5 t23.5 -5t55.5 28q94 57 174 139t151 160q25 29 47.5 58.5t47.5 57.5q6 8 18 15.5t23.5 9.5t16.5 -5t-1 -28q-10 -33 -32.5 -71.5t-39.5 -65.5q-37 -63 -92 -140t-119.5 -145.5t-134 -116.5t-135.5 -55q-59 -4 -96 14.5t-57.5 52.5t-24.5 78t6 91q18 92 60 182t96 174 q-27 -6 -64 -42t-77 -86t-81 -105.5t-75 -102.5q-29 -41 -63 -88t-73.5 -86t-89 -60.5t-106.5 -10.5q-66 12 -98.5 48t-44 85t-4 107.5z" />
<glyph unicode="&#xab;" horiz-adv-x="1384" d="M162.5 560q-4.5 26 9.5 48q39 57 117 110.5t170 95.5t183 71t157 37q23 6 37 -0.5t18 -18.5t-3 -26.5t-28 -24.5q-59 -31 -123.5 -59.5t-126 -59.5t-116 -66.5t-92.5 -84.5q10 -18 37.5 -58.5t58.5 -83.5t56.5 -83t29.5 -60q6 -33 -3 -49.5t-25.5 -21.5t-35 3.5 t-32.5 24.5q-12 14 -48 53t-78 82t-80 81t-55 48q-23 16 -27.5 42zM531 560q-5 26 10 48q39 57 116.5 110.5t170 95.5t183 71t156.5 37q23 6 37.5 -0.5t18.5 -18.5t-3.5 -26.5t-27.5 -24.5q-59 -31 -123.5 -59.5t-126 -59.5t-116 -66.5t-93.5 -84.5q10 -18 38 -58.5 t58.5 -83.5t56 -83t29.5 -60q6 -33 -3 -49.5t-25.5 -21.5t-34.5 3.5t-33 24.5q-12 14 -48 53t-78 82t-80 81t-54 48q-23 16 -28 42z" />
<glyph unicode="&#xac;" horiz-adv-x="1327" d="M8 512q6 20 29 33q129 66 264 108.5t277 71.5q63 12 142 22.5t155.5 6.5t144 -32t108.5 -89q12 -20 9.5 -39t-15.5 -35q-78 -94 -136 -201.5t-120 -216.5q-12 -23 -33.5 -27.5t-40 4.5t-28.5 27t-2 43q31 100 76 194.5t98 186.5q-117 14 -244 2q-158 -16 -309.5 -54 t-304.5 -81q-25 -6 -43.5 5.5t-25.5 31t-1 39.5z" />
<glyph unicode="&#xad;" horiz-adv-x="1054" d="M172 518.5q-4 18.5 2.5 38t26.5 29.5q68 35 153.5 59.5t174.5 30.5t173 -10.5t150 -65.5q23 -16 24 -34.5t-9.5 -34t-30 -25.5t-39.5 -10q-47 0 -92.5 3t-90.5 3q-98 0 -192 -10.5t-193 -16.5q-23 -2 -38 11.5t-19 32z" />
<glyph unicode="&#xae;" horiz-adv-x="1820" d="M5 130q7 153 53 302.5t122 287.5t160 253q86 115 195.5 223.5t238.5 188t272.5 121.5t296.5 24q25 -4 48.5 -7t48.5 -10q10 21 37 35t50 10t43.5 -19t39 -35.5t32.5 -39.5q98 -117 137.5 -256t36 -284.5t-42 -290t-96.5 -273.5q-59 -129 -140 -254.5t-181.5 -235.5 t-219 -198t-253.5 -143q-117 -47 -244 -53t-242.5 30.5t-207 118.5t-138.5 209q-53 143 -46 296zM179 124q-7 -142 59 -267q43 -82 117.5 -131.5t164.5 -65.5q76 -12 150.5 -1t145.5 41t136.5 72t122.5 89q29 23 55.5 47t53.5 51q-88 8 -146.5 45t-92.5 94.5t-47 129 t-11 149.5q-49 -6 -95.5 0t-84.5 29q-35 -49 -62 -99q-29 -49 -48 -101t-17 -112q0 -16 1 -30.5t-10 -30.5q-20 -23 -46.5 -21t-45.5 25q-35 43 -36 101.5t15.5 118.5t44 116.5t50.5 97.5q25 45 56.5 97.5t70.5 100.5t83 87t97 59q18 6 35.5 1t30 -17.5t16.5 -31t-4 -36.5 q-23 -47 -51.5 -89t-59.5 -83q29 2 60 0t65 -18q51 23 103.5 59.5t90.5 81.5t54.5 95t-4.5 100q-23 51 -67 72.5t-100 24.5t-119.5 -10.5t-122 -34t-107.5 -44t-78 -41.5q-113 -74 -208 -189.5t-151.5 -252t-63.5 -278.5zM600 1022q104 59 217 91t227 26q100 -4 185.5 -52.5 t126.5 -142.5q39 -92 21.5 -174t-69 -149.5t-124 -118.5t-142.5 -82q12 -41 15.5 -85t11.5 -84t26.5 -73t59.5 -47q72 -27 135.5 2t116.5 93.5t94 154.5t71 185.5t46 187.5t18 159q6 127 -26.5 245t-116.5 216q-129 39 -253 23.5t-237.5 -67.5t-216 -134t-186.5 -174z" />
<glyph unicode="&#xaf;" horiz-adv-x="716" d="M8 1398.5q-4 18.5 2.5 38t26.5 29.5q68 35 153.5 59.5t175 31t173.5 -10t149 -65.5q23 -16 24 -35t-9.5 -34t-30 -25.5t-39.5 -10.5q-47 0 -92 3t-90 3q-98 0 -192.5 -10t-192.5 -16q-23 -2 -38.5 11t-19.5 31.5z" />
<glyph unicode="&#xb0;" horiz-adv-x="421" d="M68 1038q6 68 40.5 109t82 59.5t99.5 13t96 -32t69.5 -73.5t21.5 -113q-6 -68 -40 -108.5t-81 -59t-100 -13.5t-97 32t-71 74t-20 112zM197 1028q-6 -37 18.5 -65.5t58.5 -28.5q41 -2 62.5 29.5t15.5 66.5q-6 37 -28.5 54.5t-49 17.5t-50 -18.5t-27.5 -55.5z" />
<glyph unicode="&#xb1;" horiz-adv-x="1304" d="M-334 -246.5q6 21.5 29 31.5q51 25 108.5 50.5t133 50t178 49t243.5 49.5q57 10 120 12t119 -9.5t105.5 -39t83.5 -74.5q10 -14 10.5 -29.5t-6 -29t-19.5 -22.5t-30 -11q-20 -2 -41.5 6t-42.5 12q-57 12 -115.5 16.5t-129 0.5t-160.5 -18.5t-211 -39.5 q-78 -16 -153.5 -37.5t-151.5 -44.5q-25 -6 -43.5 5.5t-25.5 31t-1 41zM8 513.5q6 21.5 29 31.5q211 102 436 157q35 66 73 130.5t83 125.5q18 25 40.5 53.5t49 53.5t55.5 44t62 28q20 6 37.5 -1.5t27.5 -22.5t11 -33.5t-11 -35.5q-12 -16 -30.5 -40.5t-44 -59.5t-57.5 -84 t-69 -117q57 8 120 9.5t119 -9t105.5 -37t83.5 -73.5q10 -14 10.5 -29.5t-6 -29t-19.5 -22.5t-30 -11q-20 -2 -41.5 6t-42.5 12q-117 23 -220 18.5t-201 -20.5q-66 -92 -112 -188.5t-81 -194.5q-12 -37 -30.5 -52.5t-36 -11t-27.5 26t-6 58.5q8 76 38.5 166t59.5 157 q-78 -18 -153.5 -38.5t-151.5 -43.5q-25 -6 -43.5 5.5t-25.5 31t-1 41z" />
<glyph unicode="&#xb2;" horiz-adv-x="927" d="M-113 528q6 55 43 80t90.5 31t114 -1t113.5 -17q119 76 203 140t155 134q66 63 126.5 134t105.5 151q12 25 25.5 52.5t20.5 58t5 60t-19 56.5q-31 49 -79 57.5t-100 -7t-100 -47.5t-79 -58q-33 -29 -64.5 -67t-52 -82t-25.5 -91t13 -92q8 -25 -2 -43.5t-28.5 -27.5 t-39 -5t-32.5 27q-45 82 -39 171t48 173t112.5 154.5t153.5 114.5t172 53.5t169 -29.5q84 -41 126 -122t34 -171q-6 -74 -37 -142.5t-77 -131t-101.5 -117t-108.5 -101.5q-72 -66 -150.5 -125t-162.5 -112q55 -10 111.5 -15.5t113.5 -1.5q61 4 107.5 24.5t93.5 57.5 q25 20 46 19.5t35.5 -15t15.5 -37t-13 -47.5q-43 -72 -117 -107.5t-151 -47.5q-86 -12 -172.5 -6t-172.5 20q-35 6 -68.5 13.5t-68.5 15.5q-37 -16 -89 -31.5t-99 -14.5t-79 25.5t-26 89.5z" />
<glyph unicode="&#xb3;" horiz-adv-x="847" d="M-70 711q-8 33 17.5 55t56.5 12q23 -8 31 -25.5t18 -35.5q37 -70 99.5 -104.5t140.5 -39.5q51 -2 126 15.5t140.5 53.5t108.5 89t30 123q-14 70 -69 111q-33 -14 -67 -25.5t-66.5 -15.5t-61 0t-51.5 20t-28 42t7 50q16 33 49 49.5t72 22.5t77 4t67 -8q39 25 73.5 52.5 t61.5 55.5q18 18 35.5 42t29 48.5t13.5 51t-11 53.5q-16 35 -47.5 49t-68.5 14t-75 -9t-67 -21q-20 -8 -51 -24.5t-56.5 -39t-41.5 -49.5t-6 -55q8 -25 -3.5 -43.5t-29.5 -25.5t-40 -3t-34 27q-27 45 -21.5 91t28 89t58.5 79t72 60q45 33 101.5 56.5t115 31.5t116 0 t108.5 -41q59 -39 94 -102.5t31 -132.5q-2 -55 -24.5 -104.5t-57.5 -90.5t-80 -73.5t-90 -59.5q29 -29 51.5 -64.5t32.5 -76.5q25 -92 -7 -175t-98 -145q-59 -55 -135 -92t-159 -53t-165.5 -8t-153.5 43t-123 97t-73 155z" />
<glyph unicode="&#xb4;" horiz-adv-x="585" d="M4 1322q-2 24 21 32q80 25 155.5 62.5t147.5 78.5q23 12 53.5 32.5t62 33t62.5 10.5t55 -33q33 -45 13.5 -80t-70.5 -62.5t-123 -46t-142.5 -30.5t-128 -17.5t-79.5 -5.5q-25 2 -27 26z" />
<glyph unicode="&#xb5;" horiz-adv-x="1357" d="M-449.5 -328.5q-1.5 15.5 1 31.5t6.5 32.5t8 28.5q18 88 49 179q47 127 122 269t164 281.5t183 267.5t178 224q41 45 84 89t96 73q35 18 65 6t45 -39t12 -59.5t-36 -55.5q-63 -43 -132.5 -125.5t-134 -179t-116 -191.5t-77.5 -163q-16 -49 -25.5 -91t-1.5 -65.5t39 -21.5 t94 43q109 74 207 167t187 192.5t170 198.5t157 185q25 27 52.5 63t59 66.5t67.5 52t79 19.5q31 -2 51.5 -24.5t18.5 -53.5q-2 -35 -16.5 -67.5t-34 -64.5t-42 -61.5t-40.5 -56.5q-53 -82 -93.5 -143.5t-71 -110.5t-54 -90t-42.5 -82q-10 -20 -23 -52t-22.5 -65.5 t-7.5 -64.5t25 -49q29 -25 63.5 -17.5t68.5 29t64.5 48t49.5 44.5q90 82 166.5 173t158.5 182q12 12 24.5 16t19.5 -1t8 -17.5t-11 -32.5q-35 -57 -80 -113.5t-80 -105.5q-37 -49 -80 -108.5t-94 -113t-108.5 -94.5t-122.5 -51q-53 -8 -98 8.5t-78 49t-50.5 78.5t-17.5 98 q0 70 21.5 139t54.5 136t73 129t76 120q18 29 38 57.5t40 56.5q-78 -100 -160.5 -215.5t-170 -227.5t-180.5 -213t-191 -173q-37 -27 -79 -40t-83 -10t-80 22.5t-65 58.5q-14 20 -25 47q-45 -84 -86 -165t-76 -167q-14 -33 -24.5 -66.5t-26.5 -66.5q-6 -12 -19.5 -22.5 t-27.5 -14.5t-28.5 1t-24.5 22q-8 12 -9.5 27.5z" />
<glyph unicode="&#xb6;" horiz-adv-x="1398" d="M6 -356q8 47 14 77q10 59 23.5 116t30.5 114q72 231 178 449t229 427q23 39 40.5 70t34.5 58.5t35.5 57t43.5 68.5l203 2l-50 -86q-186 -315 -342.5 -618t-269.5 -623q-14 -41 -25.5 -86t-27.5 -86q-8 -16 -21.5 -29.5t-30 -18.5t-31.5 1t-26 29q-16 31 -8 78zM228 663.5 q-3 61.5 31 140.5t109.5 154.5t194.5 139t283 96.5q63 12 141 22.5t155 5.5t144.5 -32t110.5 -88q20 -29 4.5 -58.5t-47.5 -33.5q-23 -2 -44.5 6t-41.5 12q-152 31 -307 12q-78 -8 -153 -22t-151 -31l-49 -12q-23 -6 -41 -40t-35.5 -81t-35 -101.5t-35 -100.5t-36.5 -78.5 t-42 -34.5q-74 -10 -113 26.5t-42 98zM398 -356q8 47 14 77q10 59 23.5 116t29.5 114q72 231 178.5 449t228.5 427q25 41 43.5 73t36 61.5t38 60.5t46.5 72l197 -4q-10 -18 -15.5 -28.5t-10.5 -18t-10 -17.5t-17 -29q-186 -315 -343 -618t-270 -623q-14 -41 -25.5 -86 t-27.5 -86q-8 -16 -21.5 -29.5t-30 -18.5t-31.5 1t-25 29q-16 31 -8 78z" />
<glyph unicode="&#xb7;" horiz-adv-x="389" d="M98 623q0 43 30 72.5t73 29.5t72.5 -29.5t29.5 -72.5t-29.5 -73t-72.5 -30t-73 30t-30 73z" />
<glyph unicode="&#xb8;" horiz-adv-x="677" d="M8 -358q8 16 23.5 23t35 7t35.5 -10q45 -29 85 -42t94 -13q27 0 68.5 4t80.5 14t68.5 30.5t33.5 53.5t-21.5 47.5t-60 19.5t-71.5 3t-57 -2q-25 -2 -39.5 9t-17.5 27.5t4 34t24 29.5q31 23 55.5 40t48 35.5t48 42t57.5 56.5q20 20 33.5 23.5t21.5 -4t8 -20.5t-8 -25 q-45 -68 -102 -134q63 -4 117.5 -27.5t82.5 -86.5q35 -80 0 -158q-25 -55 -76 -94t-114.5 -61.5t-133 -26.5t-133 11t-113.5 53t-75 100q-10 25 -2 41z" />
<glyph unicode="&#xb9;" horiz-adv-x="641" d="M168 480.5q0 21.5 6 44t10 38.5q49 190 124 340t161 289q-98 -45 -193 -59q-27 -4 -43 10t-20 33.5t5 40t34 26.5q72 18 137.5 58t124.5 83q139 104 254 226q25 25 60.5 25.5t60.5 -23.5q31 -29 22.5 -69t-33 -81t-56 -78.5t-50.5 -62.5q-55 -78 -108.5 -158t-104.5 -159 q-82 -131 -150.5 -264.5t-123.5 -276.5q-10 -29 -28.5 -47.5t-51.5 -3.5q-23 8 -30 27.5t-7 41z" />
<glyph unicode="&#xba;" horiz-adv-x="970" d="M135 743q2 84 26.5 169t53.5 153q31 72 81 153.5t109.5 158.5t126 139.5t130.5 95.5q37 18 80.5 24t89 2t87.5 -19t72 -42q70 -59 91.5 -150.5t15.5 -179.5q-10 -131 -59.5 -258t-114.5 -241q-47 -82 -121 -162t-162 -129t-186.5 -56.5t-194.5 58.5q-74 49 -100.5 124.5 t-24.5 159.5zM307 684q8 -57 49 -82q104 -66 223 17t226 288q47 92 85 188.5t48 200.5q6 61 -4 109.5t-38 78t-73 38t-104 -10.5q-111 -98 -199 -216.5t-147 -254.5q-16 -37 -36 -100t-29 -131t-1 -125z" />
<glyph unicode="&#xbb;" horiz-adv-x="1396" d="M88 248q-4 12 3 26.5t28 24.5q57 31 122.5 59.5t127 59.5t116 66.5t93.5 84.5q-10 18 -39 58.5t-59.5 83.5t-55.5 83t-29 60q-6 33 3.5 49.5t25.5 21.5t34.5 -3.5t33.5 -24.5q12 -14 47.5 -53t77.5 -82t80 -81t55 -48q23 -16 27.5 -42t-9.5 -48q-39 -57 -117 -110.5 t-170 -95.5t-183 -71t-157 -37q-23 -6 -37 0.5t-18 18.5zM477 248q-4 12 3 26.5t28 24.5q57 31 122.5 59.5t127 59.5t116 66.5t93.5 84.5q-10 18 -39 58.5t-59.5 83.5t-55.5 83t-29 60q-6 33 3.5 49.5t25.5 21.5t34.5 -3.5t33.5 -24.5q12 -14 48 -53t78 -82t79.5 -81 t54.5 -48q23 -16 28 -42t-10 -48q-39 -57 -116.5 -110.5t-170 -95.5t-183.5 -71t-157 -37q-23 -6 -37 0.5t-18 18.5z" />
<glyph unicode="&#xbc;" horiz-adv-x="1740" d="M4 275.5q0 21.5 6 44t10 38.5q49 190 124 340t161 289q-98 -45 -192 -59q-27 -4 -43.5 10t-20.5 33.5t5 40t34 26.5q72 18 137.5 58.5t124.5 83.5q139 104 254 225q25 25 60.5 26t60.5 -24q31 -29 22.5 -69t-33 -80.5t-56 -78.5t-50.5 -63q-55 -78 -108.5 -157.5 t-104.5 -159.5q-82 -131 -150.5 -264.5t-123.5 -276.5q-10 -29 -28.5 -47t-51.5 -4q-23 8 -30 27.5t-7 41zM115 -183q2 36 14 79t27.5 82.5t31 71.5t19.5 42q104 221 256.5 442.5t334 418t383 356t402.5 260.5q20 10 41 1t33 -26.5t14 -38.5t-16 -35q-207 -156 -405.5 -335 t-378 -380.5t-334 -425t-273.5 -466.5q-8 -12 -15 -34t-17.5 -41t-23.5 -34.5t-32 -15.5q-37 -2 -50 20.5t-11 58.5zM586 139q-8 37 5 78t37.5 81t54.5 75t52 59q70 78 150 143.5t159 131.5q92 74 189.5 145.5t177.5 159.5q18 18 37.5 4t9.5 -37q-41 -86 -107.5 -160 t-131.5 -141q-55 -57 -111.5 -112.5t-112.5 -110.5q-53 -53 -105 -107.5t-104 -109.5q100 16 200.5 27t201.5 20q23 45 44 88t44 86q78 143 166 280.5t192 264.5q16 18 37 19t38 -10.5t24.5 -31.5t-4.5 -43q-88 -160 -176.5 -318.5t-168.5 -322.5l136 6q29 0 44 -17.5 t14 -40t-22.5 -42t-66.5 -23.5q-41 -2 -80 -1t-82 -1l-84 -186q-16 -39 -34.5 -91.5t-34.5 -80.5q-16 -27 -47 -25t-48 27q-14 20 -10 69.5t16.5 102.5t27.5 101t24 67q-123 -8 -245 -23.5t-239 -42.5q-23 -6 -43 7.5t-24 35.5z" />
<glyph unicode="&#xbd;" horiz-adv-x="1812" d="M4 275.5q0 21.5 6 44t10 38.5q49 190 124 340t161 289q-98 -45 -192 -59q-27 -4 -43.5 10t-20.5 33.5t5 40t34 26.5q72 18 137.5 58.5t124.5 83.5q139 104 254 225q25 25 60.5 26t60.5 -24q31 -29 22.5 -69t-33 -80.5t-56 -78.5t-50.5 -63q-55 -78 -108.5 -157.5 t-104.5 -159.5q-82 -131 -150.5 -264.5t-123.5 -276.5q-10 -29 -28.5 -47t-51.5 -4q-23 8 -30 27.5t-7 41zM115 -183q2 36 14 79t27.5 82.5t31 71.5t19.5 42q104 221 256.5 442.5t334 418t383 356t402.5 260.5q20 10 41 1t33 -26.5t14 -38.5t-16 -35q-207 -156 -405.5 -335 t-378 -380.5t-334 -425t-273.5 -466.5q-8 -12 -15 -34t-17.5 -41t-23.5 -34.5t-32 -15.5q-37 -2 -50 20.5t-11 58.5zM637 -86q6 55 43 79.5t90 31t113.5 -1t113.5 -17.5q119 76 203 140.5t156 134.5q66 63 126 133.5t105 150.5q12 25 25.5 52.5t20.5 58.5t5 60.5t-18 56.5 q-31 49 -79 57t-100 -7.5t-100.5 -47t-78.5 -58.5q-33 -29 -65 -66.5t-52.5 -81.5t-25.5 -91t14 -92q8 -25 -2.5 -43.5t-29 -27.5t-39 -5.5t-32.5 26.5q-45 82 -39 171t48 173t113 155t154 115t172 53t169 -30q84 -41 126 -121.5t33 -171.5q-6 -74 -36.5 -142.5 t-76.5 -130.5t-101.5 -116.5t-108.5 -101.5q-72 -66 -151 -125t-163 -113q55 -10 111.5 -15t114.5 -1q61 4 107 24.5t93 57.5q25 20 46.5 19t36 -15t15.5 -36.5t-14 -47.5q-43 -72 -116.5 -107.5t-151.5 -48.5q-86 -12 -172 -6t-172 21q-35 6 -68.5 13t-68.5 15 q-37 -16 -89.5 -31.5t-99.5 -14.5t-78.5 25.5t-25.5 90.5z" />
<glyph unicode="&#xbe;" horiz-adv-x="2330" d="M6 506q-8 33 17.5 55.5t56.5 11.5q23 -8 31 -25.5t18 -35.5q37 -70 99.5 -104.5t140.5 -38.5q51 -2 125.5 15t140 53t108.5 89.5t31 122.5q-14 70 -69 111q-33 -14 -67 -25.5t-66.5 -15.5t-61.5 0t-51 20q-23 16 -28 42t7 50q16 33 49 49.5t72 22.5t77 4t66 -8 q39 25 74 52.5t62 56.5q18 18 35.5 41.5t28.5 48t13.5 51.5t-10.5 53q-16 35 -48 49.5t-68.5 14.5t-74.5 -9.5t-67 -21.5q-20 -8 -51 -24.5t-56.5 -39t-42 -49t-5.5 -55.5q8 -25 -3.5 -43t-30 -25.5t-40 -3.5t-33.5 27q-27 45 -21.5 91t28 89t58 79t72.5 60 q45 33 101.5 56.5t115 32t115.5 0t109 -40.5q59 -39 94 -102.5t30 -133.5q-2 -55 -24.5 -104.5t-57 -90t-79.5 -73.5t-90 -60q29 -29 51 -64.5t33 -76.5q25 -92 -7 -175t-98 -144q-59 -55 -135 -93.5t-159 -52.5t-166 -7t-153.5 42t-122.5 96.5t-73 155.5zM684 -183 q2 36 14.5 79t27.5 82.5t29.5 71.5t20.5 42q104 221 257 442.5t334 418t383 356t402 260.5q20 10 41 1t33 -26.5t14 -38.5t-16 -35q-207 -156 -405.5 -335t-377.5 -380.5t-334 -425t-273 -466.5q-8 -12 -15.5 -34t-17.5 -41t-23.5 -34.5t-32.5 -15.5q-37 -2 -50 20.5 t-11 58.5zM1176 139q-8 37 5 78t37.5 81t54.5 75t52 59q70 78 149.5 143.5t159.5 131.5q92 74 189.5 145.5t177.5 159.5q18 18 37.5 4t9.5 -37q-41 -86 -107.5 -160t-132.5 -141q-55 -57 -111.5 -112.5t-111.5 -110.5q-53 -53 -105.5 -107.5t-103.5 -109.5q100 16 200.5 27 t201.5 20q23 45 44 88t44 86q78 143 166 280.5t192 264.5q16 18 36.5 19t38 -10.5t25 -31.5t-5.5 -43q-88 -160 -176 -318.5t-168 -322.5l135 6q29 0 44.5 -17.5t14.5 -40t-22.5 -42t-66.5 -23.5q-41 -2 -80 -1t-82 -1l-84 -186q-16 -39 -34.5 -91.5t-35.5 -80.5 q-16 -27 -46.5 -25t-47.5 27q-14 20 -10 69.5t16.5 102.5t27.5 101t23 67q-123 -8 -244.5 -23.5t-238.5 -42.5q-23 -6 -43 7.5t-24 35.5z" />
<glyph unicode="&#xbf;" horiz-adv-x="894" d="M-319 150q-10 70 9 124t55 98t84 77.5t97 62.5q74 41 164 79t179 80t167 92t127 116q8 10 13.5 22t13.5 21q27 23 41 8t10 -43q-8 -55 -42 -103.5t-79 -88.5t-96 -71.5t-94 -58.5q-53 -31 -113.5 -60.5t-119 -61t-112 -69.5t-96.5 -85q-43 -49 -48 -91t22.5 -68t86 -31 t142.5 18q49 14 106.5 37.5t107.5 57.5t86 80t42 105q4 23 26 26t32 -17q23 -53 16.5 -106.5t-32 -103t-64.5 -91.5t-78 -70q-96 -72 -220 -104.5t-241 3.5q-76 25 -129 81.5t-63 134.5zM672 1298q0 43 29.5 73t72.5 30t73 -30t30 -73t-30 -72.5t-73 -29.5t-72.5 29.5 t-29.5 72.5z" />
<glyph unicode="&#xc0;" horiz-adv-x="1495" d="M6 445.5q-4 13.5 6.5 31t27.5 34.5t28 26q53 43 113.5 72.5t129.5 49.5q100 156 230.5 290t271.5 249q51 43 126 95.5t157 91t162.5 53t142.5 -18.5q74 -41 82 -112.5t-17.5 -152.5t-67.5 -157.5t-69 -126.5q-53 -96 -108.5 -188t-108.5 -186q-18 -31 -40.5 -67t-44 -75 t-38 -78.5t-22.5 -78.5q-6 -35 10 -40t39.5 4t47 24.5t34.5 21.5q125 88 222 194.5t179 216.5q18 23 33.5 8.5t11.5 -34.5q-2 -16 -11 -35.5t-17 -34.5q-39 -72 -96.5 -160t-128 -166.5t-150.5 -136t-164 -63.5q-49 -4 -86 15.5t-59.5 53t-29.5 77.5t1 91q10 53 28.5 103.5 t40.5 101.5q-25 39 -73.5 60.5t-110 29t-128 2t-128.5 -15.5q-59 -100 -106 -210.5t-47 -225.5q0 -18 1 -31.5t-14 -30.5q-20 -23 -49 -19.5t-45 30.5q-37 61 -34 142t20 146q10 41 23.5 79t29.5 77q-41 -12 -85 -25.5t-83 -13.5q-33 0 -37 13.5zM561 694q51 -2 104.5 -10 t101.5 -26.5t89 -48t68 -72.5q51 88 105 172t105.5 168t96.5 167.5t78 174.5q14 43 -8.5 48t-58.5 -5.5t-71.5 -29t-44.5 -22.5q-170 -96 -309 -232t-256 -284zM1115.5 1773.5q0.5 26.5 15 48t38 33t52.5 5.5q41 -8 69.5 -43t55.5 -64q41 -45 95 -94t101 -78 q16 -10 14.5 -33.5t-32.5 -19.5q-47 8 -104.5 27.5t-113 46t-102.5 58.5t-71 62q-18 25 -17.5 51.5z" />
<glyph unicode="&#xc1;" horiz-adv-x="1495" d="M6 445.5q-4 13.5 6.5 31t27.5 34.5t28 26q53 43 113.5 72.5t129.5 49.5q100 156 230.5 290t271.5 249q51 43 126 95.5t157 91t162.5 53t142.5 -18.5q74 -41 82 -112.5t-17.5 -152.5t-67.5 -157.5t-69 -126.5q-53 -96 -108.5 -188t-108.5 -186q-18 -31 -40.5 -67t-44 -75 t-38 -78.5t-22.5 -78.5q-6 -35 10 -40t39.5 4t47 24.5t34.5 21.5q125 88 222 194.5t179 216.5q18 23 33.5 8.5t11.5 -34.5q-2 -16 -11 -35.5t-17 -34.5q-39 -72 -96.5 -160t-128 -166.5t-150.5 -136t-164 -63.5q-49 -4 -86 15.5t-59.5 53t-29.5 77.5t1 91q10 53 28.5 103.5 t40.5 101.5q-25 39 -73.5 60.5t-110 29t-128 2t-128.5 -15.5q-59 -100 -106 -210.5t-47 -225.5q0 -18 1 -31.5t-14 -30.5q-20 -23 -49 -19.5t-45 30.5q-37 61 -34 142t20 146q10 41 23.5 79t29.5 77q-41 -12 -85 -25.5t-83 -13.5q-33 0 -37 13.5zM561 694q51 -2 104.5 -10 t101.5 -26.5t89 -48t68 -72.5q51 88 105 172t105.5 168t96.5 167.5t78 174.5q14 43 -8.5 48t-58.5 -5.5t-71.5 -29t-44.5 -22.5q-170 -96 -309 -232t-256 -284zM1118 1584.5q-2 23.5 21 31.5q80 25 155.5 62.5t147.5 78.5q23 12 53.5 32.5t62 33t62.5 10.5t55 -33 q33 -45 13.5 -79.5t-70.5 -62.5t-123 -46.5t-142.5 -30.5t-128 -18.5t-79.5 -3.5q-25 2 -27 25.5z" />
<glyph unicode="&#xc2;" horiz-adv-x="1495" d="M6 445.5q-4 13.5 6.5 31t27.5 34.5t28 26q53 43 113.5 72.5t129.5 49.5q100 156 230.5 290t271.5 249q51 43 126 95.5t157 91t162.5 53t142.5 -18.5q74 -41 82 -112.5t-17.5 -152.5t-67.5 -157.5t-69 -126.5q-53 -96 -108.5 -188t-108.5 -186q-18 -31 -40.5 -67t-44 -75 t-38 -78.5t-22.5 -78.5q-6 -35 10 -40t39.5 4t47 24.5t34.5 21.5q125 88 222 194.5t179 216.5q18 23 33.5 8.5t11.5 -34.5q-2 -16 -11 -35.5t-17 -34.5q-39 -72 -96.5 -160t-128 -166.5t-150.5 -136t-164 -63.5q-49 -4 -86 15.5t-59.5 53t-29.5 77.5t1 91q10 53 28.5 103.5 t40.5 101.5q-25 39 -73.5 60.5t-110 29t-128 2t-128.5 -15.5q-59 -100 -106 -210.5t-47 -225.5q0 -18 1 -31.5t-14 -30.5q-20 -23 -49 -19.5t-45 30.5q-37 61 -34 142t20 146q10 41 23.5 79t29.5 77q-41 -12 -85 -25.5t-83 -13.5q-33 0 -37 13.5zM561 694q51 -2 104.5 -10 t101.5 -26.5t89 -48t68 -72.5q51 88 105 172t105.5 168t96.5 167.5t78 174.5q14 43 -8.5 48t-58.5 -5.5t-71.5 -29t-44.5 -22.5q-170 -96 -309 -232t-256 -284zM1057 1553.5q0 11.5 8 21.5q37 53 89 106.5t113.5 96.5t129 72.5t135.5 35.5q27 2 47 -11t25 -48q4 -37 11 -75 t15 -75q2 -10 9.5 -29.5t12.5 -40t6 -39t-7 -28.5q-12 -12 -35 2t-47.5 42t-50 63.5t-43.5 66.5q-55 -6 -105.5 -25.5t-96.5 -46t-88 -55t-85 -55.5q-12 -8 -22.5 -6t-15.5 9t-5 18.5z" />
<glyph unicode="&#xc3;" horiz-adv-x="1495" d="M6 445.5q-4 13.5 6.5 31t27.5 34.5t28 26q53 43 113.5 72.5t129.5 49.5q100 156 230.5 290t271.5 249q51 43 126 95.5t157 91t162.5 53t142.5 -18.5q74 -41 82 -112.5t-17.5 -152.5t-67.5 -157.5t-69 -126.5q-53 -96 -108.5 -188t-108.5 -186q-18 -31 -40.5 -67t-44 -75 t-38 -78.5t-22.5 -78.5q-6 -35 10 -40t39.5 4t47 24.5t34.5 21.5q125 88 222 194.5t179 216.5q18 23 33.5 8.5t11.5 -34.5q-2 -16 -11 -35.5t-17 -34.5q-39 -72 -96.5 -160t-128 -166.5t-150.5 -136t-164 -63.5q-49 -4 -86 15.5t-59.5 53t-29.5 77.5t1 91q10 53 28.5 103.5 t40.5 101.5q-25 39 -73.5 60.5t-110 29t-128 2t-128.5 -15.5q-59 -100 -106 -210.5t-47 -225.5q0 -18 1 -31.5t-14 -30.5q-20 -23 -49 -19.5t-45 30.5q-37 61 -34 142t20 146q10 41 23.5 79t29.5 77q-41 -12 -85 -25.5t-83 -13.5q-33 0 -37 13.5zM561 694q51 -2 104.5 -10 t101.5 -26.5t89 -48t68 -72.5q51 88 105 172t105.5 168t96.5 167.5t78 174.5q14 43 -8.5 48t-58.5 -5.5t-71.5 -29t-44.5 -22.5q-170 -96 -309 -232t-256 -284zM989 1569q-4 68 23.5 118t76 79.5t107.5 37.5t119 -6q51 -12 98 -34.5t100 -26.5q59 -6 113 28q14 10 33.5 32 t36.5 26q31 4 36 -17.5t-3.5 -51.5t-23.5 -58.5t-22 -36.5q-43 -53 -109.5 -72.5t-131.5 -9.5q-55 8 -102.5 32.5t-100.5 39.5q-66 16 -114 -11.5t-81 -85.5q-10 -16 -31.5 -11t-23.5 28z" />
<glyph unicode="&#xc4;" horiz-adv-x="1495" d="M6 445.5q-4 13.5 6.5 31t27.5 34.5t28 26q53 43 113.5 72.5t129.5 49.5q100 156 230.5 290t271.5 249q51 43 126 95.5t157 91t162.5 53t142.5 -18.5q74 -41 82 -112.5t-17.5 -152.5t-67.5 -157.5t-69 -126.5q-53 -96 -108.5 -188t-108.5 -186q-18 -31 -40.5 -67t-44 -75 t-38 -78.5t-22.5 -78.5q-6 -35 10 -40t39.5 4t47 24.5t34.5 21.5q125 88 222 194.5t179 216.5q18 23 33.5 8.5t11.5 -34.5q-2 -16 -11 -35.5t-17 -34.5q-39 -72 -96.5 -160t-128 -166.5t-150.5 -136t-164 -63.5q-49 -4 -86 15.5t-59.5 53t-29.5 77.5t1 91q10 53 28.5 103.5 t40.5 101.5q-25 39 -73.5 60.5t-110 29t-128 2t-128.5 -15.5q-59 -100 -106 -210.5t-47 -225.5q0 -18 1 -31.5t-14 -30.5q-20 -23 -49 -19.5t-45 30.5q-37 61 -34 142t20 146q10 41 23.5 79t29.5 77q-41 -12 -85 -25.5t-83 -13.5q-33 0 -37 13.5zM561 694q51 -2 104.5 -10 t101.5 -26.5t89 -48t68 -72.5q51 88 105 172t105.5 168t96.5 167.5t78 174.5q14 43 -8.5 48t-58.5 -5.5t-71.5 -29t-44.5 -22.5q-170 -96 -309 -232t-256 -284zM1118 1675q0 43 30 73t73 30t72.5 -30t29.5 -73t-29.5 -72.5t-72.5 -29.5t-73 29.5t-30 72.5zM1434 1688 q0 43 29.5 72.5t72.5 29.5t72.5 -29.5t29.5 -72.5t-29.5 -73t-72.5 -30t-72.5 30t-29.5 73z" />
<glyph unicode="&#xc5;" horiz-adv-x="1495" d="M6 445.5q-4 13.5 6.5 31t27.5 34.5t28 26q53 43 113.5 72.5t129.5 49.5q100 156 230.5 290t271.5 249q51 43 126 95.5t157 91t162.5 53t142.5 -18.5q74 -41 82 -112.5t-17.5 -152.5t-67.5 -157.5t-69 -126.5q-53 -96 -108.5 -188t-108.5 -186q-18 -31 -40.5 -67t-44 -75 t-38 -78.5t-22.5 -78.5q-6 -35 10 -40t39.5 4t47 24.5t34.5 21.5q125 88 222 194.5t179 216.5q18 23 33.5 8.5t11.5 -34.5q-2 -16 -11 -35.5t-17 -34.5q-39 -72 -96.5 -160t-128 -166.5t-150.5 -136t-164 -63.5q-49 -4 -86 15.5t-59.5 53t-29.5 77.5t1 91q10 53 28.5 103.5 t40.5 101.5q-25 39 -73.5 60.5t-110 29t-128 2t-128.5 -15.5q-59 -100 -106 -210.5t-47 -225.5q0 -18 1 -31.5t-14 -30.5q-20 -23 -49 -19.5t-45 30.5q-37 61 -34 142t20 146q10 41 23.5 79t29.5 77q-41 -12 -85 -25.5t-83 -13.5q-33 0 -37 13.5zM561 694q51 -2 104.5 -10 t101.5 -26.5t89 -48t68 -72.5q51 88 105 172t105.5 168t96.5 167.5t78 174.5q14 43 -8.5 48t-58.5 -5.5t-71.5 -29t-44.5 -22.5q-170 -96 -309 -232t-256 -284zM1231 1696q6 68 41 108.5t82 59t99 13.5t96 -31.5t70.5 -73.5t20.5 -113q-6 -68 -39.5 -109t-80.5 -59 t-100.5 -13t-97.5 31.5t-70.5 73.5t-20.5 113zM1358 1688q-6 -39 19.5 -69t60.5 -30q45 -2 67.5 32t16.5 71t-31 56t-52.5 18t-51 -20t-29.5 -58z" />
<glyph unicode="&#xc6;" horiz-adv-x="1968" d="M6 445.5q-4 13.5 6.5 31t27.5 34.5t28 26q53 43 113.5 72.5t129.5 49.5q100 156 230.5 290t271.5 249q51 43 126 95.5t157 91t162.5 53t142.5 -18.5q31 -16 53 -43q41 14 83 25.5t83 21.5q86 18 172 26.5t172 -1.5q35 -4 75 -11t76.5 -22.5t67.5 -38t47 -57.5 q8 -16 4 -23.5t-13 -9.5t-21.5 -1t-20.5 5q-31 12 -58.5 18.5t-62.5 6.5q-135 0 -263 -25.5t-247 -66.5l-55 -21q-16 -78 -66.5 -162t-117.5 -166q53 14 113.5 22.5t118.5 4.5t110.5 -23.5t89.5 -56.5q16 -16 6 -36.5t-31 -16.5q-61 8 -141 -3t-163 -32.5t-159.5 -48.5 t-130.5 -51q-31 -55 -56.5 -111.5t-41.5 -115.5q-31 -102 -16.5 -156.5t61.5 -74t116.5 -11.5t149.5 31q164 47 310.5 136t263.5 206q20 20 34.5 37.5t24.5 29.5q16 20 29.5 21.5t20.5 -9t7 -28t-6 -31.5q-14 -31 -40.5 -67.5t-55.5 -69.5t-54.5 -58.5l-33.5 -33.5 q-72 -72 -166 -139.5t-199.5 -116.5t-216 -68.5t-215.5 4.5q-76 18 -122 64.5t-66.5 109t-18 134t24.5 141.5q-31 33 -79 50t-106.5 21t-120 0t-118.5 -14q-59 -100 -106 -210.5t-47 -225.5q0 -18 1 -31.5t-14 -30.5q-20 -23 -49 -19.5t-45 30.5q-37 61 -34 142t20 146 q10 41 23.5 79t29.5 77q-41 -12 -85 -25.5t-83 -13.5q-33 0 -37 13.5zM561 694q96 -4 189.5 -31.5t152.5 -99.5q51 100 108.5 184t112 154t102.5 127t83 105q-84 -35 -128 -56.5t-77 -40.5q-23 -12 -42.5 -6t-31.5 21.5t-12 36t16 38.5q23 23 47.5 45.5t53.5 42.5l-9 -4 q-170 -96 -309 -232t-256 -284z" />
<glyph unicode="&#xc7;" horiz-adv-x="1114" d="M-141 -358q8 16 23.5 23t35 7t35.5 -10q45 -29 85 -42t93 -13q27 0 69 4t80.5 14t68.5 30.5t34 53.5t-21.5 47.5t-60.5 19.5t-71.5 3t-57.5 -2q-25 -2 -39 9t-17 27.5t4 34t23 29.5q31 23 55.5 40t48 35.5t48 42t57.5 56.5q20 20 33.5 23.5t22 -4t8.5 -20.5t-8 -25 q-45 -68 -103 -134q63 -4 117.5 -27.5t83.5 -86.5q35 -80 0 -158q-25 -55 -76 -94t-114.5 -61.5t-133 -26.5t-133 11t-114 53t-74.5 100q-10 25 -2 41zM6 480.5q6 72.5 25 140.5q33 123 99.5 256t159.5 248.5t207.5 201.5t243.5 113q53 10 107.5 5t101.5 -26.5t83 -59.5 t52 -95q18 -66 11.5 -137.5t-33.5 -139t-71 -126t-99 -95.5q-20 -14 -41 -9t-34 20.5t-14 37t17 39.5q41 39 66.5 91t38.5 106q20 90 8 143t-51 71.5t-97.5 6.5t-126.5 -55q-88 -53 -159.5 -134.5t-128.5 -167.5q-43 -63 -91.5 -157t-75 -194.5t-18 -196t81.5 -162.5 q41 -39 100.5 -42t122 12t121 43t99.5 50q70 37 125 78t101 84t88 87t87 89q10 10 23.5 19.5t23.5 -7.5q10 -16 -2 -44.5t-20 -43.5q-53 -90 -123 -170.5t-151 -147.5t-169 -116t-176 -73q-98 -29 -201.5 -17t-181.5 84q-55 51 -85 114.5t-40 133.5t-4 142.5z" />
<glyph unicode="&#xc8;" horiz-adv-x="1245" d="M8 526q10 31 43 65t73 64.5t82 56t73 44.5q68 104 146.5 198.5t164.5 184.5q-55 -23 -108.5 -48.5t-106.5 -54.5q-23 -12 -42.5 -6t-31.5 21.5t-12 36t16 38.5q115 119 270.5 191t315.5 106q86 18 172 26.5t172 -1.5q35 -4 75 -11t76.5 -22.5t67.5 -38t47 -57.5 q8 -16 4 -23.5t-13 -9.5t-21.5 -1t-20.5 5q-31 12 -58.5 18.5t-62.5 6.5q-135 0 -262 -26.5t-248 -65.5q-72 -86 -140.5 -169t-150.5 -196q55 16 122 28.5t133.5 12.5t127 -17.5t101.5 -60.5q16 -16 5.5 -36.5t-30.5 -16.5q-61 8 -141 -3t-163 -32.5t-160 -48.5t-130 -51 q-31 -55 -56.5 -111.5t-41.5 -115.5q-31 -102 -16.5 -156.5t61.5 -74t116.5 -11.5t149.5 31q164 47 310.5 136t263.5 206q20 20 34.5 37.5t24.5 29.5q16 20 29.5 21.5t20.5 -9t7 -28t-6 -31.5q-14 -31 -40.5 -67.5t-55.5 -69.5t-54.5 -58.5l-33.5 -33.5q-72 -72 -166 -139.5 t-199.5 -116.5t-216 -68.5t-215.5 4.5q-88 20 -136 78.5t-63.5 134.5t0 161t52.5 159q-18 -10 -48 -25.5t-57.5 -24t-43 -3t-5.5 37.5zM912.5 1767.5q0.5 26.5 15 48t38 33t52.5 4.5q41 -8 69.5 -42.5t55.5 -63.5q41 -45 95 -94t101 -78q16 -10 14.5 -33.5t-32.5 -19.5 q-47 8 -104.5 27.5t-112.5 46t-102.5 58.5t-71.5 62q-18 25 -17.5 51.5z" />
<glyph unicode="&#xc9;" horiz-adv-x="1245" d="M8 526q10 31 43 65t73 64.5t82 56t73 44.5q68 104 146.5 198.5t164.5 184.5q-55 -23 -108.5 -48.5t-106.5 -54.5q-23 -12 -42.5 -6t-31.5 21.5t-12 36t16 38.5q115 119 270.5 191t315.5 106q86 18 172 26.5t172 -1.5q35 -4 75 -11t76.5 -22.5t67.5 -38t47 -57.5 q8 -16 4 -23.5t-13 -9.5t-21.5 -1t-20.5 5q-31 12 -58.5 18.5t-62.5 6.5q-135 0 -262 -26.5t-248 -65.5q-72 -86 -140.5 -169t-150.5 -196q55 16 122 28.5t133.5 12.5t127 -17.5t101.5 -60.5q16 -16 5.5 -36.5t-30.5 -16.5q-61 8 -141 -3t-163 -32.5t-160 -48.5t-130 -51 q-31 -55 -56.5 -111.5t-41.5 -115.5q-31 -102 -16.5 -156.5t61.5 -74t116.5 -11.5t149.5 31q164 47 310.5 136t263.5 206q20 20 34.5 37.5t24.5 29.5q16 20 29.5 21.5t20.5 -9t7 -28t-6 -31.5q-14 -31 -40.5 -67.5t-55.5 -69.5t-54.5 -58.5l-33.5 -33.5q-72 -72 -166 -139.5 t-199.5 -116.5t-216 -68.5t-215.5 4.5q-88 20 -136 78.5t-63.5 134.5t0 161t52.5 159q-18 -10 -48 -25.5t-57.5 -24t-43 -3t-5.5 37.5zM786 1596.5q-2 23.5 21 31.5q80 25 155.5 63t147.5 78q23 12 53.5 33t62 33t62.5 10t55 -33q33 -45 13.5 -79.5t-70.5 -62.5t-122.5 -46 t-142.5 -30.5t-128 -17.5t-80 -5q-25 2 -27 25.5z" />
<glyph unicode="&#xca;" horiz-adv-x="1245" d="M8 526q10 31 43 65t73 64.5t82 56t73 44.5q68 104 146.5 198.5t164.5 184.5q-55 -23 -108.5 -48.5t-106.5 -54.5q-23 -12 -42.5 -6t-31.5 21.5t-12 36t16 38.5q115 119 270.5 191t315.5 106q86 18 172 26.5t172 -1.5q35 -4 75 -11t76.5 -22.5t67.5 -38t47 -57.5 q8 -16 4 -23.5t-13 -9.5t-21.5 -1t-20.5 5q-31 12 -58.5 18.5t-62.5 6.5q-135 0 -262 -26.5t-248 -65.5q-72 -86 -140.5 -169t-150.5 -196q55 16 122 28.5t133.5 12.5t127 -17.5t101.5 -60.5q16 -16 5.5 -36.5t-30.5 -16.5q-61 8 -141 -3t-163 -32.5t-160 -48.5t-130 -51 q-31 -55 -56.5 -111.5t-41.5 -115.5q-31 -102 -16.5 -156.5t61.5 -74t116.5 -11.5t149.5 31q164 47 310.5 136t263.5 206q20 20 34.5 37.5t24.5 29.5q16 20 29.5 21.5t20.5 -9t7 -28t-6 -31.5q-14 -31 -40.5 -67.5t-55.5 -69.5t-54.5 -58.5l-33.5 -33.5q-72 -72 -166 -139.5 t-199.5 -116.5t-216 -68.5t-215.5 4.5q-88 20 -136 78.5t-63.5 134.5t0 161t52.5 159q-18 -10 -48 -25.5t-57.5 -24t-43 -3t-5.5 37.5zM784.5 1582.5q0.5 11.5 8.5 21.5q37 53 89 106t113.5 96t129 73t135.5 36q27 2 47 -11.5t24 -48.5q4 -37 11.5 -74.5t15.5 -74.5 q2 -10 9 -29.5t12 -40t6 -39t-7 -28.5q-12 -12 -34.5 2t-47 41.5t-50 63.5t-44.5 67q-55 -6 -105 -25.5t-96.5 -46t-88.5 -55.5t-85 -55q-12 -8 -22 -6.5t-15.5 9t-5 19z" />
<glyph unicode="&#xcb;" horiz-adv-x="1245" d="M8 526q10 31 43 65t73 64.5t82 56t73 44.5q68 104 146.5 198.5t164.5 184.5q-55 -23 -108.5 -48.5t-106.5 -54.5q-23 -12 -42.5 -6t-31.5 21.5t-12 36t16 38.5q115 119 270.5 191t315.5 106q86 18 172 26.5t172 -1.5q35 -4 75 -11t76.5 -22.5t67.5 -38t47 -57.5 q8 -16 4 -23.5t-13 -9.5t-21.5 -1t-20.5 5q-31 12 -58.5 18.5t-62.5 6.5q-135 0 -262 -26.5t-248 -65.5q-72 -86 -140.5 -169t-150.5 -196q55 16 122 28.5t133.5 12.5t127 -17.5t101.5 -60.5q16 -16 5.5 -36.5t-30.5 -16.5q-61 8 -141 -3t-163 -32.5t-160 -48.5t-130 -51 q-31 -55 -56.5 -111.5t-41.5 -115.5q-31 -102 -16.5 -156.5t61.5 -74t116.5 -11.5t149.5 31q164 47 310.5 136t263.5 206q20 20 34.5 37.5t24.5 29.5q16 20 29.5 21.5t20.5 -9t7 -28t-6 -31.5q-14 -31 -40.5 -67.5t-55.5 -69.5t-54.5 -58.5l-33.5 -33.5q-72 -72 -166 -139.5 t-199.5 -116.5t-216 -68.5t-215.5 4.5q-88 20 -136 78.5t-63.5 134.5t0 161t52.5 159q-18 -10 -48 -25.5t-57.5 -24t-43 -3t-5.5 37.5zM786 1677q0 43 30 73t73 30t72.5 -30t29.5 -73t-29.5 -72.5t-72.5 -29.5t-73 29.5t-30 72.5zM1102 1690q0 43 29.5 72.5t72.5 29.5 t73 -29.5t30 -72.5t-30 -73t-73 -30t-72.5 30t-29.5 73z" />
<glyph unicode="&#xcc;" horiz-adv-x="1165" d="M6 10q-4 18 13.5 33.5t42 29t50 22.5t38.5 14q113 41 243 57l45 4q-23 43 -27.5 90t0.5 94t17 93.5t27 89.5q29 86 68.5 165.5t86.5 157.5q59 98 131 193.5t156 179.5q-39 -10 -79 -19.5t-81 -13.5q-16 -2 -38.5 -3t-41 3t-27.5 16.5t5 38.5q25 47 70 79t99 51.5 t110.5 32t103.5 18.5q49 8 106.5 13t114.5 2t112.5 -15.5t98.5 -40.5q20 -12 15 -35t-33 -21q-76 4 -141.5 -11t-129.5 -25q-104 -111 -196.5 -230t-169.5 -248q-47 -78 -90 -159.5t-78 -167.5q-10 -29 -27.5 -74t-29 -92t-11.5 -90t25 -68q59 -4 116.5 -18.5t104.5 -49.5 q16 -12 13 -31.5t-23 -23.5q-84 -16 -169 -26.5t-167 -17.5t-159 -11t-144 -10q-12 0 -35 -3t-47.5 -2t-44 7t-23.5 22zM890 1784q1 26 15.5 47.5t38 33t51.5 5.5q41 -8 70 -43t55 -64q41 -45 95.5 -94t101.5 -78q16 -10 14 -33.5t-33 -19.5q-47 8 -104 27.5t-112.5 46 t-102.5 58.5t-72 63q-18 25 -17 51z" />
<glyph unicode="&#xcd;" horiz-adv-x="1165" d="M6 10q-4 18 13.5 33.5t42 29t50 22.5t38.5 14q113 41 243 57l45 4q-23 43 -27.5 90t0.5 94t17 93.5t27 89.5q29 86 68.5 165.5t86.5 157.5q59 98 131 193.5t156 179.5q-39 -10 -79 -19.5t-81 -13.5q-16 -2 -38.5 -3t-41 3t-27.5 16.5t5 38.5q25 47 70 79t99 51.5 t110.5 32t103.5 18.5q49 8 106.5 13t114.5 2t112.5 -15.5t98.5 -40.5q20 -12 15 -35t-33 -21q-76 4 -141.5 -11t-129.5 -25q-104 -111 -196.5 -230t-169.5 -248q-47 -78 -90 -159.5t-78 -167.5q-10 -29 -27.5 -74t-29 -92t-11.5 -90t25 -68q59 -4 116.5 -18.5t104.5 -49.5 q16 -12 13 -31.5t-23 -23.5q-84 -16 -169 -26.5t-167 -17.5t-159 -11t-144 -10q-12 0 -35 -3t-47.5 -2t-44 7t-23.5 22zM853.5 1596.5q-2.5 23.5 20.5 31.5q80 25 156 63t148 78q23 12 53.5 33t62 33t62 10t55.5 -33q33 -45 13.5 -79.5t-70.5 -62.5t-123 -46t-142.5 -30.5 t-128 -17.5t-79.5 -5q-25 2 -27.5 25.5z" />
<glyph unicode="&#xce;" horiz-adv-x="1165" d="M6 10q-4 18 13.5 33.5t42 29t50 22.5t38.5 14q113 41 243 57l45 4q-23 43 -27.5 90t0.5 94t17 93.5t27 89.5q29 86 68.5 165.5t86.5 157.5q59 98 131 193.5t156 179.5q-39 -10 -79 -19.5t-81 -13.5q-16 -2 -38.5 -3t-41 3t-27.5 16.5t5 38.5q25 47 70 79t99 51.5 t110.5 32t103.5 18.5q49 8 106.5 13t114.5 2t112.5 -15.5t98.5 -40.5q20 -12 15 -35t-33 -21q-76 4 -141.5 -11t-129.5 -25q-104 -111 -196.5 -230t-169.5 -248q-47 -78 -90 -159.5t-78 -167.5q-10 -29 -27.5 -74t-29 -92t-11.5 -90t25 -68q59 -4 116.5 -18.5t104.5 -49.5 q16 -12 13 -31.5t-23 -23.5q-84 -16 -169 -26.5t-167 -17.5t-159 -11t-144 -10q-12 0 -35 -3t-47.5 -2t-44 7t-23.5 22zM836 1578q0 11 8 21q37 53 89 106.5t113.5 96.5t129 73t135.5 36q27 2 47 -11.5t24 -48.5q4 -37 11.5 -74.5t15.5 -74.5q2 -10 9 -29.5t12.5 -40 t6.5 -39t-7 -28.5q-12 -12 -35 2t-47.5 41.5t-50 63.5t-44.5 67q-55 -6 -105 -25.5t-96 -46.5t-88 -55.5t-85 -55.5q-12 -8 -22.5 -6t-15.5 9.5t-5 18.5z" />
<glyph unicode="&#xcf;" horiz-adv-x="1165" d="M6 10q-4 18 13.5 33.5t42 29t50 22.5t38.5 14q113 41 243 57l45 4q-23 43 -27.5 90t0.5 94t17 93.5t27 89.5q29 86 68.5 165.5t86.5 157.5q59 98 131 193.5t156 179.5q-39 -10 -79 -19.5t-81 -13.5q-16 -2 -38.5 -3t-41 3t-27.5 16.5t5 38.5q25 47 70 79t99 51.5 t110.5 32t103.5 18.5q49 8 106.5 13t114.5 2t112.5 -15.5t98.5 -40.5q20 -12 15 -35t-33 -21q-76 4 -141.5 -11t-129.5 -25q-104 -111 -196.5 -230t-169.5 -248q-47 -78 -90 -159.5t-78 -167.5q-10 -29 -27.5 -74t-29 -92t-11.5 -90t25 -68q59 -4 116.5 -18.5t104.5 -49.5 q16 -12 13 -31.5t-23 -23.5q-84 -16 -169 -26.5t-167 -17.5t-159 -11t-144 -10q-12 0 -35 -3t-47.5 -2t-44 7t-23.5 22zM924 1681q0 43 29.5 73t72.5 30t72.5 -30t29.5 -73t-29.5 -72.5t-72.5 -29.5t-72.5 29.5t-29.5 72.5zM1239 1694q0 43 29.5 72.5t72.5 29.5t73 -29.5 t30 -72.5t-30 -73t-73 -30t-72.5 30t-29.5 73z" />
<glyph unicode="&#xd0;" horiz-adv-x="1263" d="M-35 567.5q-4 18.5 2.5 38t26.5 29.5q68 35 153.5 59.5t175 30.5t173.5 -10.5t149 -65.5q23 -16 24 -34.5t-9.5 -34t-30 -25.5t-39.5 -10q-47 0 -92 3t-90 3q-98 0 -192.5 -10.5t-192.5 -16.5q-23 -2 -38.5 11.5t-19.5 32zM8 164q-10 59 5.5 122.5t44 124t65.5 117 t70 101.5q72 100 156.5 190t176.5 174q23 20 42.5 18.5t30.5 -15t12 -36t-13 -45.5q-41 -59 -97.5 -132.5t-113.5 -156.5t-109.5 -171t-84.5 -176q-31 -80 1.5 -100.5t106.5 -6.5q63 12 124.5 41t118 66.5t106.5 82t93 84.5q55 55 110.5 121t100.5 138.5t73 151.5t32 161 q4 74 -28 140.5t-103 94.5q-76 29 -160 18t-158 -38q-68 -23 -136 -58.5t-129.5 -81.5t-112 -102.5t-82.5 -122.5q-12 -23 -33 -27.5t-39.5 2.5t-30.5 24t-6 42q25 104 92.5 191.5t156.5 155t192.5 113.5t201.5 67q55 12 113.5 14t115 -8t108.5 -34t95 -67 q88 -86 109.5 -204.5t-4.5 -235.5q-25 -113 -80.5 -218t-129 -200.5t-162.5 -177.5t-181 -145q-47 -31 -97.5 -60.5t-103.5 -52t-109.5 -36t-113.5 -11.5q-39 0 -78 10t-72 29.5t-56.5 50.5t-29.5 74z" />
<glyph unicode="&#xd1;" horiz-adv-x="1646" d="M8 174q12 74 40 146.5t61.5 140t60.5 119.5q86 160 184.5 312t214.5 294q31 37 78 93t103.5 100t117 64.5t117.5 -11.5q27 -16 39 -39t17.5 -50.5t2 -56.5t-7.5 -55q-33 -174 -90 -359.5t-96 -365.5q-8 -33 -17.5 -81t-14.5 -95t-5 -87t12.5 -58.5t39 -8.5t73.5 64 q66 74 118 143.5t97 140.5q57 88 122.5 197.5t126 224.5t107.5 227.5t70 206.5q4 16 13.5 33t22.5 26t29.5 7t34.5 -21q12 -14 17.5 -34.5t5.5 -43t-4 -45t-6 -40.5q-23 -139 -75 -255t-112 -233q-61 -121 -130.5 -235.5t-147.5 -225.5q-33 -45 -73 -98t-87 -100t-100.5 -82 t-112.5 -41q-39 -4 -72.5 7t-59.5 33.5t-44.5 53.5t-24.5 68q-14 74 -11 149.5t17.5 151t34 148.5t37.5 140l82 299q14 51 24.5 90t8.5 55.5t-21.5 6.5t-64.5 -59q-129 -137 -228.5 -292t-189.5 -308q-53 -92 -103.5 -185.5t-91.5 -191.5q-10 -25 -17 -49.5t-11 -49.5 t-17.5 -41t-31 -21t-33 5t-23.5 37q-18 61 -6 135zM932 1599q-4 68 23.5 118t75.5 80t107.5 38t118.5 -6q51 -12 98.5 -34.5t100.5 -27.5q59 -6 113 29q14 10 33.5 31.5t35.5 25.5q31 4 36 -17t-3 -51t-23.5 -58.5t-21.5 -36.5q-43 -53 -109.5 -73t-132.5 -9 q-55 8 -102 32.5t-100 38.5q-66 16 -114 -11.5t-81 -84.5q-10 -16 -31.5 -11.5t-23.5 27.5z" />
<glyph unicode="&#xd2;" horiz-adv-x="1271" d="M12 287q-18 109 3.5 220t66.5 219t107.5 206t127.5 178q53 66 124 132.5t152 117.5t171 77.5t180 10.5q12 15 39 27q37 14 68.5 -2.5t58.5 -46t46.5 -66.5t29.5 -62q37 -96 38 -198.5t-23.5 -203.5t-67.5 -198.5t-93 -179.5q-49 -80 -109.5 -161t-134 -150.5 t-157.5 -121.5t-178 -77q-78 -18 -153 -9t-136 46t-104 97.5t-56 144.5zM184 335q4 -48 29 -87q27 -45 69 -58.5t89 -8.5t93 23.5t81 41.5q86 53 154.5 125.5t127.5 154.5q49 70 98.5 158t82 184.5t40 193.5t-29.5 183q-6 16 -19.5 33.5t-27.5 40.5q-84 16 -164 -14.5 t-151.5 -86t-132 -124t-103.5 -127.5q-59 -82 -106.5 -169t-80.5 -182q-14 -41 -27 -88t-19.5 -96t-2.5 -97zM738.5 1802.5q0.5 26.5 15 48t38 32.5t52.5 5q41 -8 69.5 -43t55.5 -63q41 -45 95 -94.5t101 -77.5q16 -10 14.5 -34t-32.5 -20q-47 8 -104.5 28t-113 46.5 t-102.5 58t-71 62.5q-18 25 -17.5 51.5z" />
<glyph unicode="&#xd3;" horiz-adv-x="1271" d="M12 287q-18 109 3.5 220t66.5 219t107.5 206t127.5 178q53 66 124 132.5t152 117.5t171 77.5t180 10.5q12 15 39 27q37 14 68.5 -2.5t58.5 -46t46.5 -66.5t29.5 -62q37 -96 38 -198.5t-23.5 -203.5t-67.5 -198.5t-93 -179.5q-49 -80 -109.5 -161t-134 -150.5 t-157.5 -121.5t-178 -77q-78 -18 -153 -9t-136 46t-104 97.5t-56 144.5zM184 335q4 -48 29 -87q27 -45 69 -58.5t89 -8.5t93 23.5t81 41.5q86 53 154.5 125.5t127.5 154.5q49 70 98.5 158t82 184.5t40 193.5t-29.5 183q-6 16 -19.5 33.5t-27.5 40.5q-84 16 -164 -14.5 t-151.5 -86t-132 -124t-103.5 -127.5q-59 -82 -106.5 -169t-80.5 -182q-14 -41 -27 -88t-19.5 -96t-2.5 -97zM716 1619q-2 24 21 32q80 25 156 62.5t147 78.5q23 12 53.5 32.5t62.5 33t62.5 10.5t55.5 -33q33 -45 13.5 -80t-71 -62.5t-123 -46t-142 -30.5t-128 -17.5 t-80.5 -5.5q-25 2 -27 26z" />
<glyph unicode="&#xd4;" horiz-adv-x="1271" d="M12 287q-18 109 3.5 220t66.5 219t107.5 206t127.5 178q53 66 124 132.5t152 117.5t171 77.5t180 10.5q12 15 39 27q37 14 68.5 -2.5t58.5 -46t46.5 -66.5t29.5 -62q37 -96 38 -198.5t-23.5 -203.5t-67.5 -198.5t-93 -179.5q-49 -80 -109.5 -161t-134 -150.5 t-157.5 -121.5t-178 -77q-78 -18 -153 -9t-136 46t-104 97.5t-56 144.5zM184 335q4 -48 29 -87q27 -45 69 -58.5t89 -8.5t93 23.5t81 41.5q86 53 154.5 125.5t127.5 154.5q49 70 98.5 158t82 184.5t40 193.5t-29.5 183q-6 16 -19.5 33.5t-27.5 40.5q-84 16 -164 -14.5 t-151.5 -86t-132 -124t-103.5 -127.5q-59 -82 -106.5 -169t-80.5 -182q-14 -41 -27 -88t-19.5 -96t-2.5 -97zM612.5 1600.5q0.5 11.5 8.5 21.5q37 53 89 106.5t113.5 96.5t129 72.5t134.5 35.5q27 2 47.5 -11t24.5 -48q4 -37 11.5 -75t15.5 -75q2 -10 9 -29.5t12 -40t6 -39 t-7 -28.5q-12 -12 -34.5 2.5t-47 42t-50 63.5t-44.5 66q-55 -6 -105.5 -25.5t-96.5 -46t-88 -55t-85 -55.5q-12 -8 -22 -6t-15.5 9t-5 18.5z" />
<glyph unicode="&#xd5;" horiz-adv-x="1271" d="M12 287q-18 109 3.5 220t66.5 219t107.5 206t127.5 178q53 66 124 132.5t152 117.5t171 77.5t180 10.5q12 15 39 27q37 14 68.5 -2.5t58.5 -46t46.5 -66.5t29.5 -62q37 -96 38 -198.5t-23.5 -203.5t-67.5 -198.5t-93 -179.5q-49 -80 -109.5 -161t-134 -150.5 t-157.5 -121.5t-178 -77q-78 -18 -153 -9t-136 46t-104 97.5t-56 144.5zM184 335q4 -48 29 -87q27 -45 69 -58.5t89 -8.5t93 23.5t81 41.5q86 53 154.5 125.5t127.5 154.5q49 70 98.5 158t82 184.5t40 193.5t-29.5 183q-6 16 -19.5 33.5t-27.5 40.5q-84 16 -164 -14.5 t-151.5 -86t-132 -124t-103.5 -127.5q-59 -82 -106.5 -169t-80.5 -182q-14 -41 -27 -88t-19.5 -96t-2.5 -97zM592 1599q-4 68 23.5 118t75.5 80t107.5 38t119.5 -6q51 -12 98 -34.5t100 -27.5q59 -6 113 29q14 10 33.5 31.5t35.5 25.5q31 4 36 -17t-3 -51t-23.5 -58.5 t-21.5 -36.5q-43 -53 -109.5 -73t-132.5 -9q-55 8 -102 32.5t-100 38.5q-66 16 -114 -11.5t-81 -84.5q-10 -16 -31.5 -11.5t-23.5 27.5z" />
<glyph unicode="&#xd6;" horiz-adv-x="1271" d="M12 287q-18 109 3.5 220t66.5 219t107.5 206t127.5 178q53 66 124 132.5t152 117.5t171 77.5t180 10.5q12 15 39 27q37 14 68.5 -2.5t58.5 -46t46.5 -66.5t29.5 -62q37 -96 38 -198.5t-23.5 -203.5t-67.5 -198.5t-93 -179.5q-49 -80 -109.5 -161t-134 -150.5 t-157.5 -121.5t-178 -77q-78 -18 -153 -9t-136 46t-104 97.5t-56 144.5zM184 335q4 -48 29 -87q27 -45 69 -58.5t89 -8.5t93 23.5t81 41.5q86 53 154.5 125.5t127.5 154.5q49 70 98.5 158t82 184.5t40 193.5t-29.5 183q-6 16 -19.5 33.5t-27.5 40.5q-84 16 -164 -14.5 t-151.5 -86t-132 -124t-103.5 -127.5q-59 -82 -106.5 -169t-80.5 -182q-14 -41 -27 -88t-19.5 -96t-2.5 -97zM702 1731q0 43 30 72.5t73 29.5t72.5 -29.5t29.5 -72.5t-29.5 -73t-72.5 -30t-73 30t-30 73zM1018 1743q0 43 29.5 72.5t72.5 29.5t73 -29.5t30 -72.5t-30 -73 t-73 -30t-72.5 30t-29.5 73z" />
<glyph unicode="&#xd7;" horiz-adv-x="1093" d="M-23 270q23 61 84.5 140t145.5 160t186.5 157t207 134.5t206.5 91t186 26.5q20 -2 29.5 -13.5t9.5 -25.5t-8 -26.5t-20 -14.5q-131 -57 -258.5 -133t-247 -164t-230 -184t-209.5 -195q-14 -14 -31.5 -15t-30.5 7t-19.5 22.5t-0.5 32.5zM322 691q-8 107 8 216 q4 33 24.5 62.5t43 44t41 9.5t20.5 -38q2 -59 5 -100t7 -80t11 -82t20 -109q10 -51 30.5 -103t47 -102.5t58.5 -96.5t67 -83q8 -8 8 -23.5t-7.5 -27.5t-22.5 -17t-34 5q-109 57 -177.5 139t-105 180.5t-44.5 205.5z" />
<glyph unicode="&#xd8;" horiz-adv-x="1271" d="M-51 -59.5q2 30.5 14 68.5t27.5 73t30 61.5t18.5 36.5q68 129 157 259t194.5 254t223 239t243.5 215t257 183t260 140q20 8 40 1t32 -22t13 -34t-15 -31q-201 -135 -393.5 -291.5t-366.5 -332.5t-324.5 -371.5t-265.5 -408.5q-8 -10 -15 -29t-16.5 -36t-22.5 -30.5 t-32 -13.5q-35 -2 -48 18.5t-11 51zM12 287q-18 109 3.5 220t66.5 219t107.5 206t127.5 178q53 66 124 132.5t152 117.5t171 77.5t180 10.5q12 15 39 27q37 14 68.5 -2.5t58.5 -46t46.5 -66.5t29.5 -62q37 -96 38 -198.5t-23.5 -203.5t-67.5 -198.5t-93 -179.5 q-49 -80 -109.5 -161t-134 -150.5t-157.5 -121.5t-178 -77q-78 -18 -153 -9t-136 46t-104 97.5t-56 144.5zM184 335q4 -48 29 -87q27 -45 69 -58.5t89 -8.5t93 23.5t81 41.5q86 53 154.5 125.5t127.5 154.5q49 70 98.5 158t82 184.5t40 193.5t-29.5 183q-6 16 -19.5 33.5 t-27.5 40.5q-84 16 -164 -14.5t-151.5 -86t-132 -124t-103.5 -127.5q-59 -82 -106.5 -169t-80.5 -182q-14 -41 -27 -88t-19.5 -96t-2.5 -97z" />
<glyph unicode="&#xd9;" horiz-adv-x="1560" d="M5 227q1 45 10.5 90t25.5 88.5t33 83.5q41 92 90 178.5t104 170.5q123 186 269 354q57 66 119.5 132.5t140.5 107.5q35 18 65.5 5.5t46 -39t11.5 -60.5t-37 -54q-53 -35 -115.5 -100.5t-123 -142t-114 -151.5t-86.5 -126q-53 -78 -102 -159t-90 -167q-10 -18 -28.5 -58 t-32 -83t-14.5 -82t26 -53q16 -10 42.5 -1t53.5 25.5t50.5 36t33.5 29.5q139 123 265 252t243 261t227.5 265t220.5 262q39 45 84 91.5t105 62.5q29 6 54.5 -9.5t33.5 -43.5q6 -27 -2 -53.5t-24.5 -51t-35 -47t-32.5 -41.5q-61 -88 -121 -176t-117 -180 q-59 -94 -114.5 -190.5t-102.5 -198.5q-12 -25 -32.5 -66t-36 -85t-19.5 -84t18 -64q25 -29 65 -15.5t81 43t77.5 64.5t53.5 51q78 74 150.5 153.5t144.5 163.5q10 12 21.5 12.5t18.5 -6t10 -18.5t-5 -24q-63 -98 -139 -188.5t-154 -180.5q-35 -39 -79 -85t-95 -81 t-107.5 -48t-113.5 13q-47 20 -71 58t-32 84.5t-3 94.5t16 91q35 133 97 257t132 243q20 35 40.5 69.5t43.5 69.5q-45 -53 -87 -108.5t-83 -110.5q-121 -162 -242 -330t-270 -305q-31 -29 -65.5 -56.5t-74.5 -47t-83 -27.5t-86 4q-53 14 -89 53t-53 90q-12 43 -11 88z M1029.5 1784q0.5 26 15 47.5t38 33t52.5 5.5q41 -8 69.5 -43t55.5 -64q41 -45 95 -94t101 -78q16 -10 14.5 -33.5t-32.5 -19.5q-47 8 -104.5 27.5t-113 46t-102.5 58.5t-71 63q-18 25 -17.5 51z" />
<glyph unicode="&#xda;" horiz-adv-x="1560" d="M5 227q1 45 10.5 90t25.5 88.5t33 83.5q41 92 90 178.5t104 170.5q123 186 269 354q57 66 119.5 132.5t140.5 107.5q35 18 65.5 5.5t46 -39t11.5 -60.5t-37 -54q-53 -35 -115.5 -100.5t-123 -142t-114 -151.5t-86.5 -126q-53 -78 -102 -159t-90 -167q-10 -18 -28.5 -58 t-32 -83t-14.5 -82t26 -53q16 -10 42.5 -1t53.5 25.5t50.5 36t33.5 29.5q139 123 265 252t243 261t227.5 265t220.5 262q39 45 84 91.5t105 62.5q29 6 54.5 -9.5t33.5 -43.5q6 -27 -2 -53.5t-24.5 -51t-35 -47t-32.5 -41.5q-61 -88 -121 -176t-117 -180 q-59 -94 -114.5 -190.5t-102.5 -198.5q-12 -25 -32.5 -66t-36 -85t-19.5 -84t18 -64q25 -29 65 -15.5t81 43t77.5 64.5t53.5 51q78 74 150.5 153.5t144.5 163.5q10 12 21.5 12.5t18.5 -6t10 -18.5t-5 -24q-63 -98 -139 -188.5t-154 -180.5q-35 -39 -79 -85t-95 -81 t-107.5 -48t-113.5 13q-47 20 -71 58t-32 84.5t-3 94.5t16 91q35 133 97 257t132 243q20 35 40.5 69.5t43.5 69.5q-45 -53 -87 -108.5t-83 -110.5q-121 -162 -242 -330t-270 -305q-31 -29 -65.5 -56.5t-74.5 -47t-83 -27.5t-86 4q-53 14 -89 53t-53 90q-12 43 -11 88z M1058 1619q-2 24 21 32q80 25 156 62.5t147 78.5q23 12 53.5 32.5t62.5 33t62.5 10.5t55.5 -33q33 -45 13.5 -80t-71 -62.5t-123 -46t-142 -30.5t-128 -17.5t-80.5 -5.5q-25 2 -27 26z" />
<glyph unicode="&#xdb;" horiz-adv-x="1560" d="M5 227q1 45 10.5 90t25.5 88.5t33 83.5q41 92 90 178.5t104 170.5q123 186 269 354q57 66 119.5 132.5t140.5 107.5q35 18 65.5 5.5t46 -39t11.5 -60.5t-37 -54q-53 -35 -115.5 -100.5t-123 -142t-114 -151.5t-86.5 -126q-53 -78 -102 -159t-90 -167q-10 -18 -28.5 -58 t-32 -83t-14.5 -82t26 -53q16 -10 42.5 -1t53.5 25.5t50.5 36t33.5 29.5q139 123 265 252t243 261t227.5 265t220.5 262q39 45 84 91.5t105 62.5q29 6 54.5 -9.5t33.5 -43.5q6 -27 -2 -53.5t-24.5 -51t-35 -47t-32.5 -41.5q-61 -88 -121 -176t-117 -180 q-59 -94 -114.5 -190.5t-102.5 -198.5q-12 -25 -32.5 -66t-36 -85t-19.5 -84t18 -64q25 -29 65 -15.5t81 43t77.5 64.5t53.5 51q78 74 150.5 153.5t144.5 163.5q10 12 21.5 12.5t18.5 -6t10 -18.5t-5 -24q-63 -98 -139 -188.5t-154 -180.5q-35 -39 -79 -85t-95 -81 t-107.5 -48t-113.5 13q-47 20 -71 58t-32 84.5t-3 94.5t16 91q35 133 97 257t132 243q20 35 40.5 69.5t43.5 69.5q-45 -53 -87 -108.5t-83 -110.5q-121 -162 -242 -330t-270 -305q-31 -29 -65.5 -56.5t-74.5 -47t-83 -27.5t-86 4q-53 14 -89 53t-53 90q-12 43 -11 88z M948 1594.5q0 11.5 8 21.5q37 53 89.5 106.5t114 96.5t129 72.5t134.5 35.5q27 2 47.5 -11t24.5 -48q4 -37 11 -75t16 -75q2 -10 9 -29.5t12 -40t6 -39t-7 -28.5q-12 -12 -34.5 2t-47 42t-50.5 63.5t-44 66.5q-55 -6 -105.5 -25.5t-96.5 -46t-88 -55.5t-85 -55 q-12 -8 -22.5 -6t-15.5 9t-5 18.5z" />
<glyph unicode="&#xdc;" horiz-adv-x="1560" d="M5 227q1 45 10.5 90t25.5 88.5t33 83.5q41 92 90 178.5t104 170.5q123 186 269 354q57 66 119.5 132.5t140.5 107.5q35 18 65.5 5.5t46 -39t11.5 -60.5t-37 -54q-53 -35 -115.5 -100.5t-123 -142t-114 -151.5t-86.5 -126q-53 -78 -102 -159t-90 -167q-10 -18 -28.5 -58 t-32 -83t-14.5 -82t26 -53q16 -10 42.5 -1t53.5 25.5t50.5 36t33.5 29.5q139 123 265 252t243 261t227.5 265t220.5 262q39 45 84 91.5t105 62.5q29 6 54.5 -9.5t33.5 -43.5q6 -27 -2 -53.5t-24.5 -51t-35 -47t-32.5 -41.5q-61 -88 -121 -176t-117 -180 q-59 -94 -114.5 -190.5t-102.5 -198.5q-12 -25 -32.5 -66t-36 -85t-19.5 -84t18 -64q25 -29 65 -15.5t81 43t77.5 64.5t53.5 51q78 74 150.5 153.5t144.5 163.5q10 12 21.5 12.5t18.5 -6t10 -18.5t-5 -24q-63 -98 -139 -188.5t-154 -180.5q-35 -39 -79 -85t-95 -81 t-107.5 -48t-113.5 13q-47 20 -71 58t-32 84.5t-3 94.5t16 91q35 133 97 257t132 243q20 35 40.5 69.5t43.5 69.5q-45 -53 -87 -108.5t-83 -110.5q-121 -162 -242 -330t-270 -305q-31 -29 -65.5 -56.5t-74.5 -47t-83 -27.5t-86 4q-53 14 -89 53t-53 90q-12 43 -11 88z M1001 1683q0 43 30 73t73 30t72.5 -30t29.5 -73t-29.5 -72.5t-72.5 -29.5t-73 29.5t-30 72.5zM1317 1696q0 43 29.5 72.5t72.5 29.5t73 -29.5t30 -72.5t-30 -73t-73 -30t-72.5 30t-29.5 73z" />
<glyph unicode="&#xdd;" horiz-adv-x="1069" d="M9 804.5q11 61.5 39 122t56 107.5q72 117 168.5 218.5t200.5 189.5q23 18 43.5 15t32.5 -19.5t13 -40t-15 -45.5q-39 -59 -84 -114.5t-86 -115.5q-45 -63 -88 -127.5t-78 -136.5q-23 -45 -34 -83t-4 -59.5t36 -24.5t88 24q117 51 215 130t195 156q135 115 250.5 221.5 t232.5 211.5q18 16 39.5 13t37 -16.5t18.5 -35t-15 -41.5q-111 -123 -210 -254t-192 -269q-53 -78 -102 -158.5t-90 -166.5q-57 -113 -96 -224.5t-23 -230.5q6 -33 -2 -46t-23.5 -12t-34 12t-32.5 26q-18 18 -30.5 46.5t-19.5 59.5t-9.5 59.5t-2.5 49.5q2 76 25 149.5 t56.5 144t76.5 138t88 131.5q-59 -47 -118.5 -91t-122.5 -85q-37 -23 -78 -45.5t-83 -32.5t-84 -5t-81 36q-55 43 -69.5 100t-3.5 118.5zM686 1553.5q-2 23.5 21 31.5q80 25 155.5 63t147.5 78q23 12 53.5 33t62 33t62.5 10t55 -33q33 -45 13.5 -79.5t-70.5 -62.5t-123 -46 t-142.5 -30.5t-128 -18.5t-79.5 -4q-25 2 -27 25.5z" />
<glyph unicode="&#xde;" horiz-adv-x="1406" d="M10 654q-10 19 0 42q29 68 80 124.5t113.5 102.5t132.5 82.5t133 65.5q125 53 256 90q33 39 74 83t86 87t90 82t86 66q20 12 40.5 8t34 -18.5t16.5 -35t-11 -38.5l-158 -195q90 0 170 -21.5t136.5 -66.5t85 -113.5t16.5 -160.5q-10 -76 -47 -142.5t-89.5 -123 t-115 -102.5t-123.5 -79q-59 -33 -134 -61.5t-154 -43t-156.5 -8t-141.5 45.5q-12 -39 -29.5 -96.5t-21.5 -143.5q0 -18 2 -46t0 -54.5t-13.5 -47t-39.5 -22.5q-33 -4 -53.5 22.5t-32 62.5t-14.5 74t-1 58q8 104 39 212t76 210t97.5 194.5t101.5 167.5q-59 -23 -120 -50 t-118 -61t-106.5 -74t-83.5 -89q-14 -20 -36 -22.5t-39.5 7t-27.5 28.5zM459 406q59 -10 117.5 -3t115 25t107.5 44t96 52q43 25 105.5 69t114.5 99.5t80 116.5t3 123q-18 43 -65.5 62.5t-103.5 23.5t-112.5 -2t-89.5 -15q-113 -147 -207.5 -293t-160.5 -302z" />
<glyph unicode="&#xdf;" horiz-adv-x="950" d="M-221 51.5q8 59.5 26.5 117.5t42 114.5t43.5 103.5q53 123 114 239.5t126 231.5q27 45 66 111.5t86 136.5t104 133.5t118.5 104t129 50t137.5 -29.5q61 -35 86 -92.5t25 -124t-20.5 -132t-49.5 -114.5q-43 -78 -108.5 -137t-145.5 -94q39 -37 58.5 -92.5t20.5 -121 t-17.5 -135t-55.5 -133.5q61 37 118.5 93.5t108 116t91.5 117.5t71 99q12 16 25.5 10t9.5 -32q-4 -23 -17.5 -50.5t-23.5 -45.5q-49 -86 -110.5 -175.5t-137 -164t-165 -124.5t-195.5 -55q-39 -8 -91 -9t-99.5 12.5t-81 44t-33.5 86.5q0 33 16.5 54t41 31.5t51 8t46.5 -16.5 q57 -41 121 -53q51 39 92 104.5t58.5 134t1 131t-77.5 95.5q-61 2 -74.5 34t6 63.5t67.5 46t110 -16.5q113 63 178 178q12 20 29.5 65.5t27.5 93.5t4 90t-41 58q-35 14 -73.5 -6t-74.5 -57t-65.5 -77t-44.5 -60q-63 -88 -137 -212t-141.5 -258t-120.5 -266.5t-76 -234.5 q-6 -31 -5 -69t-15 -66q-16 -29 -41 -37t-48.5 -2t-43 24.5t-25.5 47.5q-10 53 -2 112.5z" />
<glyph unicode="&#xe0;" d="M-142.5 240.5q7.5 58.5 25 116t40 108.5t40.5 86q82 154 202 284t269 218q63 37 135 62.5t145.5 33.5t147.5 -5.5t139 -56.5q20 -12 24.5 -32.5t-3.5 -38t-25.5 -28.5t-40.5 -5q-82 23 -160.5 14.5t-152.5 -37t-140.5 -74.5t-123.5 -100q-74 -70 -134.5 -149.5 t-113.5 -165.5q-18 -31 -38.5 -77t-35 -93t-20.5 -87t5 -58.5t43 -7t91 66.5q61 57 118.5 126t116 137.5t117 129t123.5 103.5q53 35 105.5 47t103.5 -17q25 -14 33 -40.5t-6 -51.5q-29 -51 -57.5 -101t-57.5 -102q-25 -47 -54.5 -97t-49.5 -103q-12 -35 -19.5 -58.5 t-2.5 -34t23.5 -5t55.5 27.5q94 57 174 139t152 160q25 29 47 58.5t47 58.5q6 8 18.5 15t23.5 9t16 -5t-1 -27q-10 -33 -32.5 -72t-39.5 -66q-37 -63 -92 -140t-119.5 -145.5t-134 -116.5t-135.5 -54q-59 -4 -96 14.5t-57.5 52t-24.5 77.5t6 91q18 92 60.5 182.5t95.5 174.5 q-27 -6 -64 -42t-76.5 -86.5t-80.5 -105.5t-76 -102q-29 -41 -62.5 -88t-73.5 -86t-89.5 -60.5t-106.5 -11.5q-66 12 -98.5 48t-44 85t-4 107.5zM564.5 1505.5q0.5 26.5 15 48t38 32.5t52.5 5q41 -8 69.5 -43t55.5 -63q41 -45 95 -94.5t101 -77.5q16 -10 14.5 -33.5 t-32.5 -19.5q-47 8 -104.5 27.5t-113 46t-102.5 58t-71 62.5q-18 25 -17.5 51.5z" />
<glyph unicode="&#xe1;" d="M-142.5 240.5q7.5 58.5 25 116t40 108.5t40.5 86q82 154 202 284t269 218q63 37 135 62.5t145.5 33.5t147.5 -5.5t139 -56.5q20 -12 24.5 -32.5t-3.5 -38t-25.5 -28.5t-40.5 -5q-82 23 -160.5 14.5t-152.5 -37t-140.5 -74.5t-123.5 -100q-74 -70 -134.5 -149.5 t-113.5 -165.5q-18 -31 -38.5 -77t-35 -93t-20.5 -87t5 -58.5t43 -7t91 66.5q61 57 118.5 126t116 137.5t117 129t123.5 103.5q53 35 105.5 47t103.5 -17q25 -14 33 -40.5t-6 -51.5q-29 -51 -57.5 -101t-57.5 -102q-25 -47 -54.5 -97t-49.5 -103q-12 -35 -19.5 -58.5 t-2.5 -34t23.5 -5t55.5 27.5q94 57 174 139t152 160q25 29 47 58.5t47 58.5q6 8 18.5 15t23.5 9t16 -5t-1 -27q-10 -33 -32.5 -72t-39.5 -66q-37 -63 -92 -140t-119.5 -145.5t-134 -116.5t-135.5 -54q-59 -4 -96 14.5t-57.5 52t-24.5 77.5t6 91q18 92 60.5 182.5t95.5 174.5 q-27 -6 -64 -42t-76.5 -86.5t-80.5 -105.5t-76 -102q-29 -41 -62.5 -88t-73.5 -86t-89.5 -60.5t-106.5 -11.5q-66 12 -98.5 48t-44 85t-4 107.5zM534 1322q-2 24 21 32q80 25 155.5 62.5t147.5 78.5q23 12 53.5 32.5t62.5 33t62.5 10.5t55.5 -33q33 -45 13 -80t-71 -62.5 t-122.5 -46t-142.5 -30.5t-128 -17.5t-80 -5.5q-25 2 -27 26z" />
<glyph unicode="&#xe2;" d="M-142.5 240.5q7.5 58.5 25 116t40 108.5t40.5 86q82 154 202 284t269 218q63 37 135 62.5t145.5 33.5t147.5 -5.5t139 -56.5q20 -12 24.5 -32.5t-3.5 -38t-25.5 -28.5t-40.5 -5q-82 23 -160.5 14.5t-152.5 -37t-140.5 -74.5t-123.5 -100q-74 -70 -134.5 -149.5 t-113.5 -165.5q-18 -31 -38.5 -77t-35 -93t-20.5 -87t5 -58.5t43 -7t91 66.5q61 57 118.5 126t116 137.5t117 129t123.5 103.5q53 35 105.5 47t103.5 -17q25 -14 33 -40.5t-6 -51.5q-29 -51 -57.5 -101t-57.5 -102q-25 -47 -54.5 -97t-49.5 -103q-12 -35 -19.5 -58.5 t-2.5 -34t23.5 -5t55.5 27.5q94 57 174 139t152 160q25 29 47 58.5t47 58.5q6 8 18.5 15t23.5 9t16 -5t-1 -27q-10 -33 -32.5 -72t-39.5 -66q-37 -63 -92 -140t-119.5 -145.5t-134 -116.5t-135.5 -54q-59 -4 -96 14.5t-57.5 52t-24.5 77.5t6 91q18 92 60.5 182.5t95.5 174.5 q-27 -6 -64 -42t-76.5 -86.5t-80.5 -105.5t-76 -102q-29 -41 -62.5 -88t-73.5 -86t-89.5 -60.5t-106.5 -11.5q-66 12 -98.5 48t-44 85t-4 107.5zM442.5 1303.5q0.5 11.5 8.5 21.5q37 53 89 106.5t113.5 96.5t129 72.5t135.5 35.5q27 2 47 -11t24 -48q4 -37 11.5 -75 t15.5 -75q2 -10 9 -29.5t12 -40t6 -39t-7 -28.5q-12 -12 -34.5 2.5t-47 42t-50 63.5t-44.5 66q-55 -6 -105 -25.5t-96.5 -46t-88.5 -55t-85 -55.5q-12 -8 -22 -6t-15.5 9t-5 18.5z" />
<glyph unicode="&#xe3;" d="M-142.5 240.5q7.5 58.5 25 116t40 108.5t40.5 86q82 154 202 284t269 218q63 37 135 62.5t145.5 33.5t147.5 -5.5t139 -56.5q20 -12 24.5 -32.5t-3.5 -38t-25.5 -28.5t-40.5 -5q-82 23 -160.5 14.5t-152.5 -37t-140.5 -74.5t-123.5 -100q-74 -70 -134.5 -149.5 t-113.5 -165.5q-18 -31 -38.5 -77t-35 -93t-20.5 -87t5 -58.5t43 -7t91 66.5q61 57 118.5 126t116 137.5t117 129t123.5 103.5q53 35 105.5 47t103.5 -17q25 -14 33 -40.5t-6 -51.5q-29 -51 -57.5 -101t-57.5 -102q-25 -47 -54.5 -97t-49.5 -103q-12 -35 -19.5 -58.5 t-2.5 -34t23.5 -5t55.5 27.5q94 57 174 139t152 160q25 29 47 58.5t47 58.5q6 8 18.5 15t23.5 9t16 -5t-1 -27q-10 -33 -32.5 -72t-39.5 -66q-37 -63 -92 -140t-119.5 -145.5t-134 -116.5t-135.5 -54q-59 -4 -96 14.5t-57.5 52t-24.5 77.5t6 91q18 92 60.5 182.5t95.5 174.5 q-27 -6 -64 -42t-76.5 -86.5t-80.5 -105.5t-76 -102q-29 -41 -62.5 -88t-73.5 -86t-89.5 -60.5t-106.5 -11.5q-66 12 -98.5 48t-44 85t-4 107.5zM408 1303q-4 68 23.5 117.5t75.5 79.5t107.5 38t118.5 -6q51 -12 98.5 -34.5t100.5 -27.5q59 -6 112 29q14 10 34 31.5t36 25.5 q31 4 36 -17t-3 -51t-23.5 -58.5t-21.5 -36.5q-43 -53 -109.5 -73t-132.5 -9q-55 8 -102 32.5t-101 38.5q-66 16 -113.5 -11.5t-80.5 -84.5q-10 -16 -31.5 -11t-23.5 28z" />
<glyph unicode="&#xe4;" d="M-142.5 240.5q7.5 58.5 25 116t40 108.5t40.5 86q82 154 202 284t269 218q63 37 135 62.5t145.5 33.5t147.5 -5.5t139 -56.5q20 -12 24.5 -32.5t-3.5 -38t-25.5 -28.5t-40.5 -5q-82 23 -160.5 14.5t-152.5 -37t-140.5 -74.5t-123.5 -100q-74 -70 -134.5 -149.5 t-113.5 -165.5q-18 -31 -38.5 -77t-35 -93t-20.5 -87t5 -58.5t43 -7t91 66.5q61 57 118.5 126t116 137.5t117 129t123.5 103.5q53 35 105.5 47t103.5 -17q25 -14 33 -40.5t-6 -51.5q-29 -51 -57.5 -101t-57.5 -102q-25 -47 -54.5 -97t-49.5 -103q-12 -35 -19.5 -58.5 t-2.5 -34t23.5 -5t55.5 27.5q94 57 174 139t152 160q25 29 47 58.5t47 58.5q6 8 18.5 15t23.5 9t16 -5t-1 -27q-10 -33 -32.5 -72t-39.5 -66q-37 -63 -92 -140t-119.5 -145.5t-134 -116.5t-135.5 -54q-59 -4 -96 14.5t-57.5 52t-24.5 77.5t6 91q18 92 60.5 182.5t95.5 174.5 q-27 -6 -64 -42t-76.5 -86.5t-80.5 -105.5t-76 -102q-29 -41 -62.5 -88t-73.5 -86t-89.5 -60.5t-106.5 -11.5q-66 12 -98.5 48t-44 85t-4 107.5zM561 1434q0 43 30 72.5t73 29.5t72.5 -29.5t29.5 -72.5t-29.5 -73t-72.5 -30t-73 30t-30 73zM877 1446q0 43 29.5 72.5 t72.5 29.5t72.5 -29.5t29.5 -72.5t-29.5 -73t-72.5 -30t-72.5 30t-29.5 73z" />
<glyph unicode="&#xe5;" d="M-142.5 240.5q7.5 58.5 25 116t40 108.5t40.5 86q82 154 202 284t269 218q63 37 135 62.5t145.5 33.5t147.5 -5.5t139 -56.5q20 -12 24.5 -32.5t-3.5 -38t-25.5 -28.5t-40.5 -5q-82 23 -160.5 14.5t-152.5 -37t-140.5 -74.5t-123.5 -100q-74 -70 -134.5 -149.5 t-113.5 -165.5q-18 -31 -38.5 -77t-35 -93t-20.5 -87t5 -58.5t43 -7t91 66.5q61 57 118.5 126t116 137.5t117 129t123.5 103.5q53 35 105.5 47t103.5 -17q25 -14 33 -40.5t-6 -51.5q-29 -51 -57.5 -101t-57.5 -102q-25 -47 -54.5 -97t-49.5 -103q-12 -35 -19.5 -58.5 t-2.5 -34t23.5 -5t55.5 27.5q94 57 174 139t152 160q25 29 47 58.5t47 58.5q6 8 18.5 15t23.5 9t16 -5t-1 -27q-10 -33 -32.5 -72t-39.5 -66q-37 -63 -92 -140t-119.5 -145.5t-134 -116.5t-135.5 -54q-59 -4 -96 14.5t-57.5 52t-24.5 77.5t6 91q18 92 60.5 182.5t95.5 174.5 q-27 -6 -64 -42t-76.5 -86.5t-80.5 -105.5t-76 -102q-29 -41 -62.5 -88t-73.5 -86t-89.5 -60.5t-106.5 -11.5q-66 12 -98.5 48t-44 85t-4 107.5zM647 1534q6 68 41 108.5t82 59t99.5 13.5t96.5 -31.5t69.5 -73.5t21.5 -113q-6 -68 -40 -108.5t-81 -59t-100.5 -13.5 t-97.5 31.5t-70.5 73.5t-20.5 113zM774 1526q-6 -39 19.5 -69t60.5 -30q45 -2 67.5 32t16.5 71t-30.5 56.5t-52.5 18.5t-51.5 -20.5t-29.5 -58.5z" />
<glyph unicode="&#xe6;" horiz-adv-x="2177" d="M-142.5 243.5q7.5 57.5 25 114t40 107.5t40.5 86q82 154 202 284t269 218q63 37 135 62.5t145.5 33.5t147.5 -5.5t139 -56.5q20 -12 24.5 -32.5t-3.5 -38t-25.5 -28.5t-40.5 -5q-82 23 -160.5 14.5t-152.5 -37t-140.5 -74.5t-123.5 -100q-74 -70 -134.5 -149.5 t-113.5 -165.5q-18 -31 -38.5 -77t-35 -93t-20.5 -87t5 -58.5t43 -7t91 66.5q61 57 150.5 153.5t184.5 198t185 189.5t156 131l59 -62q-66 -35 -141.5 -112.5t-156.5 -174t-162.5 -197.5t-160.5 -182t-151.5 -127t-134.5 -32q-63 14 -97 51t-45.5 86t-4 106.5zM602 280 q-8 74 4 150t41 148.5t64 134.5q37 66 85 131t106.5 121.5t125 100.5t139.5 69q84 27 172 9t146 -89q55 -72 54 -153t-38 -156.5t-98.5 -139t-124.5 -100.5q-117 -66 -235.5 -69t-235.5 42q-16 -41 -25.5 -82t-7.5 -77.5t16.5 -69t47.5 -55.5q49 -35 107.5 -41.5t117.5 7 t115.5 38t103.5 51.5q104 59 189 133t155 158q14 16 31.5 40.5t28.5 34.5q16 16 33.5 9t17.5 -31q0 -20 -18.5 -50t-28.5 -46q-35 -61 -80 -117.5t-94 -110.5q-53 -53 -114 -101t-127.5 -87t-140 -63.5t-149.5 -28.5q-98 -6 -190.5 30.5t-145.5 122.5q-39 63 -47 137z M854 582q86 -31 175 -21.5t167 60.5q16 10 43 35.5t53.5 57t48 68.5t29.5 72t0 64.5t-43 48.5q-23 12 -48.5 11t-50 -9t-47 -21.5t-40.5 -25.5q-96 -66 -168 -154t-119 -186z" />
<glyph unicode="&#xe7;" horiz-adv-x="976" d="M-248 -358q8 16 23.5 23t35 7t35.5 -10q45 -29 85 -42t94 -13q27 0 68.5 4t80.5 14t68.5 30.5t33.5 53.5t-21.5 47.5t-60 19.5t-71.5 3t-57 -2q-25 -2 -39.5 9t-17.5 27.5t4 34t24 29.5q31 23 55.5 40t48 35.5t48 42t57.5 56.5q20 20 33.5 23.5t21.5 -4t8 -20.5t-8 -25 q-45 -68 -102 -134q63 -4 117.5 -27.5t82.5 -86.5q35 -80 0 -158q-25 -55 -76 -94t-114.5 -61.5t-133 -26.5t-133 11t-113.5 53t-75 100q-10 25 -2 41zM-63 268q-12 80 2 161t45.5 158t76.5 147.5t95 131.5q47 59 116.5 124t150.5 110t167 55t166 -39q74 -45 92 -117.5 t-1.5 -148.5t-67.5 -143.5t-105 -104.5q-23 -14 -42.5 -9t-31.5 20.5t-14 37t14 39.5q20 20 39.5 48t33 59.5t20.5 64.5t1 64q-8 43 -38.5 51t-68.5 -2t-75 -31.5t-55 -36.5q-61 -47 -117.5 -108.5t-103 -132t-77 -148.5t-40.5 -153q-10 -84 17.5 -130.5t76.5 -64.5 t111.5 -12t124.5 30q147 55 275 156.5t226 224.5q10 12 24.5 35t35.5 21q16 -2 21 -11.5t3 -21.5t-8 -24.5t-10 -20.5q-35 -68 -78 -128.5t-94 -115.5q-53 -57 -115.5 -112.5t-133.5 -98.5t-147.5 -71.5t-156.5 -34.5q-66 -4 -126.5 14t-108.5 56t-79.5 91.5t-39.5 120.5z " />
<glyph unicode="&#xe8;" horiz-adv-x="1019" d="M-59.5 280q-8.5 74 4 150t41 148.5t63.5 134.5q37 66 85 131t106.5 121.5t125 100.5t140.5 69q84 27 172 9t145 -89q55 -72 54.5 -153t-37.5 -156.5t-98.5 -139t-125.5 -100.5q-117 -66 -235.5 -69t-235.5 42q-16 -41 -25 -82t-7 -77.5t16 -69t47 -55.5 q49 -35 107.5 -41.5t118 7t115.5 38t104 51.5q104 59 189 133t155 158q14 16 31.5 40.5t27.5 34.5q16 16 33.5 9t17.5 -31q0 -20 -18.5 -50t-28.5 -46q-35 -61 -80 -117.5t-94 -110.5q-53 -53 -113.5 -101t-127 -87t-140.5 -63.5t-149 -28.5q-98 -6 -190.5 30.5 t-145.5 122.5q-39 63 -47.5 137zM193 582q86 -31 175 -21.5t167 60.5q16 10 42.5 35.5t53 57t48 68.5t30 72t0 64.5t-42.5 48.5q-23 12 -48.5 11t-50 -9t-47 -21.5t-41.5 -25.5q-96 -66 -167.5 -154t-118.5 -186zM468 1505.5q1 26.5 15.5 48t38 32.5t51.5 5q41 -8 70 -43 t55 -63q41 -45 95.5 -94.5t101.5 -77.5q16 -10 14.5 -33.5t-32.5 -19.5q-47 8 -104.5 27.5t-113 46t-102.5 58t-72 62.5q-18 25 -17 51.5z" />
<glyph unicode="&#xe9;" horiz-adv-x="1019" d="M-59.5 280q-8.5 74 4 150t41 148.5t63.5 134.5q37 66 85 131t106.5 121.5t125 100.5t140.5 69q84 27 172 9t145 -89q55 -72 54.5 -153t-37.5 -156.5t-98.5 -139t-125.5 -100.5q-117 -66 -235.5 -69t-235.5 42q-16 -41 -25 -82t-7 -77.5t16 -69t47 -55.5 q49 -35 107.5 -41.5t118 7t115.5 38t104 51.5q104 59 189 133t155 158q14 16 31.5 40.5t27.5 34.5q16 16 33.5 9t17.5 -31q0 -20 -18.5 -50t-28.5 -46q-35 -61 -80 -117.5t-94 -110.5q-53 -53 -113.5 -101t-127 -87t-140.5 -63.5t-149 -28.5q-98 -6 -190.5 30.5 t-145.5 122.5q-39 63 -47.5 137zM193 582q86 -31 175 -21.5t167 60.5q16 10 42.5 35.5t53 57t48 68.5t30 72t0 64.5t-42.5 48.5q-23 12 -48.5 11t-50 -9t-47 -21.5t-41.5 -25.5q-96 -66 -167.5 -154t-118.5 -186zM430 1322q-2 24 21 32q80 25 155.5 62.5t147.5 78.5 q23 12 53.5 32.5t62 33t62.5 10.5t55 -33q33 -45 13.5 -80t-70.5 -62.5t-123 -46t-142.5 -30.5t-128 -17.5t-79.5 -5.5q-25 2 -27 26z" />
<glyph unicode="&#xea;" horiz-adv-x="1019" d="M-59.5 280q-8.5 74 4 150t41 148.5t63.5 134.5q37 66 85 131t106.5 121.5t125 100.5t140.5 69q84 27 172 9t145 -89q55 -72 54.5 -153t-37.5 -156.5t-98.5 -139t-125.5 -100.5q-117 -66 -235.5 -69t-235.5 42q-16 -41 -25 -82t-7 -77.5t16 -69t47 -55.5 q49 -35 107.5 -41.5t118 7t115.5 38t104 51.5q104 59 189 133t155 158q14 16 31.5 40.5t27.5 34.5q16 16 33.5 9t17.5 -31q0 -20 -18.5 -50t-28.5 -46q-35 -61 -80 -117.5t-94 -110.5q-53 -53 -113.5 -101t-127 -87t-140.5 -63.5t-149 -28.5q-98 -6 -190.5 30.5 t-145.5 122.5q-39 63 -47.5 137zM193 582q86 -31 175 -21.5t167 60.5q16 10 42.5 35.5t53 57t48 68.5t30 72t0 64.5t-42.5 48.5q-23 12 -48.5 11t-50 -9t-47 -21.5t-41.5 -25.5q-96 -66 -167.5 -154t-118.5 -186zM375 1303.5q0 11.5 8 21.5q37 53 89 106.5t113.5 96.5 t129 72.5t135.5 35.5q27 2 47.5 -11t24.5 -48q4 -37 11 -75t15 -75q2 -10 9.5 -29.5t12.5 -40t6 -39t-7 -28.5q-12 -12 -35 2.5t-47.5 42t-50 63.5t-43.5 66q-55 -6 -105.5 -25.5t-96.5 -46t-88 -55t-85 -55.5q-12 -8 -22.5 -6t-15.5 9t-5 18.5z" />
<glyph unicode="&#xeb;" horiz-adv-x="1019" d="M-59.5 280q-8.5 74 4 150t41 148.5t63.5 134.5q37 66 85 131t106.5 121.5t125 100.5t140.5 69q84 27 172 9t145 -89q55 -72 54.5 -153t-37.5 -156.5t-98.5 -139t-125.5 -100.5q-117 -66 -235.5 -69t-235.5 42q-16 -41 -25 -82t-7 -77.5t16 -69t47 -55.5 q49 -35 107.5 -41.5t118 7t115.5 38t104 51.5q104 59 189 133t155 158q14 16 31.5 40.5t27.5 34.5q16 16 33.5 9t17.5 -31q0 -20 -18.5 -50t-28.5 -46q-35 -61 -80 -117.5t-94 -110.5q-53 -53 -113.5 -101t-127 -87t-140.5 -63.5t-149 -28.5q-98 -6 -190.5 30.5 t-145.5 122.5q-39 63 -47.5 137zM193 582q86 -31 175 -21.5t167 60.5q16 10 42.5 35.5t53 57t48 68.5t30 72t0 64.5t-42.5 48.5q-23 12 -48.5 11t-50 -9t-47 -21.5t-41.5 -25.5q-96 -66 -167.5 -154t-118.5 -186zM428 1434q0 43 29.5 72.5t72.5 29.5t73 -29.5t30 -72.5 t-30 -73t-73 -30t-72.5 30t-29.5 73zM743 1446q0 43 30 72.5t73 29.5t72.5 -29.5t29.5 -72.5t-29.5 -73t-72.5 -30t-73 30t-30 73z" />
<glyph unicode="&#xec;" horiz-adv-x="581" d="M-168 244.5q8 70.5 38 141.5t60 124q35 63 85.5 126.5t97.5 126t85 123t50 118.5q8 43 38.5 58t62.5 8t53.5 -33.5t13.5 -67.5q-12 -51 -42 -104.5t-66 -104.5t-72.5 -99.5t-65.5 -91.5q-23 -33 -57.5 -89t-63.5 -117.5t-39 -116.5t19 -86q27 -27 75 -9.5t106 62.5 t120.5 106.5t117 121t95.5 106.5t55 65q12 12 21.5 13.5t15.5 -6t8 -18.5t-4 -21q-12 -25 -33.5 -54.5t-40.5 -52.5q-78 -94 -153.5 -189.5t-150.5 -166t-152.5 -101t-159.5 3.5q-78 33 -101.5 93.5t-15.5 131zM171 1489.5q1 26.5 15.5 48t38 32.5t51.5 5q41 -8 70 -43 t55 -64q41 -45 95.5 -94t101.5 -78q16 -10 14.5 -33.5t-32.5 -19.5q-47 8 -104.5 27.5t-113 46t-102.5 58.5t-72 63q-18 25 -17 51.5z" />
<glyph unicode="&#xed;" horiz-adv-x="581" d="M-168 244.5q8 70.5 38 141.5t60 124q35 63 85.5 126.5t97.5 126t85 123t50 118.5q8 43 38.5 58t62.5 8t53.5 -33.5t13.5 -67.5q-12 -51 -42 -104.5t-66 -104.5t-72.5 -99.5t-65.5 -91.5q-23 -33 -57.5 -89t-63.5 -117.5t-39 -116.5t19 -86q27 -27 75 -9.5t106 62.5 t120.5 106.5t117 121t95.5 106.5t55 65q12 12 21.5 13.5t15.5 -6t8 -18.5t-4 -21q-12 -25 -33.5 -54.5t-40.5 -52.5q-78 -94 -153.5 -189.5t-150.5 -166t-152.5 -101t-159.5 3.5q-78 33 -101.5 93.5t-15.5 131zM198 1316q-2 24 21 32q80 25 156 62.5t147 78.5 q23 12 53.5 32.5t62.5 33t62.5 10.5t55.5 -33q33 -45 13.5 -80t-71 -62.5t-123 -46t-142.5 -31t-128 -18.5t-80 -4q-25 2 -27 26z" />
<glyph unicode="&#xee;" horiz-adv-x="581" d="M-168 244.5q8 70.5 38 141.5t60 124q35 63 85.5 126.5t97.5 126t85 123t50 118.5q8 43 38.5 58t62.5 8t53.5 -33.5t13.5 -67.5q-12 -51 -42 -104.5t-66 -104.5t-72.5 -99.5t-65.5 -91.5q-23 -33 -57.5 -89t-63.5 -117.5t-39 -116.5t19 -86q27 -27 75 -9.5t106 62.5 t120.5 106.5t117 121t95.5 106.5t55 65q12 12 21.5 13.5t15.5 -6t8 -18.5t-4 -21q-12 -25 -33.5 -54.5t-40.5 -52.5q-78 -94 -153.5 -189.5t-150.5 -166t-152.5 -101t-159.5 3.5q-78 33 -101.5 93.5t-15.5 131zM123 1262.5q0 11.5 8 21.5q37 53 89 106.5t113.5 96.5 t129 72.5t135.5 35.5q27 2 47.5 -11t24.5 -48q4 -37 11 -75t15 -75q2 -10 9.5 -29.5t12.5 -40t6 -38.5t-7 -29q-12 -12 -35 2.5t-47.5 42t-50 63.5t-43.5 66q-55 -6 -105.5 -25.5t-96.5 -46t-88 -55t-85 -55.5q-12 -8 -22.5 -6t-15.5 9t-5 18.5z" />
<glyph unicode="&#xef;" horiz-adv-x="581" d="M-168 244.5q8 70.5 38 141.5t60 124q35 63 85.5 126.5t97.5 126t85 123t50 118.5q8 43 38.5 58t62.5 8t53.5 -33.5t13.5 -67.5q-12 -51 -42 -104.5t-66 -104.5t-72.5 -99.5t-65.5 -91.5q-23 -33 -57.5 -89t-63.5 -117.5t-39 -116.5t19 -86q27 -27 75 -9.5t106 62.5 t120.5 106.5t117 121t95.5 106.5t55 65q12 12 21.5 13.5t15.5 -6t8 -18.5t-4 -21q-12 -25 -33.5 -54.5t-40.5 -52.5q-78 -94 -153.5 -189.5t-150.5 -166t-152.5 -101t-159.5 3.5q-78 33 -101.5 93.5t-15.5 131zM178 1386q0 43 30 73t73 30t72.5 -29.5t29.5 -73.5 q0 -43 -29.5 -72.5t-72.5 -29.5t-73 29.5t-30 72.5zM494 1399q0 43 29.5 72.5t72.5 29.5t72.5 -29.5t29.5 -72.5t-29.5 -73t-72.5 -30t-72.5 30t-29.5 73z" />
<glyph unicode="&#xf0;" horiz-adv-x="1058" d="M-66.5 302q-3.5 89 18 179t62.5 174t84 152q51 80 117 150.5t145 123.5q31 18 79 38t100.5 24t102.5 -14.5t85 -73.5q-6 49 -24.5 102t-40.5 92q-92 -12 -187 -6q-31 2 -41 10.5t-6 20.5t21.5 24.5t42.5 22.5q63 20 129 37l-17 57q-10 37 2 61.5t37 32t55.5 -5 t55.5 -49.5q10 -16 24 -47l41 20q88 51 141.5 44t59.5 -41.5t-41 -82t-156 -71.5q27 -104 41.5 -195.5t13.5 -178.5t-18.5 -174t-52.5 -181q-37 -100 -104.5 -211t-151.5 -193q84 14 153.5 63.5t131 117t116 142.5t107.5 140q25 31 42 39t23 0t3 -28.5t-17 -47.5 q-72 -125 -157 -247.5t-195 -204.5q-104 -78 -223 -107.5t-240 -9.5q-92 -16 -176 17.5t-135 119.5q-47 76 -50.5 165zM95 280.5q-3 -49.5 8.5 -89t43.5 -60.5q29 -18 65 -11t75 31.5t75.5 60.5t69.5 73t58.5 69.5t37.5 51.5q33 47 65 106t57.5 121.5t38.5 125t9 118.5 q-4 63 -34.5 96t-83.5 20q-57 -14 -109.5 -49t-98.5 -83t-85 -106.5t-72 -115.5q-12 -23 -30.5 -63.5t-37 -90t-34 -102.5t-18.5 -102.5z" />
<glyph unicode="&#xf1;" horiz-adv-x="1259" d="M-203 146q4 40 14.5 78t20.5 65q53 154 143.5 290t174.5 265q25 41 53 84t39 90q10 39 40.5 53t61.5 6t52.5 -34.5t11.5 -65.5q-12 -55 -39 -106.5t-58.5 -101.5t-65.5 -98t-65 -93q-31 -49 -68.5 -105.5t-70.5 -118.5q55 74 120.5 160t140.5 175t155 176t161 161 q37 33 87.5 66.5t102.5 51t104.5 10.5t95.5 -56q41 -47 45 -103.5t-13.5 -116t-46 -115.5t-53.5 -99q-41 -76 -88 -148t-88 -147q-8 -16 -25.5 -46t-33 -62t-21.5 -61.5t10 -47.5t39 -18.5t47.5 10t48 25.5t39.5 28q72 53 134.5 119.5t121.5 132.5q31 35 67 78.5t71 78.5 q25 25 43 12.5t4 -36.5q-23 -41 -61 -94.5t-81 -109.5t-89 -111.5t-85 -98.5q-49 -55 -113.5 -110.5t-142.5 -67.5q-88 -12 -155 41q-35 27 -50.5 62.5t-16.5 75.5t8 80t22 77q35 92 84 176t100 170q47 72 87 137t61 133q12 43 -0.5 56.5t-38 8t-59.5 -22.5t-65.5 -37.5 t-54 -37t-26.5 -18.5q-111 -84 -209 -184.5t-184 -211t-158 -229.5t-129 -237q-16 -33 -54 -37t-65 18q-27 23 -34 59.5t-3 76.5zM381 1303q-4 68 23.5 117.5t75.5 79.5t107.5 38t119.5 -6q51 -12 98 -34.5t100 -27.5q59 -6 113 29q14 10 33.5 31.5t35.5 25.5q31 4 36 -17 t-3 -51t-23.5 -58.5t-21.5 -36.5q-43 -53 -109.5 -73t-131.5 -9q-55 8 -102.5 32.5t-100.5 38.5q-66 16 -114 -11.5t-81 -84.5q-10 -16 -31.5 -11t-23.5 28z" />
<glyph unicode="&#xf2;" horiz-adv-x="999" d="M-70.5 302q-3.5 89 18 179t62.5 174t84 152q51 80 116.5 150.5t145.5 123.5q33 20 73 39t84 27t89 2t88 -33q51 -14 84 -41.5t53 -64.5q45 -8 106.5 -9.5t126 3t127 14.5t111.5 24q37 10 56.5 8.5t22.5 -12t-11 -27t-41 -30.5q-41 -23 -100.5 -44.5t-123 -38.5 t-126 -28.5t-109.5 -13.5q2 -82 -18.5 -164t-44.5 -145q-31 -74 -72 -151t-94 -147.5t-117.5 -128t-140.5 -91.5q-55 -25 -112.5 -31t-111 7t-99.5 46t-76 86q-47 76 -50.5 165zM91 280.5q-3 -49.5 8.5 -89t43.5 -60.5q29 -18 65 -11t75 31.5t75.5 60.5t69.5 73t58.5 69.5 t37.5 51.5q33 47 67 106t60.5 121.5t40 125t2.5 118.5q-45 16 -77.5 44.5t-41.5 71.5q-123 -47 -210.5 -142t-153.5 -212q-12 -23 -30.5 -63.5t-37 -90t-34 -102.5t-18.5 -102.5zM433.5 1505.5q0.5 26.5 15 48t38 32.5t52.5 5q41 -8 69.5 -43t55.5 -63q41 -45 95 -94.5 t101 -77.5q16 -10 14.5 -33.5t-32.5 -19.5q-47 8 -104.5 27.5t-113 46t-102.5 58t-71 62.5q-18 25 -17.5 51.5z" />
<glyph unicode="&#xf3;" horiz-adv-x="999" d="M-70.5 302q-3.5 89 18 179t62.5 174t84 152q51 80 116.5 150.5t145.5 123.5q33 20 73 39t84 27t89 2t88 -33q51 -14 84 -41.5t53 -64.5q45 -8 106.5 -9.5t126 3t127 14.5t111.5 24q37 10 56.5 8.5t22.5 -12t-11 -27t-41 -30.5q-41 -23 -100.5 -44.5t-123 -38.5 t-126 -28.5t-109.5 -13.5q2 -82 -18.5 -164t-44.5 -145q-31 -74 -72 -151t-94 -147.5t-117.5 -128t-140.5 -91.5q-55 -25 -112.5 -31t-111 7t-99.5 46t-76 86q-47 76 -50.5 165zM91 280.5q-3 -49.5 8.5 -89t43.5 -60.5q29 -18 65 -11t75 31.5t75.5 60.5t69.5 73t58.5 69.5 t37.5 51.5q33 47 67 106t60.5 121.5t40 125t2.5 118.5q-45 16 -77.5 44.5t-41.5 71.5q-123 -47 -210.5 -142t-153.5 -212q-12 -23 -30.5 -63.5t-37 -90t-34 -102.5t-18.5 -102.5zM442 1322q-2 24 21 32q80 25 155.5 62.5t147.5 78.5q23 12 53.5 32.5t62 33t62.5 10.5t55 -33 q33 -45 13.5 -80t-70.5 -62.5t-122.5 -46t-142.5 -30.5t-128 -17.5t-80 -5.5q-25 2 -27 26z" />
<glyph unicode="&#xf4;" horiz-adv-x="999" d="M-70.5 302q-3.5 89 18 179t62.5 174t84 152q51 80 116.5 150.5t145.5 123.5q33 20 73 39t84 27t89 2t88 -33q51 -14 84 -41.5t53 -64.5q45 -8 106.5 -9.5t126 3t127 14.5t111.5 24q37 10 56.5 8.5t22.5 -12t-11 -27t-41 -30.5q-41 -23 -100.5 -44.5t-123 -38.5 t-126 -28.5t-109.5 -13.5q2 -82 -18.5 -164t-44.5 -145q-31 -74 -72 -151t-94 -147.5t-117.5 -128t-140.5 -91.5q-55 -25 -112.5 -31t-111 7t-99.5 46t-76 86q-47 76 -50.5 165zM91 280.5q-3 -49.5 8.5 -89t43.5 -60.5q29 -18 65 -11t75 31.5t75.5 60.5t69.5 73t58.5 69.5 t37.5 51.5q33 47 67 106t60.5 121.5t40 125t2.5 118.5q-45 16 -77.5 44.5t-41.5 71.5q-123 -47 -210.5 -142t-153.5 -212q-12 -23 -30.5 -63.5t-37 -90t-34 -102.5t-18.5 -102.5zM330 1303.5q0 11.5 8 21.5q37 53 89 106.5t113.5 96.5t129 72.5t135.5 35.5q27 2 47 -11 t25 -48q4 -37 11 -75t15 -75q2 -10 9.5 -29.5t12.5 -40t6 -39t-7 -28.5q-12 -12 -35 2.5t-47.5 42t-50 63.5t-43.5 66q-55 -6 -105.5 -25.5t-96.5 -46t-88 -55t-85 -55.5q-12 -8 -22.5 -6t-15.5 9t-5 18.5z" />
<glyph unicode="&#xf5;" horiz-adv-x="999" d="M-70.5 302q-3.5 89 18 179t62.5 174t84 152q51 80 116.5 150.5t145.5 123.5q33 20 73 39t84 27t89 2t88 -33q51 -14 84 -41.5t53 -64.5q45 -8 106.5 -9.5t126 3t127 14.5t111.5 24q37 10 56.5 8.5t22.5 -12t-11 -27t-41 -30.5q-41 -23 -100.5 -44.5t-123 -38.5 t-126 -28.5t-109.5 -13.5q2 -82 -18.5 -164t-44.5 -145q-31 -74 -72 -151t-94 -147.5t-117.5 -128t-140.5 -91.5q-55 -25 -112.5 -31t-111 7t-99.5 46t-76 86q-47 76 -50.5 165zM91 280.5q-3 -49.5 8.5 -89t43.5 -60.5q29 -18 65 -11t75 31.5t75.5 60.5t69.5 73t58.5 69.5 t37.5 51.5q33 47 67 106t60.5 121.5t40 125t2.5 118.5q-45 16 -77.5 44.5t-41.5 71.5q-123 -47 -210.5 -142t-153.5 -212q-12 -23 -30.5 -63.5t-37 -90t-34 -102.5t-18.5 -102.5zM332 1303q-4 68 23.5 117.5t75.5 79.5t107.5 38t118.5 -6q51 -12 98.5 -34.5t100.5 -27.5 q59 -6 113 29q14 10 33.5 31.5t35.5 25.5q31 4 36 -17t-3 -51t-23.5 -58.5t-21.5 -36.5q-43 -53 -109.5 -73t-132.5 -9q-55 8 -102 32.5t-100 38.5q-66 16 -114 -11.5t-81 -84.5q-10 -16 -31.5 -11t-23.5 28z" />
<glyph unicode="&#xf6;" horiz-adv-x="999" d="M-70.5 302q-3.5 89 18 179t62.5 174t84 152q51 80 116.5 150.5t145.5 123.5q33 20 73 39t84 27t89 2t88 -33q51 -14 84 -41.5t53 -64.5q45 -8 106.5 -9.5t126 3t127 14.5t111.5 24q37 10 56.5 8.5t22.5 -12t-11 -27t-41 -30.5q-41 -23 -100.5 -44.5t-123 -38.5 t-126 -28.5t-109.5 -13.5q2 -82 -18.5 -164t-44.5 -145q-31 -74 -72 -151t-94 -147.5t-117.5 -128t-140.5 -91.5q-55 -25 -112.5 -31t-111 7t-99.5 46t-76 86q-47 76 -50.5 165zM91 280.5q-3 -49.5 8.5 -89t43.5 -60.5q29 -18 65 -11t75 31.5t75.5 60.5t69.5 73t58.5 69.5 t37.5 51.5q33 47 67 106t60.5 121.5t40 125t2.5 118.5q-45 16 -77.5 44.5t-41.5 71.5q-123 -47 -210.5 -142t-153.5 -212q-12 -23 -30.5 -63.5t-37 -90t-34 -102.5t-18.5 -102.5zM444 1434q0 43 30 72.5t73 29.5t72.5 -29.5t29.5 -72.5t-29.5 -73t-72.5 -30t-73 30t-30 73z M760 1446q0 43 29.5 72.5t72.5 29.5t73 -29.5t30 -72.5t-30 -73t-73 -30t-72.5 30t-29.5 73z" />
<glyph unicode="&#xf7;" horiz-adv-x="1347" d="M-23 413.5q6 20.5 29 32.5q129 66 264.5 109t276.5 72q63 12 141 22t155 5t144.5 -31.5t110.5 -87.5q20 -29 4.5 -59t-47.5 -34q-23 -2 -44.5 6.5t-41.5 12.5q-152 31 -307 12q-158 -16 -309.5 -54t-305.5 -81q-25 -6 -43 5t-25.5 30.5t-1.5 40zM289 70q0 43 29.5 72.5 t72.5 29.5t73 -29.5t30 -72.5t-30 -73t-73 -30t-72.5 30t-29.5 73zM645 932q0 43 30 72.5t73 29.5t72.5 -29.5t29.5 -72.5t-29.5 -73t-72.5 -30t-73 30t-30 73z" />
<glyph unicode="&#xf8;" horiz-adv-x="999" d="M-145.5 -214q-4.5 40 10 92t36 100.5t27.5 62.5q86 184 213 367.5t278.5 346.5t318.5 296t333 217q16 8 33.5 0t28 -22.5t11 -31t-13.5 -28.5q-170 -129 -334.5 -278.5t-314 -316.5t-277.5 -352.5t-227 -388.5q-6 -10 -13 -27.5t-14 -33.5t-18.5 -28.5t-27.5 -12.5 q-45 -2 -49.5 38zM-70.5 302q-3.5 89 18 179t62.5 174t84 152q51 80 116.5 150.5t145.5 123.5q33 20 73 39t84 27t89 2t88 -33q51 -14 84 -41.5t53 -64.5q45 -8 106.5 -9.5t126 3t127 14.5t111.5 24q37 10 56.5 8.5t22.5 -12t-11 -27t-41 -30.5q-41 -23 -100.5 -44.5 t-123 -38.5t-126 -28.5t-109.5 -13.5q2 -82 -18.5 -164t-44.5 -145q-31 -74 -72 -151t-94 -147.5t-117.5 -128t-140.5 -91.5q-55 -25 -112.5 -31t-111 7t-99.5 46t-76 86q-47 76 -50.5 165zM91 280.5q-3 -49.5 8.5 -89t43.5 -60.5q29 -18 65 -11t75 31.5t75.5 60.5t69.5 73 t58.5 69.5t37.5 51.5q33 47 67 106t60.5 121.5t40 125t2.5 118.5q-45 16 -77.5 44.5t-41.5 71.5q-123 -47 -210.5 -142t-153.5 -212q-12 -23 -30.5 -63.5t-37 -90t-34 -102.5t-18.5 -102.5z" />
<glyph unicode="&#xf9;" horiz-adv-x="1357" d="M-146 225.5q3 81.5 32.5 164.5t73.5 160t79 134q104 164 223 301q41 45 84 89t96 73q35 18 65 6t45 -39t12 -59.5t-36 -55.5q-63 -43 -132.5 -125.5t-134 -179t-116 -191.5t-77.5 -163q-16 -49 -25.5 -91t-1.5 -65.5t39 -21.5t94 43q109 74 207 167t187 192.5t170 198.5 t157 185q25 27 52.5 63t59 66.5t67.5 52t79 19.5q31 -2 51.5 -24.5t18.5 -53.5q-2 -35 -16.5 -67.5t-34 -64.5t-42 -61.5t-40.5 -56.5q-53 -82 -93.5 -143.5t-71 -110.5t-54 -90t-42.5 -82q-10 -20 -23 -52t-22.5 -65.5t-7.5 -64.5t25 -49q29 -25 63.5 -17.5t68.5 29 t64.5 48t49.5 44.5q90 82 166.5 173t158.5 182q12 12 24.5 16t19.5 -1t8 -17.5t-11 -32.5q-35 -57 -80 -113.5t-80 -105.5q-37 -49 -80 -108.5t-94 -113t-108.5 -94.5t-122.5 -51q-53 -8 -98 8.5t-78 49t-50.5 78.5t-17.5 98q0 70 21.5 139t54.5 136t73 129t76 120 q18 29 38 57.5t40 56.5q-78 -100 -160.5 -215.5t-170 -227.5t-180.5 -213t-191 -173q-37 -27 -79 -40t-83 -10t-80 22.5t-65 58.5q-47 68 -44 149.5zM622 1505.5q1 26.5 15 48t37.5 32.5t52.5 5q41 -8 69.5 -43t55.5 -63q41 -45 95 -94.5t102 -77.5q16 -10 14 -33.5 t-33 -19.5q-47 8 -104.5 27.5t-112.5 46t-102 58t-72 62.5q-18 25 -17 51.5z" />
<glyph unicode="&#xfa;" horiz-adv-x="1357" d="M-146 225.5q3 81.5 32.5 164.5t73.5 160t79 134q104 164 223 301q41 45 84 89t96 73q35 18 65 6t45 -39t12 -59.5t-36 -55.5q-63 -43 -132.5 -125.5t-134 -179t-116 -191.5t-77.5 -163q-16 -49 -25.5 -91t-1.5 -65.5t39 -21.5t94 43q109 74 207 167t187 192.5t170 198.5 t157 185q25 27 52.5 63t59 66.5t67.5 52t79 19.5q31 -2 51.5 -24.5t18.5 -53.5q-2 -35 -16.5 -67.5t-34 -64.5t-42 -61.5t-40.5 -56.5q-53 -82 -93.5 -143.5t-71 -110.5t-54 -90t-42.5 -82q-10 -20 -23 -52t-22.5 -65.5t-7.5 -64.5t25 -49q29 -25 63.5 -17.5t68.5 29 t64.5 48t49.5 44.5q90 82 166.5 173t158.5 182q12 12 24.5 16t19.5 -1t8 -17.5t-11 -32.5q-35 -57 -80 -113.5t-80 -105.5q-37 -49 -80 -108.5t-94 -113t-108.5 -94.5t-122.5 -51q-53 -8 -98 8.5t-78 49t-50.5 78.5t-17.5 98q0 70 21.5 139t54.5 136t73 129t76 120 q18 29 38 57.5t40 56.5q-78 -100 -160.5 -215.5t-170 -227.5t-180.5 -213t-191 -173q-37 -27 -79 -40t-83 -10t-80 22.5t-65 58.5q-47 68 -44 149.5zM645 1322q-2 24 21 32q80 25 155.5 62.5t147.5 78.5q23 12 53.5 32.5t62 33t62.5 10.5t55 -33q33 -45 13.5 -80 t-70.5 -62.5t-123 -46t-142.5 -30.5t-128 -17.5t-79.5 -5.5q-25 2 -27 26z" />
<glyph unicode="&#xfb;" horiz-adv-x="1357" d="M-146 225.5q3 81.5 32.5 164.5t73.5 160t79 134q104 164 223 301q41 45 84 89t96 73q35 18 65 6t45 -39t12 -59.5t-36 -55.5q-63 -43 -132.5 -125.5t-134 -179t-116 -191.5t-77.5 -163q-16 -49 -25.5 -91t-1.5 -65.5t39 -21.5t94 43q109 74 207 167t187 192.5t170 198.5 t157 185q25 27 52.5 63t59 66.5t67.5 52t79 19.5q31 -2 51.5 -24.5t18.5 -53.5q-2 -35 -16.5 -67.5t-34 -64.5t-42 -61.5t-40.5 -56.5q-53 -82 -93.5 -143.5t-71 -110.5t-54 -90t-42.5 -82q-10 -20 -23 -52t-22.5 -65.5t-7.5 -64.5t25 -49q29 -25 63.5 -17.5t68.5 29 t64.5 48t49.5 44.5q90 82 166.5 173t158.5 182q12 12 24.5 16t19.5 -1t8 -17.5t-11 -32.5q-35 -57 -80 -113.5t-80 -105.5q-37 -49 -80 -108.5t-94 -113t-108.5 -94.5t-122.5 -51q-53 -8 -98 8.5t-78 49t-50.5 78.5t-17.5 98q0 70 21.5 139t54.5 136t73 129t76 120 q18 29 38 57.5t40 56.5q-78 -100 -160.5 -215.5t-170 -227.5t-180.5 -213t-191 -173q-37 -27 -79 -40t-83 -10t-80 22.5t-65 58.5q-47 68 -44 149.5zM567 1303.5q0 11.5 8 21.5q37 53 89.5 106.5t114 96.5t129 72.5t134.5 35.5q27 2 47.5 -11t24.5 -48q4 -37 11.5 -75 t15.5 -75q2 -10 9 -29.5t12 -40t6 -39t-7 -28.5q-12 -12 -34.5 2.5t-47 42t-50 63.5t-44.5 66q-55 -6 -105.5 -25.5t-96.5 -46t-88 -55t-85 -55.5q-12 -8 -22 -6t-15.5 9t-5.5 18.5z" />
<glyph unicode="&#xfc;" horiz-adv-x="1357" d="M-146 225.5q3 81.5 32.5 164.5t73.5 160t79 134q104 164 223 301q41 45 84 89t96 73q35 18 65 6t45 -39t12 -59.5t-36 -55.5q-63 -43 -132.5 -125.5t-134 -179t-116 -191.5t-77.5 -163q-16 -49 -25.5 -91t-1.5 -65.5t39 -21.5t94 43q109 74 207 167t187 192.5t170 198.5 t157 185q25 27 52.5 63t59 66.5t67.5 52t79 19.5q31 -2 51.5 -24.5t18.5 -53.5q-2 -35 -16.5 -67.5t-34 -64.5t-42 -61.5t-40.5 -56.5q-53 -82 -93.5 -143.5t-71 -110.5t-54 -90t-42.5 -82q-10 -20 -23 -52t-22.5 -65.5t-7.5 -64.5t25 -49q29 -25 63.5 -17.5t68.5 29 t64.5 48t49.5 44.5q90 82 166.5 173t158.5 182q12 12 24.5 16t19.5 -1t8 -17.5t-11 -32.5q-35 -57 -80 -113.5t-80 -105.5q-37 -49 -80 -108.5t-94 -113t-108.5 -94.5t-122.5 -51q-53 -8 -98 8.5t-78 49t-50.5 78.5t-17.5 98q0 70 21.5 139t54.5 136t73 129t76 120 q18 29 38 57.5t40 56.5q-78 -100 -160.5 -215.5t-170 -227.5t-180.5 -213t-191 -173q-37 -27 -79 -40t-83 -10t-80 22.5t-65 58.5q-47 68 -44 149.5zM641 1434q0 43 29.5 72.5t72.5 29.5t73 -29.5t30 -72.5t-30 -73t-73 -30t-72.5 30t-29.5 73zM956 1446q0 43 30 72.5 t73 29.5t72.5 -29.5t29.5 -72.5t-29.5 -73t-72.5 -30t-73 30t-30 73z" />
<glyph unicode="&#xfd;" horiz-adv-x="1226" d="M-220 -213q5 41 26.5 77t56.5 64.5t71 44.5q78 35 164 34t168 -19q43 55 84 122.5t81 138t78 142.5t73 137q-72 -88 -147 -172t-156 -161q-27 -25 -58 -49.5t-65.5 -41t-71.5 -20.5t-74 12q-70 31 -95.5 84t-23 119t28 137.5t58 138t69.5 124t62 94.5q63 92 133.5 178 t152.5 164q31 27 64 22.5t55.5 -28t25.5 -56t-26 -61.5q-80 -78 -148.5 -168t-129.5 -185q-39 -59 -73 -119.5t-61 -125.5q-53 -135 -17 -156.5t161 80.5q106 88 200.5 183t180.5 195.5t168 203t161 204.5q25 31 58 32t57.5 -17.5t33.5 -51t-11 -65.5q-86 -133 -158 -263 t-140.5 -257t-136 -251t-143.5 -241q86 29 164 75t149 101q123 100 223.5 214t186.5 214q31 37 41 16.5t-10 -57.5q-72 -125 -163 -245.5t-201.5 -220t-238.5 -170t-272 -93.5q-33 -39 -67.5 -72.5t-71.5 -64.5q-43 -35 -108.5 -65.5t-134 -41t-129 10t-91.5 92.5 q-18 43 -13 84zM-63.5 -216q-6.5 -15 8 -22.5t55.5 5.5q20 6 44 17t44.5 24.5t37.5 25.5t28 23q-33 2 -63.5 -2.5t-63.5 -12.5q-35 -10 -59.5 -26.5t-31 -31.5zM579 1322q-2 24 21 32q80 25 155.5 62.5t147.5 78.5q23 12 53.5 32.5t62.5 33t62.5 10.5t55.5 -33 q33 -45 13 -80t-71 -62.5t-122.5 -46t-142.5 -30.5t-128 -17.5t-80 -5.5q-25 2 -27 26z" />
<glyph unicode="&#xfe;" horiz-adv-x="1052" d="M-329 -255q-1 44 9.5 92t25.5 93t26 74q68 209 163 404.5t197 388.5q57 111 115.5 218t122.5 214q18 31 37.5 68.5t43 72.5t52.5 64.5t63 46.5q37 16 66 5t43 -38t7 -60.5t-40 -62.5q-31 -27 -60.5 -65.5t-63.5 -96t-78 -137.5t-103 -186q43 68 99.5 137.5t121 117.5 t133 59t135.5 -40q68 -51 82.5 -132t0 -170t-47.5 -175t-61 -143q-37 -76 -89.5 -160t-119.5 -156q166 66 288 181.5t216 252.5q16 23 38.5 13.5t12.5 -35.5q-61 -139 -161.5 -254t-222.5 -197t-256 -122t-261 -27q-27 -6 -65 -5t-76.5 11t-71.5 31.5t-51 56.5 q-49 -125 -80 -248q-6 -31 -8.5 -63.5t-12.5 -61.5q-16 -47 -61 -59t-80 22q-27 27 -28 71zM10 248q25 -6 47.5 -19.5t44 -30t42 -30.5t42.5 -21q74 20 134.5 68.5t111.5 111t92 132t72 131.5q14 27 38.5 83t43 118.5t23 118t-20.5 77.5q-37 33 -89 11.5t-112.5 -73 t-121 -124t-112.5 -142t-89 -127t-47 -77.5q-27 -51 -51.5 -102.5t-47.5 -104.5z" />
<glyph unicode="&#xff;" horiz-adv-x="1226" d="M-220 -213q5 41 26.5 77t56.5 64.5t71 44.5q78 35 164 34t168 -19q43 55 84 122.5t81 138t78 142.5t73 137q-72 -88 -147 -172t-156 -161q-27 -25 -58 -49.5t-65.5 -41t-71.5 -20.5t-74 12q-70 31 -95.5 84t-23 119t28 137.5t58 138t69.5 124t62 94.5q63 92 133.5 178 t152.5 164q31 27 64 22.5t55.5 -28t25.5 -56t-26 -61.5q-80 -78 -148.5 -168t-129.5 -185q-39 -59 -73 -119.5t-61 -125.5q-53 -135 -17 -156.5t161 80.5q106 88 200.5 183t180.5 195.5t168 203t161 204.5q25 31 58 32t57.5 -17.5t33.5 -51t-11 -65.5q-86 -133 -158 -263 t-140.5 -257t-136 -251t-143.5 -241q86 29 164 75t149 101q123 100 223.5 214t186.5 214q31 37 41 16.5t-10 -57.5q-72 -125 -163 -245.5t-201.5 -220t-238.5 -170t-272 -93.5q-33 -39 -67.5 -72.5t-71.5 -64.5q-43 -35 -108.5 -65.5t-134 -41t-129 10t-91.5 92.5 q-18 43 -13 84zM-63.5 -216q-6.5 -15 8 -22.5t55.5 5.5q20 6 44 17t44.5 24.5t37.5 25.5t28 23q-33 2 -63.5 -2.5t-63.5 -12.5q-35 -10 -59.5 -26.5t-31 -31.5zM610 1434q0 43 30 72.5t73 29.5t72.5 -29.5t29.5 -72.5t-29.5 -73t-72.5 -30t-73 30t-30 73zM926 1446 q0 43 29.5 72.5t72.5 29.5t72.5 -29.5t29.5 -72.5t-29.5 -73t-72.5 -30t-72.5 30t-29.5 73z" />
<glyph unicode="&#x152;" horiz-adv-x="1953" d="M12 287q-18 109 3.5 220t66.5 219t107.5 206t127.5 178q53 66 124 132.5t152 117.5t171 77.5t180 10.5q12 15 39 27q37 14 68.5 -2.5t58.5 -46t46.5 -66.5t29.5 -62q37 -96 38 -198.5t-23.5 -203.5t-67.5 -198.5t-93 -179.5q-49 -80 -109.5 -161t-134 -150.5 t-157.5 -121.5t-178 -77q-78 -18 -153 -9t-136 46t-104 97.5t-56 144.5zM184 335q4 -48 29 -87q27 -45 69 -58.5t89 -8.5t93 23.5t81 41.5q86 53 154.5 125.5t127.5 154.5q49 70 98.5 158t82 184.5t40 193.5t-29.5 183q-6 16 -19.5 33.5t-27.5 40.5q-84 16 -164 -14.5 t-151.5 -86t-132 -124t-103.5 -127.5q-59 -82 -106.5 -169t-80.5 -182q-14 -41 -27 -88t-19.5 -96t-2.5 -97zM824.5 221q-15.5 76 0 161t52.5 159q78 131 138 225t110.5 161.5t93.5 117t86 94.5q-55 -23 -108.5 -48.5t-106.5 -54.5q-23 -12 -42.5 -6t-31.5 21.5t-12 36 t16 38.5q115 119 270.5 191t315.5 106q86 18 172 26.5t172 -1.5q35 -4 74.5 -11t76.5 -22.5t68 -38t47 -57.5q8 -16 4 -23.5t-13 -9.5t-21.5 -1t-20.5 5q-31 12 -58.5 18.5t-62.5 6.5q-135 0 -262 -26.5t-248 -65.5q-72 -86 -140.5 -169t-150.5 -196q55 16 122 28.5 t133.5 12.5t127 -17.5t100.5 -60.5q16 -16 6 -36.5t-30 -16.5q-61 8 -141 -3t-163 -32.5t-160 -48.5t-130 -51q-31 -55 -56.5 -111.5t-41.5 -115.5q-31 -102 -16.5 -156.5t61.5 -74t116.5 -11.5t149.5 31q164 47 310.5 136t262.5 206q20 20 35 37.5t25 29.5q16 20 29.5 21.5 t20.5 -9t7 -28t-6 -31.5q-14 -31 -41 -67.5t-55.5 -69.5t-54 -58.5l-33.5 -33.5q-72 -72 -166 -139.5t-199.5 -116.5t-216.5 -68.5t-215 4.5q-88 20 -136 78.5t-63.5 134.5z" />
<glyph unicode="&#x153;" horiz-adv-x="1660" d="M-70.5 302q-3.5 89 18 179t62.5 174t84 152q51 80 116.5 150.5t145.5 123.5q68 43 155 59.5t164 -6t131 -89t60 -189.5q4 -82 -17.5 -164t-45.5 -145q-31 -74 -72 -151t-94 -147.5t-117.5 -128t-140.5 -91.5q-55 -25 -112.5 -31t-111 7t-99.5 46t-76 86q-47 76 -50.5 165 zM91 280.5q-3 -49.5 8.5 -89t43.5 -60.5q29 -18 65 -11t75 31.5t75.5 60.5t69.5 73t58.5 69.5t37.5 51.5q33 47 68 106t60.5 121.5t39 125t2.5 118.5q-12 57 -38.5 81.5t-61.5 24.5t-77 -21.5t-83 -54.5q-72 -59 -133 -137t-90 -131q-12 -23 -30.5 -63.5t-37 -90t-34 -102.5 t-18.5 -102.5zM586 280q-8 74 4 150t40.5 148.5t63.5 134.5q37 66 85 131t106.5 121.5t125 100.5t140.5 69q84 27 172 9t145 -89q55 -72 54.5 -153t-37.5 -156.5t-98.5 -139t-124.5 -100.5q-117 -66 -236 -69t-235 42q-16 -41 -25.5 -82t-7.5 -77.5t16 -69t47 -55.5 q49 -35 107.5 -41.5t118 7t116 38t103.5 51.5q104 59 189 133t155 158q14 16 31.5 40.5t27.5 34.5q16 16 33.5 9t17.5 -31q0 -20 -18.5 -50t-28.5 -46q-35 -61 -80 -117.5t-94 -110.5q-53 -53 -113.5 -101t-127 -87t-140.5 -63.5t-149 -28.5q-98 -6 -190.5 30.5 t-145.5 122.5q-39 63 -47 137zM838 582q86 -31 175 -21.5t167 60.5q16 10 42.5 35.5t53.5 57t48.5 68.5t29.5 72t0 64.5t-43 48.5q-23 12 -48.5 11t-50 -9t-47 -21.5t-41.5 -25.5q-96 -66 -167.5 -154t-118.5 -186z" />
<glyph unicode="&#x178;" horiz-adv-x="1069" d="M9 804.5q11 61.5 39 122t56 107.5q72 117 168.5 218.5t200.5 189.5q23 18 43.5 15t32.5 -19.5t13 -40t-15 -45.5q-39 -59 -84 -114.5t-86 -115.5q-45 -63 -88 -127.5t-78 -136.5q-23 -45 -34 -83t-4 -59.5t36 -24.5t88 24q117 51 215 130t195 156q135 115 250.5 221.5 t232.5 211.5q18 16 39.5 13t37 -16.5t18.5 -35t-15 -41.5q-111 -123 -210 -254t-192 -269q-53 -78 -102 -158.5t-90 -166.5q-57 -113 -96 -224.5t-23 -230.5q6 -33 -2 -46t-23.5 -12t-34 12t-32.5 26q-18 18 -30.5 46.5t-19.5 59.5t-9.5 59.5t-2.5 49.5q2 76 25 149.5 t56.5 144t76.5 138t88 131.5q-59 -47 -118.5 -91t-122.5 -85q-37 -23 -78 -45.5t-83 -32.5t-84 -5t-81 36q-55 43 -69.5 100t-3.5 118.5zM668 1679q0 43 29.5 73t72.5 30t72.5 -30t29.5 -73t-29.5 -72.5t-72.5 -29.5t-72.5 29.5t-29.5 72.5zM983 1692q0 43 29.5 72.5 t72.5 29.5t73 -29.5t30 -72.5t-30 -73t-73 -30t-72.5 30t-29.5 73z" />
<glyph unicode="&#x2c6;" horiz-adv-x="612" d="M6 1303.5q0 11.5 8 21.5q37 53 89.5 106.5t114 96.5t129 72.5t134.5 35.5q27 2 47.5 -11t24.5 -48q4 -37 11 -75t16 -75q2 -10 9 -29.5t12 -40t6 -39t-7 -28.5q-12 -12 -34.5 2.5t-47 42t-50.5 63.5t-44 66q-55 -6 -105.5 -25.5t-96.5 -46t-88 -55t-85 -55.5 q-12 -8 -22.5 -6t-15.5 9t-5 18.5z" />
<glyph unicode="&#x2dc;" horiz-adv-x="755" d="M6 1303q-4 68 23.5 117.5t76 79.5t107.5 38t119 -6q51 -12 98 -34.5t100 -27.5q59 -6 113 29q14 10 33.5 31.5t36.5 25.5q31 4 36 -17t-3.5 -51t-23.5 -58.5t-22 -36.5q-43 -53 -109.5 -73t-131.5 -9q-55 8 -102.5 32.5t-100.5 38.5q-66 16 -114 -11.5t-81 -84.5 q-10 -16 -31.5 -11t-23.5 28z" />
<glyph unicode="&#x2000;" horiz-adv-x="966" />
<glyph unicode="&#x2001;" horiz-adv-x="1933" />
<glyph unicode="&#x2002;" horiz-adv-x="966" />
<glyph unicode="&#x2003;" horiz-adv-x="1933" />
<glyph unicode="&#x2004;" horiz-adv-x="644" />
<glyph unicode="&#x2005;" horiz-adv-x="483" />
<glyph unicode="&#x2006;" horiz-adv-x="322" />
<glyph unicode="&#x2007;" horiz-adv-x="322" />
<glyph unicode="&#x2008;" horiz-adv-x="241" />
<glyph unicode="&#x2009;" horiz-adv-x="386" />
<glyph unicode="&#x200a;" horiz-adv-x="107" />
<glyph unicode="&#x2010;" horiz-adv-x="1054" d="M172 518.5q-4 18.5 2.5 38t26.5 29.5q68 35 153.5 59.5t174.5 30.5t173 -10.5t150 -65.5q23 -16 24 -34.5t-9.5 -34t-30 -25.5t-39.5 -10q-47 0 -92.5 3t-90.5 3q-98 0 -192 -10.5t-193 -16.5q-23 -2 -38 11.5t-19 32z" />
<glyph unicode="&#x2011;" horiz-adv-x="1054" d="M172 518.5q-4 18.5 2.5 38t26.5 29.5q68 35 153.5 59.5t174.5 30.5t173 -10.5t150 -65.5q23 -16 24 -34.5t-9.5 -34t-30 -25.5t-39.5 -10q-47 0 -92.5 3t-90.5 3q-98 0 -192 -10.5t-193 -16.5q-23 -2 -38 11.5t-19 32z" />
<glyph unicode="&#x2012;" horiz-adv-x="1054" d="M172 518.5q-4 18.5 2.5 38t26.5 29.5q68 35 153.5 59.5t174.5 30.5t173 -10.5t150 -65.5q23 -16 24 -34.5t-9.5 -34t-30 -25.5t-39.5 -10q-47 0 -92.5 3t-90.5 3q-98 0 -192 -10.5t-193 -16.5q-23 -2 -38 11.5t-19 32z" />
<glyph unicode="&#x2013;" horiz-adv-x="1447" d="M172 518.5q-4 18.5 2.5 38t26.5 29.5q45 23 129 42t187.5 31.5t217 17.5t216 -1t185.5 -24.5t126 -51.5q23 -16 23.5 -35.5t-9.5 -36t-29.5 -25.5t-40.5 -7q-49 4 -127 6t-171 1t-192.5 -5t-191.5 -7.5t-168.5 -7.5t-126.5 -8q-23 -2 -38 11.5t-19 32z" />
<glyph unicode="&#x2014;" horiz-adv-x="1832" d="M172 516.5q-4 18.5 2.5 39t26.5 30.5q45 23 159.5 42t263 31.5t315.5 17.5t315.5 -1t261 -24.5t155.5 -51.5q23 -16 24 -35.5t-9.5 -36t-30 -25.5t-39.5 -7q-49 4 -146.5 8t-222.5 6t-266 1t-278.5 -4t-261.5 -11.5t-212 -20.5q-23 -4 -38 9.5t-19 32z" />
<glyph unicode="&#x2018;" horiz-adv-x="362" d="M161.5 1196q26.5 64 78 119t114 100t105.5 72q12 6 21 3t14.5 -10t6.5 -17.5t-3 -18.5q-14 -23 -37 -49.5t-45.5 -57t-42 -63.5t-27.5 -70q11 -8 21 -24q27 -53 8 -97.5t-57.5 -66t-85 -12t-70.5 66.5q-27 61 -0.5 125z" />
<glyph unicode="&#x2019;" horiz-adv-x="362" d="M148.5 1030q-1.5 10 3.5 19q14 23 36.5 49t45 57t42 63.5t27.5 69.5q-10 9 -20 25q-18 35 -15.5 66.5t20 56t44 40t56.5 15.5t56.5 -16.5t42.5 -53.5q27 -61 0.5 -124.5t-78 -119t-114 -100.5t-105.5 -71q-12 -6 -21 -3t-14 10t-6.5 17z" />
<glyph unicode="&#x201a;" horiz-adv-x="362" d="M-261 -116.5q-1 10.5 3 18.5q14 23 36.5 49t45 57t42 63.5t28.5 69.5q-11 9 -21 25q-18 35 -15 66.5t20.5 56t44 40t56 15.5t56 -16.5t43.5 -53.5q27 -61 0 -124.5t-78 -119t-113.5 -100.5t-105.5 -71q-12 -6 -21.5 -3t-14.5 10t-6 17.5z" />
<glyph unicode="&#x201c;" horiz-adv-x="636" d="M161.5 1196q26.5 64 78 119t114 100t105.5 72q12 6 21 3t14.5 -10t6.5 -17.5t-3 -18.5q-14 -23 -37 -49.5t-45.5 -57t-42 -63.5t-27.5 -70q11 -8 21 -24q27 -53 8 -97.5t-57.5 -66t-85 -12t-70.5 66.5q-27 61 -0.5 125zM436 1071q-27 61 0 125t78 119t113.5 100t105.5 72 q12 6 21.5 3t14.5 -10t6 -17.5t-3 -18.5q-14 -23 -36.5 -49.5t-45 -57t-42 -63.5t-27.5 -70q10 -8 20 -24q27 -53 8.5 -97.5t-57.5 -66t-85 -12t-71 66.5z" />
<glyph unicode="&#x201d;" horiz-adv-x="636" d="M148.5 1030q-1.5 10 3.5 19q14 23 36.5 49t45 57t42 63.5t27.5 69.5q-10 9 -20 25q-18 35 -15.5 66.5t20 56t44 40t56.5 15.5t56.5 -16.5t42.5 -53.5q27 -61 0.5 -124.5t-78 -119t-114 -100.5t-105.5 -71q-12 -6 -21 -3t-14 10t-6.5 17zM423 1030q-1 10 3 19 q14 23 36.5 49t45 57t42 63.5t28.5 69.5q-11 9 -21 25q-18 35 -15 66.5t20.5 56t44 40t56 15.5t56 -16.5t43.5 -53.5q27 -61 0 -124.5t-78 -119t-113.5 -100.5t-105.5 -71q-12 -6 -21.5 -3t-14.5 10t-6 17z" />
<glyph unicode="&#x201e;" horiz-adv-x="636" d="M-282 -116.5q-1 10.5 3 18.5q14 23 37 49t45.5 57t42 63.5t27.5 69.5q-10 9 -20 25q-18 35 -15.5 66.5t20 56t44 40t56.5 15.5t56.5 -16.5t42.5 -53.5q27 -61 0.5 -124.5t-78 -119t-114 -100.5t-105.5 -71q-12 -6 -21 -3t-14.5 10t-6.5 17.5zM-7 -116.5q-1 10.5 3 18.5 q14 23 36.5 49t45 57t42 63.5t27.5 69.5q-10 9 -20 25q-18 35 -15 66.5t20.5 56t44 40t56 15.5t56 -16.5t43.5 -53.5q27 -61 0 -124.5t-78 -119t-113.5 -100.5t-105.5 -71q-12 -6 -21.5 -3t-14.5 10t-6 17.5z" />
<glyph unicode="&#x2022;" horiz-adv-x="935" d="M254 676q0 86 58.5 144.5t144.5 58.5t144 -58.5t58 -144.5t-58 -144.5t-144 -58.5t-144.5 58.5t-58.5 144.5z" />
<glyph unicode="&#x2026;" horiz-adv-x="1009" d="M-106 90q0 43 29.5 73t72.5 30t72.5 -30t29.5 -73t-29.5 -72.5t-72.5 -29.5t-72.5 29.5t-29.5 72.5zM201 90q0 43 29.5 73t72.5 30t73 -30t30 -73t-30 -72.5t-73 -29.5t-72.5 29.5t-29.5 72.5zM508 90q0 43 29.5 73t72.5 30t73 -30t30 -73t-30 -72.5t-73 -29.5 t-72.5 29.5t-29.5 72.5z" />
<glyph unicode="&#x202f;" horiz-adv-x="386" />
<glyph unicode="&#x2039;" horiz-adv-x="1005" d="M162.5 560q-4.5 26 9.5 48q39 57 117 110.5t170 95.5t183 71t157 37q23 6 37 -0.5t18 -18.5t-3 -26.5t-28 -24.5q-59 -31 -123.5 -59.5t-126 -59.5t-116 -66.5t-92.5 -84.5q10 -18 37.5 -58.5t58.5 -83.5t56.5 -83t29.5 -60q6 -33 -3 -49.5t-25.5 -21.5t-35 3.5 t-32.5 24.5q-12 14 -48 53t-78 82t-80 81t-55 48q-23 16 -27.5 42z" />
<glyph unicode="&#x203a;" horiz-adv-x="1005" d="M88 248q-4 12 3 26.5t28 24.5q57 31 122.5 59.5t127 59.5t116 66.5t93.5 84.5q-10 18 -39 58.5t-59.5 83.5t-55.5 83t-29 60q-6 33 3.5 49.5t25.5 21.5t34.5 -3.5t33.5 -24.5q12 -14 47.5 -53t77.5 -82t80 -81t55 -48q23 -16 27.5 -42t-9.5 -48q-39 -57 -117 -110.5 t-170 -95.5t-183 -71t-157 -37q-23 -6 -37 0.5t-18 18.5z" />
<glyph unicode="&#x205f;" horiz-adv-x="483" />
<glyph unicode="&#x20ac;" horiz-adv-x="1064" d="M-99.5 373q-8.5 21 7.5 35q106 88 252 147q10 35 20 57q-27 -6 -53.5 -12t-54.5 -10q-23 -4 -32 16.5t7 34.5q96 80 221 135q35 55 77 105.5t85 95.5q63 63 145 122.5t174.5 95.5t188.5 38t186 -49q20 -12 26.5 -31.5t-0.5 -38t-24.5 -30t-42.5 -5.5q-74 18 -146.5 6 t-140 -45.5t-128 -83t-109.5 -104.5q86 4 166 -14.5t145 -71.5q14 -12 18.5 -27.5t1.5 -30t-14.5 -26.5t-27.5 -18t-36.5 -2t-37.5 6q-190 23 -356 -9l-27 -43q92 10 179 -9t159 -75q27 -23 19.5 -57.5t-39.5 -44.5q-16 -6 -38 -2t-38 6q-82 10 -161 9t-157 -11 q-18 -76 -3.5 -142.5t54.5 -110.5t100 -57t138 17q41 16 78 42t70 57q39 39 55 68.5t39 31.5t25.5 -21.5t-9.5 -58.5t-33.5 -74t-48.5 -69q-59 -70 -140 -113t-173 -41q-72 2 -132.5 29.5t-105.5 75t-72.5 109t-31.5 130.5q-4 51 2 92q-49 -10 -97 -20t-98 -21 q-23 -4 -31.5 17z" />
<glyph unicode="&#x2122;" horiz-adv-x="2121" d="M148 1188q-8 16 6 24q256 162 546 222q74 14 148 21t147 -3q61 -8 125 -31.5t99 -77.5q10 -16 7 -28t-13.5 -19.5t-24.5 -9.5t-27 4q-20 8 -36.5 17.5t-37.5 13.5q-68 16 -139 16t-139 -8q-74 -72 -133.5 -158t-114.5 -172q-63 -96 -124.5 -205.5t-76.5 -226.5 q-6 -41 7 -84q4 -16 3 -31.5t-18 -25.5q-23 -16 -42 -4t-33.5 35.5t-22.5 50.5t-10 41q-6 61 8 122.5t42 121t62.5 115t69.5 102.5q57 84 122.5 156.5t133.5 144.5q-131 -23 -257 -58.5t-253 -74.5q-16 -6 -24 10zM661 549q3 47 17 95t34.5 93t39.5 82q57 113 128.5 216.5 t155.5 197.5q41 47 88 93t101 83q39 29 90 47.5t98 -10.5q41 -25 47 -68t-6 -89t-35.5 -90t-38.5 -75q-51 -96 -101 -186t-91 -166q-29 -53 -35 -72.5t3 -15.5t30.5 26.5t46.5 55.5q66 92 131.5 179t134.5 173q49 59 101.5 118.5t111.5 111.5q47 41 105.5 77.5t124.5 36.5 q51 0 72.5 -32.5t6.5 -90.5q-18 -70 -58 -139.5t-79 -134.5q-41 -68 -82 -136.5t-80 -137.5q-18 -33 -41.5 -75t-42 -82t-29 -71t0.5 -43q12 -16 44 2.5t66.5 48t65.5 61.5t41 44q43 45 82 92t78 96q14 16 27.5 8t6.5 -30q-4 -18 -20 -49t-35.5 -64t-38 -61.5t-26.5 -40.5 q-25 -35 -57 -77t-71.5 -78t-85 -56.5t-94.5 -14.5q-66 8 -89 49.5t-18 99.5t30.5 126.5t57.5 132t62.5 116t46.5 76.5q29 49 60 98.5t59 96.5q16 29 34.5 56.5t23 42t-10 10t-61.5 -38.5q-51 -39 -100.5 -86t-108.5 -114t-133 -159t-174 -217q-43 -55 -82 -82.5t-69.5 -34 t-51 7t-27.5 40.5q-16 57 5.5 119.5t44.5 111.5q47 104 99 191t99 180q41 82 35 94t-80 -49q-29 -23 -54.5 -50.5t-47.5 -56.5q-104 -117 -189.5 -239.5t-146.5 -251.5q-20 -41 -41 -92.5t-12 -98.5q2 -18 -7.5 -29.5t-23.5 -15.5t-28.5 1.5t-20.5 23.5q-16 43 -13 90z" />
<glyph unicode="&#x25fc;" horiz-adv-x="1239" d="M0 0v1239h1239v-1239h-1239z" />
</font>
</defs>
</svg>
